<?xml version="1.0" encoding="UTF-8" standalone="no"?>
<svg
   xmlns:dc="http://purl.org/dc/elements/1.1/"
   xmlns:cc="http://creativecommons.org/ns#"
   xmlns:rdf="http://www.w3.org/1999/02/22-rdf-syntax-ns#"
   xmlns:svg="http://www.w3.org/2000/svg"
   xmlns="http://www.w3.org/2000/svg"
   xmlns:sodipodi="http://sodipodi.sourceforge.net/DTD/sodipodi-0.dtd"
   xmlns:inkscape="http://www.inkscape.org/namespaces/inkscape"
   style="font-style:normal;font-weight:normal;font-size:12px;font-family:Dialog;color-interpolation:auto;fill:#000000;fill-opacity:1;stroke:#000000;stroke-width:1;stroke-linecap:square;stroke-linejoin:miter;stroke-miterlimit:10;stroke-dasharray:none;stroke-dashoffset:0;stroke-opacity:1;color-rendering:auto;image-rendering:auto;shape-rendering:auto;text-rendering:auto"
   width="799.03857"
   height="400.823"
   version="1.1"
   id="svg333"
   sodipodi:docname="output.svg"
   inkscape:version="0.92.2 2405546, 2018-03-11">
  <metadata
     id="metadata337">
    <rdf:RDF>
      <cc:Work
         rdf:about="">
        <dc:format>image/svg+xml</dc:format>
        <dc:type
           rdf:resource="http://purl.org/dc/dcmitype/StillImage" />
        <dc:title></dc:title>
      </cc:Work>
    </rdf:RDF>
  </metadata>
  <sodipodi:namedview
     pagecolor="#ffffff"
     bordercolor="#666666"
     borderopacity="1"
     objecttolerance="10"
     gridtolerance="10"
     guidetolerance="10"
     inkscape:pageopacity="0"
     inkscape:pageshadow="2"
     inkscape:window-width="1920"
     inkscape:window-height="1015"
     id="namedview335"
     showgrid="false"
     fit-margin-top="0"
     fit-margin-left="0"
     fit-margin-right="0"
     fit-margin-bottom="0"
     inkscape:zoom="1.2096774"
     inkscape:cx="385.6927"
     inkscape:cy="203.6511"
     inkscape:window-x="0"
     inkscape:window-y="0"
     inkscape:window-maximized="1"
     inkscape:current-layer="svg333" />
  <!--Generated by the Batik Graphics2D SVG Generator-->
  <defs
     id="genericDefs">
    <defs
       id="defs1">
      <clipPath
         id="clipPath1"
         clipPathUnits="userSpaceOnUse">
        <path
           id="path3"
           d="M 0,0 H 992 V 420 H 0 Z"
           inkscape:connector-curvature="0" />
      </clipPath>
    </defs>
  </defs>
  <g
     id="g103"
     style="color-interpolation:linearRGB;fill:#262626;fill-opacity:0.14900004;stroke:#262626;stroke-width:0.66670001;stroke-linecap:butt;stroke-linejoin:round;stroke-opacity:0.14900004;color-rendering:optimizeQuality;image-rendering:optimizeQuality;text-rendering:geometricPrecision"
     transform="translate(-110.3073,-12.8281)">
    <line
       id="line17"
       y1="374"
       x2="129"
       x1="129"
       style="fill:none"
       y2="31" />
    <line
       id="line19"
       y1="374"
       x2="205.89999"
       x1="205.89999"
       style="fill:none"
       y2="31" />
    <line
       id="line21"
       y1="374"
       x2="282.79999"
       x1="282.79999"
       style="fill:none"
       y2="31" />
    <line
       id="line23"
       y1="374"
       x2="359.70001"
       x1="359.70001"
       style="fill:none"
       y2="31" />
    <line
       id="line25"
       y1="374"
       x2="436.60001"
       x1="436.60001"
       style="fill:none"
       y2="31" />
    <line
       id="line27"
       y1="374"
       x2="513.5"
       x1="513.5"
       style="fill:none"
       y2="31" />
    <line
       id="line29"
       y1="374"
       x2="590.40002"
       x1="590.40002"
       style="fill:none"
       y2="31" />
    <line
       id="line31"
       y1="374"
       x2="667.29999"
       x1="667.29999"
       style="fill:none"
       y2="31" />
    <line
       id="line33"
       y1="374"
       x2="744.20001"
       x1="744.20001"
       style="fill:none"
       y2="31" />
    <line
       id="line35"
       y1="374"
       x2="821.09998"
       x1="821.09998"
       style="fill:none"
       y2="31" />
    <line
       id="line37"
       y1="374"
       x2="898"
       x1="898"
       style="fill:none"
       y2="31" />
    <line
       id="line39"
       y1="374"
       x2="129"
       x1="898"
       style="fill:none"
       y2="374" />
    <line
       id="line41"
       y1="325"
       x2="129"
       x1="898"
       style="fill:none"
       y2="325" />
    <line
       id="line43"
       y1="276"
       x2="129"
       x1="898"
       style="fill:none"
       y2="276" />
    <line
       id="line45"
       y1="227"
       x2="129"
       x1="898"
       style="fill:none"
       y2="227" />
    <line
       id="line47"
       y1="178"
       x2="129"
       x1="898"
       style="fill:none"
       y2="178" />
    <line
       id="line49"
       y1="129"
       x2="129"
       x1="898"
       style="fill:none"
       y2="129" />
    <line
       id="line51"
       y1="80"
       x2="129"
       x1="898"
       style="fill:none"
       y2="80" />
    <line
       id="line53"
       y1="31"
       x2="129"
       x1="898"
       style="fill:none"
       y2="31" />
    <line
       id="line55"
       y2="374"
       style="fill:none;fill-opacity:1;stroke-linecap:square;stroke-opacity:1"
       y1="374"
       x2="898"
       x1="129" />
    <line
       id="line57"
       y2="31"
       style="fill:none;fill-opacity:1;stroke-linecap:square;stroke-opacity:1"
       y1="31"
       x2="898"
       x1="129" />
    <line
       id="line59"
       y2="366.31"
       style="fill:none;fill-opacity:1;stroke-linecap:square;stroke-opacity:1"
       y1="374"
       x2="129"
       x1="129" />
    <line
       id="line61"
       y2="366.31"
       style="fill:none;fill-opacity:1;stroke-linecap:square;stroke-opacity:1"
       y1="374"
       x2="205.89999"
       x1="205.89999" />
    <line
       id="line63"
       y2="366.31"
       style="fill:none;fill-opacity:1;stroke-linecap:square;stroke-opacity:1"
       y1="374"
       x2="282.79999"
       x1="282.79999" />
    <line
       id="line65"
       y2="366.31"
       style="fill:none;fill-opacity:1;stroke-linecap:square;stroke-opacity:1"
       y1="374"
       x2="359.70001"
       x1="359.70001" />
    <line
       id="line67"
       y2="366.31"
       style="fill:none;fill-opacity:1;stroke-linecap:square;stroke-opacity:1"
       y1="374"
       x2="436.60001"
       x1="436.60001" />
    <line
       id="line69"
       y2="366.31"
       style="fill:none;fill-opacity:1;stroke-linecap:square;stroke-opacity:1"
       y1="374"
       x2="513.5"
       x1="513.5" />
    <line
       id="line71"
       y2="366.31"
       style="fill:none;fill-opacity:1;stroke-linecap:square;stroke-opacity:1"
       y1="374"
       x2="590.40002"
       x1="590.40002" />
    <line
       id="line73"
       y2="366.31"
       style="fill:none;fill-opacity:1;stroke-linecap:square;stroke-opacity:1"
       y1="374"
       x2="667.29999"
       x1="667.29999" />
    <line
       id="line75"
       y2="366.31"
       style="fill:none;fill-opacity:1;stroke-linecap:square;stroke-opacity:1"
       y1="374"
       x2="744.20001"
       x1="744.20001" />
    <line
       id="line77"
       y2="366.31"
       style="fill:none;fill-opacity:1;stroke-linecap:square;stroke-opacity:1"
       y1="374"
       x2="821.09998"
       x1="821.09998" />
    <line
       id="line79"
       y2="366.31"
       style="fill:none;fill-opacity:1;stroke-linecap:square;stroke-opacity:1"
       y1="374"
       x2="898"
       x1="898" />
    <line
       id="line81"
       y2="38.689999"
       style="fill:none;fill-opacity:1;stroke-linecap:square;stroke-opacity:1"
       y1="31"
       x2="129"
       x1="129" />
    <line
       id="line83"
       y2="38.689999"
       style="fill:none;fill-opacity:1;stroke-linecap:square;stroke-opacity:1"
       y1="31"
       x2="205.89999"
       x1="205.89999" />
    <line
       id="line85"
       y2="38.689999"
       style="fill:none;fill-opacity:1;stroke-linecap:square;stroke-opacity:1"
       y1="31"
       x2="282.79999"
       x1="282.79999" />
    <line
       id="line87"
       y2="38.689999"
       style="fill:none;fill-opacity:1;stroke-linecap:square;stroke-opacity:1"
       y1="31"
       x2="359.70001"
       x1="359.70001" />
    <line
       id="line89"
       y2="38.689999"
       style="fill:none;fill-opacity:1;stroke-linecap:square;stroke-opacity:1"
       y1="31"
       x2="436.60001"
       x1="436.60001" />
    <line
       id="line91"
       y2="38.689999"
       style="fill:none;fill-opacity:1;stroke-linecap:square;stroke-opacity:1"
       y1="31"
       x2="513.5"
       x1="513.5" />
    <line
       id="line93"
       y2="38.689999"
       style="fill:none;fill-opacity:1;stroke-linecap:square;stroke-opacity:1"
       y1="31"
       x2="590.40002"
       x1="590.40002" />
    <line
       id="line95"
       y2="38.689999"
       style="fill:none;fill-opacity:1;stroke-linecap:square;stroke-opacity:1"
       y1="31"
       x2="667.29999"
       x1="667.29999" />
    <line
       id="line97"
       y2="38.689999"
       style="fill:none;fill-opacity:1;stroke-linecap:square;stroke-opacity:1"
       y1="31"
       x2="744.20001"
       x1="744.20001" />
    <line
       id="line99"
       y2="38.689999"
       style="fill:none;fill-opacity:1;stroke-linecap:square;stroke-opacity:1"
       y1="31"
       x2="821.09998"
       x1="821.09998" />
    <line
       id="line101"
       y2="38.689999"
       style="fill:none;fill-opacity:1;stroke-linecap:square;stroke-opacity:1"
       y1="31"
       x2="898"
       x1="898" />
  </g>
  <g
     id="g107"
     style="font-size:13.33329964px;font-family:SansSerif;color-interpolation:linearRGB;fill:#262626;stroke:#262626;color-rendering:optimizeQuality;image-rendering:optimizeQuality;text-rendering:geometricPrecision"
     transform="translate(18.6927,366.5052)">
    <path
       inkscape:connector-curvature="0"
       id="path105"
       d="m -0.375,4.3594 q -0.9844,0 -1.4844,0.9765 -0.5,0.9766 -0.5,2.9297 0,1.9532 0.5,2.9297 0.5,0.9766 1.4844,0.9766 1,0 1.5,-0.9766 0.5,-0.9765 0.5,-2.9297 0,-1.9531 -0.5,-2.9297 -0.5,-0.9765 -1.5,-0.9765 z m 0,-1.0156 q 1.5938,0 2.4375,1.2656 0.8437,1.2656 0.8437,3.6562 0,2.3906 -0.8437,3.6563 -0.8437,1.2656 -2.4375,1.2656 -1.5781,0 -2.4219,-1.2656 -0.8437,-1.2657 -0.8437,-3.6563 0,-2.3906 0.8437,-3.6562 0.8438,-1.2656 2.4219,-1.2656 z"
       style="stroke:none" />
  </g>
  <g
     id="g111"
     style="font-size:13.33329964px;font-family:SansSerif;color-interpolation:linearRGB;fill:#262626;stroke:#262626;color-rendering:optimizeQuality;image-rendering:optimizeQuality;text-rendering:geometricPrecision"
     transform="translate(95.5927,366.5052)">
    <path
       inkscape:connector-curvature="0"
       id="path109"
       d="m -7.0938,3.5156 h 5.0313 v 1.0938 h -3.8594 v 2.3125 q 0.2813,-0.0938 0.5625,-0.1407 0.2813,-0.0468 0.5469,-0.0468 1.5937,0 2.5234,0.8672 0.9297,0.8672 0.9297,2.3515 0,1.5313 -0.9531,2.3828 -0.9531,0.8516 -2.6875,0.8516 -0.5938,0 -1.2188,-0.1016 -0.625,-0.1015 -1.2812,-0.3047 v -1.2968 q 0.5781,0.3125 1.1875,0.4687 0.6094,0.1563 1.2813,0.1563 1.1093,0 1.75,-0.5782 0.6406,-0.5781 0.6406,-1.5781 0,-0.9843 -0.6406,-1.5625 -0.6407,-0.5781 -1.75,-0.5781 -0.5157,0 -1.0235,0.1172 -0.5078,0.1172 -1.0391,0.3515 z M 4.0948,4.3594 q -0.9844,0 -1.4844,0.9765 -0.5,0.9766 -0.5,2.9297 0,1.9532 0.5,2.9297 0.5,0.9766 1.4844,0.9766 1,0 1.5,-0.9766 0.5,-0.9765 0.5,-2.9297 0,-1.9531 -0.5,-2.9297 -0.5,-0.9765 -1.5,-0.9765 z m 0,-1.0156 q 1.5938,0 2.4375,1.2656 0.8438,1.2656 0.8438,3.6562 0,2.3906 -0.8438,3.6563 -0.8437,1.2656 -2.4375,1.2656 -1.5781,0 -2.4219,-1.2656 Q 0.8292,10.6562 0.8292,8.2656 0.8292,5.875 1.6729,4.6094 2.5167,3.3438 4.0948,3.3438 Z"
       style="stroke:none" />
  </g>
  <g
     id="g115"
     style="font-size:13.33329964px;font-family:SansSerif;color-interpolation:linearRGB;fill:#262626;stroke:#262626;color-rendering:optimizeQuality;image-rendering:optimizeQuality;text-rendering:geometricPrecision"
     transform="translate(172.4927,366.5052)">
    <path
       inkscape:connector-curvature="0"
       id="path113"
       d="m -11.3906,11.9219 h 2.0937 V 4.6875 l -2.2812,0.4531 V 3.9844 l 2.2656,-0.4688 h 1.2969 v 8.4063 h 2.0937 V 13 h -5.4687 z M -0.4052,4.3594 q -0.9844,0 -1.4844,0.9765 -0.5,0.9766 -0.5,2.9297 0,1.9532 0.5,2.9297 0.5,0.9766 1.4844,0.9766 1,0 1.5,-0.9766 0.5,-0.9765 0.5,-2.9297 0,-1.9531 -0.5,-2.9297 -0.5,-0.9765 -1.5,-0.9765 z m 0,-1.0156 q 1.5938,0 2.4375,1.2656 0.8438,1.2656 0.8438,3.6562 0,2.3906 -0.8438,3.6563 -0.8437,1.2656 -2.4375,1.2656 -1.5781,0 -2.4219,-1.2656 -0.8437,-1.2657 -0.8437,-3.6563 0,-2.3906 0.8437,-3.6562 0.8438,-1.2656 2.4219,-1.2656 z m 8.4698,1.0156 q -0.9843,0 -1.4843,0.9765 -0.5,0.9766 -0.5,2.9297 0,1.9532 0.5,2.9297 0.5,0.9766 1.4843,0.9766 1,0 1.5,-0.9766 0.5,-0.9765 0.5,-2.9297 0,-1.9531 -0.5,-2.9297 -0.5,-0.9765 -1.5,-0.9765 z m 0,-1.0156 q 1.5938,0 2.4375,1.2656 0.8438,1.2656 0.8438,3.6562 0,2.3906 -0.8438,3.6563 -0.8437,1.2656 -2.4375,1.2656 -1.5781,0 -2.4218,-1.2656 Q 4.799,10.6562 4.799,8.2656 4.799,5.875 5.6428,4.6094 6.4865,3.3438 8.0646,3.3438 Z"
       style="stroke:none" />
  </g>
  <g
     id="g119"
     style="font-size:13.33329964px;font-family:SansSerif;color-interpolation:linearRGB;fill:#262626;stroke:#262626;color-rendering:optimizeQuality;image-rendering:optimizeQuality;text-rendering:geometricPrecision"
     transform="translate(249.3927,366.5052)">
    <path
       inkscape:connector-curvature="0"
       id="path117"
       d="m -11.3906,11.9219 h 2.0937 V 4.6875 l -2.2812,0.4531 V 3.9844 l 2.2656,-0.4688 h 1.2969 v 8.4063 h 2.0937 V 13 h -5.4687 z m 8.2667,-8.4063 h 5.0312 v 1.0938 h -3.8594 v 2.3125 q 0.2813,-0.0938 0.5625,-0.1407 0.2813,-0.0468 0.5469,-0.0468 1.5938,0 2.5235,0.8672 0.9296,0.8672 0.9296,2.3515 0,1.5313 -0.9531,2.3828 -0.9531,0.8516 -2.6875,0.8516 -0.5937,0 -1.2187,-0.1016 -0.625,-0.1015 -1.2813,-0.3047 v -1.2968 q 0.5781,0.3125 1.1875,0.4687 0.6094,0.1563 1.2813,0.1563 1.1093,0 1.75,-0.5782 0.6406,-0.5781 0.6406,-1.5781 0,-0.9843 -0.6406,-1.5625 -0.6407,-0.5781 -1.75,-0.5781 -0.5157,0 -1.0235,0.1172 -0.5078,0.1172 -1.039,0.3515 z M 8.0646,4.3594 q -0.9843,0 -1.4843,0.9765 -0.5,0.9766 -0.5,2.9297 0,1.9532 0.5,2.9297 0.5,0.9766 1.4843,0.9766 1,0 1.5,-0.9766 0.5,-0.9765 0.5,-2.9297 0,-1.9531 -0.5,-2.9297 -0.5,-0.9765 -1.5,-0.9765 z m 0,-1.0156 q 1.5938,0 2.4375,1.2656 0.8438,1.2656 0.8438,3.6562 0,2.3906 -0.8438,3.6563 -0.8437,1.2656 -2.4375,1.2656 -1.5781,0 -2.4218,-1.2656 Q 4.799,10.6562 4.799,8.2656 4.799,5.875 5.6428,4.6094 6.4865,3.3438 8.0646,3.3438 Z"
       style="stroke:none" />
  </g>
  <g
     id="g123"
     style="font-size:13.33329964px;font-family:SansSerif;color-interpolation:linearRGB;fill:#262626;stroke:#262626;color-rendering:optimizeQuality;image-rendering:optimizeQuality;text-rendering:geometricPrecision"
     transform="translate(326.2927,366.5052)">
    <path
       inkscape:connector-curvature="0"
       id="path121"
       d="m -10.5,11.9219 h 4.4688 V 13 h -6.0157 v -1.0781 q 0.7344,-0.75 1.9922,-2.0235 Q -8.7969,8.625 -8.4688,8.25 -7.8594,7.5625 -7.6172,7.0781 -7.375,6.5938 -7.375,6.1406 q 0,-0.7656 -0.5234,-1.2344 -0.5235,-0.4687 -1.3828,-0.4687 -0.6094,0 -1.2735,0.2031 -0.6641,0.2032 -1.4297,0.6406 V 3.9844 q 0.7813,-0.3125 1.4532,-0.4766 0.6718,-0.164 1.2187,-0.164 1.4844,0 2.3594,0.7421 0.875,0.7422 0.875,1.9766 0,0.5781 -0.2188,1.1016 -0.2187,0.5234 -0.7969,1.2265 -0.1562,0.1875 -1.0078,1.0703 -0.8515,0.8829 -2.3984,2.461 z M -0.4052,4.3594 q -0.9844,0 -1.4844,0.9765 -0.5,0.9766 -0.5,2.9297 0,1.9532 0.5,2.9297 0.5,0.9766 1.4844,0.9766 1,0 1.5,-0.9766 0.5,-0.9765 0.5,-2.9297 0,-1.9531 -0.5,-2.9297 -0.5,-0.9765 -1.5,-0.9765 z m 0,-1.0156 q 1.5938,0 2.4375,1.2656 0.8438,1.2656 0.8438,3.6562 0,2.3906 -0.8438,3.6563 -0.8437,1.2656 -2.4375,1.2656 -1.5781,0 -2.4219,-1.2656 -0.8437,-1.2657 -0.8437,-3.6563 0,-2.3906 0.8437,-3.6562 0.8438,-1.2656 2.4219,-1.2656 z m 8.4698,1.0156 q -0.9843,0 -1.4843,0.9765 -0.5,0.9766 -0.5,2.9297 0,1.9532 0.5,2.9297 0.5,0.9766 1.4843,0.9766 1,0 1.5,-0.9766 0.5,-0.9765 0.5,-2.9297 0,-1.9531 -0.5,-2.9297 -0.5,-0.9765 -1.5,-0.9765 z m 0,-1.0156 q 1.5938,0 2.4375,1.2656 0.8438,1.2656 0.8438,3.6562 0,2.3906 -0.8438,3.6563 -0.8437,1.2656 -2.4375,1.2656 -1.5781,0 -2.4218,-1.2656 Q 4.799,10.6562 4.799,8.2656 4.799,5.875 5.6428,4.6094 6.4865,3.3438 8.0646,3.3438 Z"
       style="stroke:none" />
  </g>
  <g
     id="g127"
     style="font-size:13.33329964px;font-family:SansSerif;color-interpolation:linearRGB;fill:#262626;stroke:#262626;color-rendering:optimizeQuality;image-rendering:optimizeQuality;text-rendering:geometricPrecision"
     transform="translate(403.1927,366.5052)">
    <path
       inkscape:connector-curvature="0"
       id="path125"
       d="m -10.5,11.9219 h 4.4688 V 13 h -6.0157 v -1.0781 q 0.7344,-0.75 1.9922,-2.0235 Q -8.7969,8.625 -8.4688,8.25 -7.8594,7.5625 -7.6172,7.0781 -7.375,6.5938 -7.375,6.1406 q 0,-0.7656 -0.5234,-1.2344 -0.5235,-0.4687 -1.3828,-0.4687 -0.6094,0 -1.2735,0.2031 -0.6641,0.2032 -1.4297,0.6406 V 3.9844 q 0.7813,-0.3125 1.4532,-0.4766 0.6718,-0.164 1.2187,-0.164 1.4844,0 2.3594,0.7421 0.875,0.7422 0.875,1.9766 0,0.5781 -0.2188,1.1016 -0.2187,0.5234 -0.7969,1.2265 -0.1562,0.1875 -1.0078,1.0703 -0.8515,0.8829 -2.3984,2.461 z m 7.3761,-8.4063 h 5.0312 v 1.0938 h -3.8594 v 2.3125 q 0.2813,-0.0938 0.5625,-0.1407 0.2813,-0.0468 0.5469,-0.0468 1.5938,0 2.5235,0.8672 0.9296,0.8672 0.9296,2.3515 0,1.5313 -0.9531,2.3828 -0.9531,0.8516 -2.6875,0.8516 -0.5937,0 -1.2187,-0.1016 -0.625,-0.1015 -1.2813,-0.3047 v -1.2968 q 0.5781,0.3125 1.1875,0.4687 0.6094,0.1563 1.2813,0.1563 1.1093,0 1.75,-0.5782 0.6406,-0.5781 0.6406,-1.5781 0,-0.9843 -0.6406,-1.5625 -0.6407,-0.5781 -1.75,-0.5781 -0.5157,0 -1.0235,0.1172 -0.5078,0.1172 -1.039,0.3515 z M 8.0646,4.3594 q -0.9843,0 -1.4843,0.9765 -0.5,0.9766 -0.5,2.9297 0,1.9532 0.5,2.9297 0.5,0.9766 1.4843,0.9766 1,0 1.5,-0.9766 0.5,-0.9765 0.5,-2.9297 0,-1.9531 -0.5,-2.9297 -0.5,-0.9765 -1.5,-0.9765 z m 0,-1.0156 q 1.5938,0 2.4375,1.2656 0.8438,1.2656 0.8438,3.6562 0,2.3906 -0.8438,3.6563 -0.8437,1.2656 -2.4375,1.2656 -1.5781,0 -2.4218,-1.2656 Q 4.799,10.6562 4.799,8.2656 4.799,5.875 5.6428,4.6094 6.4865,3.3438 8.0646,3.3438 Z"
       style="stroke:none" />
  </g>
  <g
     id="g131"
     style="font-size:13.33329964px;font-family:SansSerif;color-interpolation:linearRGB;fill:#262626;stroke:#262626;color-rendering:optimizeQuality;image-rendering:optimizeQuality;text-rendering:geometricPrecision"
     transform="translate(480.0927,366.5052)">
    <path
       inkscape:connector-curvature="0"
       id="path129"
       d="m -7.7188,7.8906 q 0.9219,0.2032 1.4376,0.8203 0.5156,0.6172 0.5156,1.5391 0,1.3906 -0.9688,2.1641 -0.9687,0.7734 -2.75,0.7734 -0.5937,0 -1.2265,-0.1172 -0.6329,-0.1172 -1.3047,-0.3515 v -1.25 q 0.5468,0.3124 1.1797,0.4765 0.6328,0.1641 1.3203,0.1641 1.2031,0 1.8359,-0.4766 0.6328,-0.4766 0.6328,-1.3828 0,-0.8438 -0.5859,-1.3125 -0.586,-0.4687 -1.6328,-0.4687 H -10.375 V 7.4062 h 1.1562 q 0.9532,0 1.4532,-0.375 0.5,-0.375 0.5,-1.0937 0,-0.7187 -0.5156,-1.1094 -0.5157,-0.3906 -1.4844,-0.3906 -0.5313,0 -1.1328,0.1094 Q -11,4.6562 -11.7188,4.9062 V 3.75 Q -11,3.5469 -10.3594,3.4453 q 0.6406,-0.1015 1.2032,-0.1015 1.4687,0 2.3203,0.664 0.8515,0.6641 0.8515,1.8047 0,0.7813 -0.4531,1.3281 -0.4531,0.5469 -1.2813,0.75 z m 7.3136,-3.5312 q -0.9844,0 -1.4844,0.9765 -0.5,0.9766 -0.5,2.9297 0,1.9532 0.5,2.9297 0.5,0.9766 1.4844,0.9766 1,0 1.5,-0.9766 0.5,-0.9765 0.5,-2.9297 0,-1.9531 -0.5,-2.9297 -0.5,-0.9765 -1.5,-0.9765 z m 0,-1.0156 q 1.5938,0 2.4375,1.2656 0.8438,1.2656 0.8438,3.6562 0,2.3906 -0.8438,3.6563 -0.8437,1.2656 -2.4375,1.2656 -1.5781,0 -2.4219,-1.2656 -0.8437,-1.2657 -0.8437,-3.6563 0,-2.3906 0.8437,-3.6562 0.8438,-1.2656 2.4219,-1.2656 z m 8.4698,1.0156 q -0.9843,0 -1.4843,0.9765 -0.5,0.9766 -0.5,2.9297 0,1.9532 0.5,2.9297 0.5,0.9766 1.4843,0.9766 1,0 1.5,-0.9766 0.5,-0.9765 0.5,-2.9297 0,-1.9531 -0.5,-2.9297 -0.5,-0.9765 -1.5,-0.9765 z m 0,-1.0156 q 1.5938,0 2.4375,1.2656 0.8438,1.2656 0.8438,3.6562 0,2.3906 -0.8438,3.6563 -0.8437,1.2656 -2.4375,1.2656 -1.5781,0 -2.4218,-1.2656 Q 4.799,10.6562 4.799,8.2656 4.799,5.875 5.6428,4.6094 6.4865,3.3438 8.0646,3.3438 Z"
       style="stroke:none" />
  </g>
  <g
     id="g135"
     style="font-size:13.33329964px;font-family:SansSerif;color-interpolation:linearRGB;fill:#262626;stroke:#262626;color-rendering:optimizeQuality;image-rendering:optimizeQuality;text-rendering:geometricPrecision"
     transform="translate(556.9927,366.5052)">
    <path
       inkscape:connector-curvature="0"
       id="path133"
       d="m -7.7188,7.8906 q 0.9219,0.2032 1.4376,0.8203 0.5156,0.6172 0.5156,1.5391 0,1.3906 -0.9688,2.1641 -0.9687,0.7734 -2.75,0.7734 -0.5937,0 -1.2265,-0.1172 -0.6329,-0.1172 -1.3047,-0.3515 v -1.25 q 0.5468,0.3124 1.1797,0.4765 0.6328,0.1641 1.3203,0.1641 1.2031,0 1.8359,-0.4766 0.6328,-0.4766 0.6328,-1.3828 0,-0.8438 -0.5859,-1.3125 -0.586,-0.4687 -1.6328,-0.4687 H -10.375 V 7.4062 h 1.1562 q 0.9532,0 1.4532,-0.375 0.5,-0.375 0.5,-1.0937 0,-0.7187 -0.5156,-1.1094 -0.5157,-0.3906 -1.4844,-0.3906 -0.5313,0 -1.1328,0.1094 Q -11,4.6562 -11.7188,4.9062 V 3.75 Q -11,3.5469 -10.3594,3.4453 q 0.6406,-0.1015 1.2032,-0.1015 1.4687,0 2.3203,0.664 0.8515,0.6641 0.8515,1.8047 0,0.7813 -0.4531,1.3281 -0.4531,0.5469 -1.2813,0.75 z m 4.5949,-4.375 h 5.0312 v 1.0938 h -3.8594 v 2.3125 q 0.2813,-0.0938 0.5625,-0.1407 0.2813,-0.0468 0.5469,-0.0468 1.5938,0 2.5235,0.8672 0.9296,0.8672 0.9296,2.3515 0,1.5313 -0.9531,2.3828 -0.9531,0.8516 -2.6875,0.8516 -0.5937,0 -1.2187,-0.1016 -0.625,-0.1015 -1.2813,-0.3047 v -1.2968 q 0.5781,0.3125 1.1875,0.4687 0.6094,0.1563 1.2813,0.1563 1.1093,0 1.75,-0.5782 0.6406,-0.5781 0.6406,-1.5781 0,-0.9843 -0.6406,-1.5625 -0.6407,-0.5781 -1.75,-0.5781 -0.5157,0 -1.0235,0.1172 -0.5078,0.1172 -1.039,0.3515 z M 8.0646,4.3594 q -0.9843,0 -1.4843,0.9765 -0.5,0.9766 -0.5,2.9297 0,1.9532 0.5,2.9297 0.5,0.9766 1.4843,0.9766 1,0 1.5,-0.9766 0.5,-0.9765 0.5,-2.9297 0,-1.9531 -0.5,-2.9297 -0.5,-0.9765 -1.5,-0.9765 z m 0,-1.0156 q 1.5938,0 2.4375,1.2656 0.8438,1.2656 0.8438,3.6562 0,2.3906 -0.8438,3.6563 -0.8437,1.2656 -2.4375,1.2656 -1.5781,0 -2.4218,-1.2656 Q 4.799,10.6562 4.799,8.2656 4.799,5.875 5.6428,4.6094 6.4865,3.3438 8.0646,3.3438 Z"
       style="stroke:none" />
  </g>
  <g
     id="g139"
     style="font-size:13.33329964px;font-family:SansSerif;color-interpolation:linearRGB;fill:#262626;stroke:#262626;color-rendering:optimizeQuality;image-rendering:optimizeQuality;text-rendering:geometricPrecision"
     transform="translate(633.8927,366.5052)">
    <path
       inkscape:connector-curvature="0"
       id="path137"
       d="m -8.0938,4.6406 -3.2343,5.0625 h 3.2343 z m -0.3281,-1.125 h 1.6094 v 6.1875 h 1.3594 v 1.0625 H -6.8125 V 13 h -1.2813 v -2.2344 h -4.2656 V 9.5312 Z m 8.0167,0.8438 q -0.9844,0 -1.4844,0.9765 -0.5,0.9766 -0.5,2.9297 0,1.9532 0.5,2.9297 0.5,0.9766 1.4844,0.9766 1,0 1.5,-0.9766 0.5,-0.9765 0.5,-2.9297 0,-1.9531 -0.5,-2.9297 -0.5,-0.9765 -1.5,-0.9765 z m 0,-1.0156 q 1.5938,0 2.4375,1.2656 0.8438,1.2656 0.8438,3.6562 0,2.3906 -0.8438,3.6563 -0.8437,1.2656 -2.4375,1.2656 -1.5781,0 -2.4219,-1.2656 -0.8437,-1.2657 -0.8437,-3.6563 0,-2.3906 0.8437,-3.6562 0.8438,-1.2656 2.4219,-1.2656 z m 8.4698,1.0156 q -0.9843,0 -1.4843,0.9765 -0.5,0.9766 -0.5,2.9297 0,1.9532 0.5,2.9297 0.5,0.9766 1.4843,0.9766 1,0 1.5,-0.9766 0.5,-0.9765 0.5,-2.9297 0,-1.9531 -0.5,-2.9297 -0.5,-0.9765 -1.5,-0.9765 z m 0,-1.0156 q 1.5938,0 2.4375,1.2656 0.8438,1.2656 0.8438,3.6562 0,2.3906 -0.8438,3.6563 -0.8437,1.2656 -2.4375,1.2656 -1.5781,0 -2.4218,-1.2656 Q 4.799,10.6562 4.799,8.2656 4.799,5.875 5.6428,4.6094 6.4865,3.3438 8.0646,3.3438 Z"
       style="stroke:none" />
  </g>
  <g
     id="g143"
     style="font-size:13.33329964px;font-family:SansSerif;color-interpolation:linearRGB;fill:#262626;stroke:#262626;color-rendering:optimizeQuality;image-rendering:optimizeQuality;text-rendering:geometricPrecision"
     transform="translate(710.7927,366.5052)">
    <path
       inkscape:connector-curvature="0"
       id="path141"
       d="m -8.0938,4.6406 -3.2343,5.0625 h 3.2343 z m -0.3281,-1.125 h 1.6094 v 6.1875 h 1.3594 v 1.0625 H -6.8125 V 13 h -1.2813 v -2.2344 h -4.2656 V 9.5312 Z m 5.298,0 h 5.0312 v 1.0938 h -3.8594 v 2.3125 q 0.2813,-0.0938 0.5625,-0.1407 0.2813,-0.0468 0.5469,-0.0468 1.5938,0 2.5235,0.8672 0.9296,0.8672 0.9296,2.3515 0,1.5313 -0.9531,2.3828 -0.9531,0.8516 -2.6875,0.8516 -0.5937,0 -1.2187,-0.1016 -0.625,-0.1015 -1.2813,-0.3047 v -1.2968 q 0.5781,0.3125 1.1875,0.4687 0.6094,0.1563 1.2813,0.1563 1.1093,0 1.75,-0.5782 0.6406,-0.5781 0.6406,-1.5781 0,-0.9843 -0.6406,-1.5625 -0.6407,-0.5781 -1.75,-0.5781 -0.5157,0 -1.0235,0.1172 -0.5078,0.1172 -1.039,0.3515 z M 8.0646,4.3594 q -0.9843,0 -1.4843,0.9765 -0.5,0.9766 -0.5,2.9297 0,1.9532 0.5,2.9297 0.5,0.9766 1.4843,0.9766 1,0 1.5,-0.9766 0.5,-0.9765 0.5,-2.9297 0,-1.9531 -0.5,-2.9297 -0.5,-0.9765 -1.5,-0.9765 z m 0,-1.0156 q 1.5938,0 2.4375,1.2656 0.8438,1.2656 0.8438,3.6562 0,2.3906 -0.8438,3.6563 -0.8437,1.2656 -2.4375,1.2656 -1.5781,0 -2.4218,-1.2656 Q 4.799,10.6562 4.799,8.2656 4.799,5.875 5.6428,4.6094 6.4865,3.3438 8.0646,3.3438 Z"
       style="stroke:none" />
  </g>
  <g
     id="g147"
     style="font-size:13.33329964px;font-family:SansSerif;color-interpolation:linearRGB;fill:#262626;stroke:#262626;color-rendering:optimizeQuality;image-rendering:optimizeQuality;text-rendering:geometricPrecision"
     transform="translate(787.6927,366.5052)">
    <path
       inkscape:connector-curvature="0"
       id="path145"
       d="m -11.5938,3.5156 h 5.0313 v 1.0938 h -3.8594 v 2.3125 q 0.2813,-0.0938 0.5625,-0.1407 0.2813,-0.0468 0.5469,-0.0468 1.5937,0 2.5234,0.8672 0.9297,0.8672 0.9297,2.3515 0,1.5313 -0.9531,2.3828 -0.9531,0.8516 -2.6875,0.8516 -0.5938,0 -1.2188,-0.1016 -0.625,-0.1015 -1.2812,-0.3047 v -1.2968 q 0.5781,0.3125 1.1875,0.4687 0.6094,0.1563 1.2813,0.1563 1.1093,0 1.75,-0.5782 0.6406,-0.5781 0.6406,-1.5781 0,-0.9843 -0.6406,-1.5625 -0.6407,-0.5781 -1.75,-0.5781 -0.5157,0 -1.0235,0.1172 -0.5078,0.1172 -1.0391,0.3515 z m 11.1886,0.8438 q -0.9844,0 -1.4844,0.9765 -0.5,0.9766 -0.5,2.9297 0,1.9532 0.5,2.9297 0.5,0.9766 1.4844,0.9766 1,0 1.5,-0.9766 0.5,-0.9765 0.5,-2.9297 0,-1.9531 -0.5,-2.9297 -0.5,-0.9765 -1.5,-0.9765 z m 0,-1.0156 q 1.5938,0 2.4375,1.2656 0.8438,1.2656 0.8438,3.6562 0,2.3906 -0.8438,3.6563 -0.8437,1.2656 -2.4375,1.2656 -1.5781,0 -2.4219,-1.2656 -0.8437,-1.2657 -0.8437,-3.6563 0,-2.3906 0.8437,-3.6562 0.8438,-1.2656 2.4219,-1.2656 z m 8.4698,1.0156 q -0.9843,0 -1.4843,0.9765 -0.5,0.9766 -0.5,2.9297 0,1.9532 0.5,2.9297 0.5,0.9766 1.4843,0.9766 1,0 1.5,-0.9766 0.5,-0.9765 0.5,-2.9297 0,-1.9531 -0.5,-2.9297 -0.5,-0.9765 -1.5,-0.9765 z m 0,-1.0156 q 1.5938,0 2.4375,1.2656 0.8438,1.2656 0.8438,3.6562 0,2.3906 -0.8438,3.6563 -0.8437,1.2656 -2.4375,1.2656 -1.5781,0 -2.4218,-1.2656 Q 4.799,10.6562 4.799,8.2656 4.799,5.875 5.6428,4.6094 6.4865,3.3438 8.0646,3.3438 Z"
       style="stroke:none" />
  </g>
  <g
     id="g151"
     style="font-size:14.66670036px;font-family:SansSerif;color-interpolation:linearRGB;fill:#262626;stroke:#262626;color-rendering:optimizeQuality;image-rendering:optimizeQuality;text-rendering:geometricPrecision"
     transform="translate(403.1931,384.8386)">
    <path
       inkscape:connector-curvature="0"
       id="path149"
       d="m -37.5469,3.0625 h 9.25 v 1.25 h -3.875 V 14 h -1.4843 V 4.3125 h -3.8907 z m 10.4058,2.7344 h 1.3593 V 14 h -1.3593 z m 0,-3.1875 h 1.3593 v 1.7031 h -1.3593 z m 10.4626,4.7656 q 0.5156,-0.9062 1.2187,-1.3438 0.7031,-0.4374 1.6563,-0.4374 1.2812,0 1.9765,0.8984 0.6953,0.8984 0.6953,2.5547 V 14 H -12.491 V 9.0938 q 0,-1.1876 -0.4219,-1.7579 -0.4219,-0.5703 -1.2656,-0.5703 -1.0469,0 -1.6563,0.6953 -0.6094,0.6953 -0.6094,1.8985 V 14 h -1.3593 V 9.0938 q 0,-1.1876 -0.4141,-1.7579 -0.4141,-0.5703 -1.2891,-0.5703 -1.0312,0 -1.6406,0.7032 -0.6094,0.7031 -0.6094,1.8906 V 14 H -23.116 V 5.7969 h 1.3593 v 1.2812 q 0.4532,-0.7656 1.1016,-1.125 0.6484,-0.3593 1.5391,-0.3593 0.8906,0 1.5156,0.4531 0.625,0.4531 0.9219,1.3281 z m 14.9176,2.1875 v 0.6563 h -6.2032 q 0.0938,1.3906 0.8438,2.1171 0.75,0.7266 2.0781,0.7266 0.7813,0 1.5078,-0.1875 0.7266,-0.1875 1.4453,-0.5625 v 1.2656 q -0.7187,0.3125 -1.4843,0.4766 -0.7657,0.1641 -1.5469,0.1641 -1.9531,0 -3.1016,-1.1485 -1.1484,-1.1484 -1.1484,-3.0859 0,-2.0156 1.0859,-3.2032 1.086,-1.1874 2.9297,-1.1874 1.6563,0 2.625,1.0703 0.9688,1.0703 0.9688,2.8984 z M -3.1203,9.1719 q -0.0156,-1.1094 -0.6172,-1.7735 -0.6016,-0.664 -1.6016,-0.664 -1.125,0 -1.8047,0.6406 -0.6796,0.6406 -0.7734,1.7969 z M 4.7743,2.6094 H 7.868 v 1.0468 h -1.75 v 11.2813 h 1.75 v 1.0469 H 4.7743 Z M 16.9922,7.375 q 0.5156,-0.9062 1.2188,-1.3438 0.7031,-0.4374 1.6562,-0.4374 1.2813,0 1.9766,0.8984 0.6953,0.8984 0.6953,2.5547 V 14 H 21.1797 V 9.0938 q 0,-1.1876 -0.4219,-1.7579 -0.4218,-0.5703 -1.2656,-0.5703 -1.0469,0 -1.6562,0.6953 -0.6094,0.6953 -0.6094,1.8985 V 14 H 15.8672 V 9.0938 q 0,-1.1876 -0.4141,-1.7579 -0.414,-0.5703 -1.289,-0.5703 -1.0313,0 -1.6406,0.7032 -0.6094,0.7031 -0.6094,1.8906 V 14 H 10.5547 V 5.7969 h 1.3594 v 1.2812 q 0.4531,-0.7656 1.1015,-1.125 0.6485,-0.3593 1.5391,-0.3593 0.8906,0 1.5156,0.4531 0.625,0.4531 0.9219,1.3281 z M 30.1129,6.0312 V 7.3125 Q 29.5504,7.0156 28.9332,6.875 28.316,6.7344 27.6598,6.7344 q -1.0156,0 -1.5156,0.3047 -0.5,0.3047 -0.5,0.914 0,0.4688 0.3593,0.7344 0.3594,0.2656 1.4532,0.5156 l 0.4531,0.1094 q 1.4375,0.2969 2.0391,0.8594 0.6015,0.5625 0.6015,1.5625 0,1.1406 -0.8984,1.8125 -0.8985,0.6719 -2.4922,0.6719 -0.6563,0 -1.3672,-0.1329 -0.7109,-0.1328 -1.5078,-0.3828 v -1.3906 q 0.75,0.3906 1.4766,0.5781 0.7265,0.1875 1.4296,0.1875 0.9532,0 1.4688,-0.3203 0.5156,-0.3203 0.5156,-0.914 0,-0.5469 -0.375,-0.8438 -0.375,-0.2969 -1.625,-0.5625 l -0.4687,-0.1094 q -1.25,-0.2656 -1.8047,-0.8125 -0.5547,-0.5468 -0.5547,-1.5 0,-1.1562 0.8203,-1.789 0.8203,-0.6328 2.3203,-0.6328 0.75,0 1.4141,0.1093 0.664,0.1094 1.2109,0.3281 z m 5.5577,-3.4218 v 13.375 h -3.1093 v -1.0469 h 1.75 V 3.6562 h -1.75 V 2.6094 Z"
       style="stroke:none" />
  </g>
  <g
     id="g189"
     style="color-interpolation:linearRGB;fill:#262626;stroke:#262626;stroke-width:0.66670001;stroke-linejoin:round;color-rendering:optimizeQuality;image-rendering:optimizeQuality;text-rendering:geometricPrecision"
     transform="translate(-110.3073,-12.8281)">
    <line
       id="line153"
       y1="374"
       x2="129"
       x1="129"
       style="fill:none"
       y2="31" />
    <line
       id="line155"
       y1="374"
       x2="898"
       x1="898"
       style="fill:none"
       y2="31" />
    <line
       id="line157"
       y1="374"
       x2="136.69"
       x1="129"
       style="fill:none"
       y2="374" />
    <line
       id="line159"
       y1="325"
       x2="136.69"
       x1="129"
       style="fill:none"
       y2="325" />
    <line
       id="line161"
       y1="276"
       x2="136.69"
       x1="129"
       style="fill:none"
       y2="276" />
    <line
       id="line163"
       y1="227"
       x2="136.69"
       x1="129"
       style="fill:none"
       y2="227" />
    <line
       id="line165"
       y1="178"
       x2="136.69"
       x1="129"
       style="fill:none"
       y2="178" />
    <line
       id="line167"
       y1="129"
       x2="136.69"
       x1="129"
       style="fill:none"
       y2="129" />
    <line
       id="line169"
       y1="80"
       x2="136.69"
       x1="129"
       style="fill:none"
       y2="80" />
    <line
       id="line171"
       y1="31"
       x2="136.69"
       x1="129"
       style="fill:none"
       y2="31" />
    <line
       id="line173"
       y1="374"
       x2="890.31"
       x1="898"
       style="fill:none"
       y2="374" />
    <line
       id="line175"
       y1="325"
       x2="890.31"
       x1="898"
       style="fill:none"
       y2="325" />
    <line
       id="line177"
       y1="276"
       x2="890.31"
       x1="898"
       style="fill:none"
       y2="276" />
    <line
       id="line179"
       y1="227"
       x2="890.31"
       x1="898"
       style="fill:none"
       y2="227" />
    <line
       id="line181"
       y1="178"
       x2="890.31"
       x1="898"
       style="fill:none"
       y2="178" />
    <line
       id="line183"
       y1="129"
       x2="890.31"
       x1="898"
       style="fill:none"
       y2="129" />
    <line
       id="line185"
       y1="80"
       x2="890.31"
       x1="898"
       style="fill:none"
       y2="80" />
    <line
       id="line187"
       y1="31"
       x2="890.31"
       x1="898"
       style="fill:none"
       y2="31" />
  </g>
  <g
     id="g193"
     style="font-size:13.33329964px;font-family:SansSerif;color-interpolation:linearRGB;fill:#262626;stroke:#262626;color-rendering:optimizeQuality;image-rendering:optimizeQuality;text-rendering:geometricPrecision"
     transform="translate(13.3594,361.1719)">
    <path
       inkscape:connector-curvature="0"
       id="path191"
       d="m -13.3594,0.4219 h 3.4219 v 1.0312 h -3.4219 z m 9.0693,-4.2813 -3.2343,5.0625 h 3.2343 z m -0.3281,-1.125 h 1.6094 v 6.1875 h 1.3594 V 2.2656 H -3.0088 V 4.5 H -4.2901 V 2.2656 H -8.5557 V 1.0312 Z"
       style="stroke:none" />
  </g>
  <g
     id="g197"
     style="font-size:13.33329964px;font-family:SansSerif;color-interpolation:linearRGB;fill:#262626;stroke:#262626;color-rendering:optimizeQuality;image-rendering:optimizeQuality;text-rendering:geometricPrecision"
     transform="translate(13.3594,312.1719)">
    <path
       inkscape:connector-curvature="0"
       id="path195"
       d="m -13.3594,0.4219 h 3.4219 v 1.0312 h -3.4219 z m 9.4443,-1.0313 q 0.9219,0.2032 1.4375,0.8203 0.5157,0.6172 0.5157,1.5391 0,1.3906 -0.9688,2.1641 -0.9687,0.7734 -2.75,0.7734 -0.5937,0 -1.2266,-0.1172 -0.6328,-0.1172 -1.3046,-0.3515 v -1.25 q 0.5468,0.3124 1.1796,0.4765 0.6329,0.1641 1.3204,0.1641 1.2031,0 1.8359,-0.4766 0.6328,-0.4766 0.6328,-1.3828 0,-0.8438 -0.5859,-1.3125 -0.586,-0.4687 -1.6328,-0.4687 h -1.1094 v -1.0626 h 1.1562 q 0.9532,0 1.4532,-0.375 0.5,-0.375 0.5,-1.0937 0,-0.7187 -0.5157,-1.1094 -0.5156,-0.3906 -1.4843,-0.3906 -0.5313,0 -1.1329,0.1094 -0.6015,0.1093 -1.3203,0.3593 V -4.75 q 0.7188,-0.2031 1.3594,-0.3047 0.6406,-0.1015 1.2031,-0.1015 1.4688,0 2.3203,0.664 0.8516,0.6641 0.8516,1.8047 0,0.7813 -0.4531,1.3281 -0.4531,0.5469 -1.2813,0.75 z"
       style="stroke:none" />
  </g>
  <g
     id="g201"
     style="font-size:13.33329964px;font-family:SansSerif;color-interpolation:linearRGB;fill:#262626;stroke:#262626;color-rendering:optimizeQuality;image-rendering:optimizeQuality;text-rendering:geometricPrecision"
     transform="translate(13.3594,263.1719)">
    <path
       inkscape:connector-curvature="0"
       id="path199"
       d="m -13.3594,0.4219 h 3.4219 v 1.0312 h -3.4219 z m 6.6631,3 h 4.4687 V 4.5 H -8.2432 V 3.4219 q 0.7344,-0.75 1.9922,-2.0235 1.2578,-1.2734 1.5859,-1.6484 0.6094,-0.6875 0.8516,-1.1719 0.2422,-0.4843 0.2422,-0.9375 0,-0.7656 -0.5235,-1.2344 -0.5234,-0.4687 -1.3828,-0.4687 -0.6093,0 -1.2734,0.2031 -0.6641,0.2032 -1.4297,0.6406 v -1.2968 q 0.7813,-0.3125 1.4531,-0.4766 0.6719,-0.164 1.2188,-0.164 1.4844,0 2.3594,0.7421 0.875,0.7422 0.875,1.9766 0,0.5781 -0.2188,1.1016 -0.2187,0.5234 -0.7969,1.2265 -0.1562,0.1875 -1.0078,1.0703 -0.8515,0.8829 -2.3984,2.461 z"
       style="stroke:none" />
  </g>
  <g
     id="g205"
     style="font-size:13.33329964px;font-family:SansSerif;color-interpolation:linearRGB;fill:#262626;stroke:#262626;color-rendering:optimizeQuality;image-rendering:optimizeQuality;text-rendering:geometricPrecision"
     transform="translate(13.3594,214.1719)">
    <path
       inkscape:connector-curvature="0"
       id="path203"
       d="m -13.3594,0.4219 h 3.4219 v 1.0312 h -3.4219 z m 5.7725,3 h 2.0937 v -7.2344 l -2.2812,0.4531 v -1.1562 l 2.2656,-0.4688 h 1.2969 v 8.4063 h 2.0937 V 4.5 h -5.4687 z"
       style="stroke:none" />
  </g>
  <g
     id="g209"
     style="font-size:13.33329964px;font-family:SansSerif;color-interpolation:linearRGB;fill:#262626;stroke:#262626;color-rendering:optimizeQuality;image-rendering:optimizeQuality;text-rendering:geometricPrecision"
     transform="translate(13.3594,165.1719)">
    <path
       inkscape:connector-curvature="0"
       id="path207"
       d="m -4.875,-4.1406 q -0.9844,0 -1.4844,0.9765 -0.5,0.9766 -0.5,2.9297 0,1.9532 0.5,2.9297 0.5,0.9766 1.4844,0.9766 1,0 1.5,-0.9766 0.5,-0.9765 0.5,-2.9297 0,-1.9531 -0.5,-2.9297 -0.5,-0.9765 -1.5,-0.9765 z m 0,-1.0156 q 1.5938,0 2.4375,1.2656 0.8437,1.2656 0.8437,3.6562 0,2.3906 -0.8437,3.6563 -0.8437,1.2656 -2.4375,1.2656 -1.5781,0 -2.4219,-1.2656 -0.8437,-1.2657 -0.8437,-3.6563 0,-2.3906 0.8437,-3.6562 0.8438,-1.2656 2.4219,-1.2656 z"
       style="stroke:none" />
  </g>
  <g
     id="g213"
     style="font-size:13.33329964px;font-family:SansSerif;color-interpolation:linearRGB;fill:#262626;stroke:#262626;color-rendering:optimizeQuality;image-rendering:optimizeQuality;text-rendering:geometricPrecision"
     transform="translate(13.3594,116.1719)">
    <path
       inkscape:connector-curvature="0"
       id="path211"
       d="m -7.3906,3.4219 h 2.0937 v -7.2344 l -2.2812,0.4531 v -1.1562 l 2.2656,-0.4688 h 1.2969 v 8.4063 h 2.0937 V 4.5 h -5.4687 z"
       style="stroke:none" />
  </g>
  <g
     id="g217"
     style="font-size:13.33329964px;font-family:SansSerif;color-interpolation:linearRGB;fill:#262626;stroke:#262626;color-rendering:optimizeQuality;image-rendering:optimizeQuality;text-rendering:geometricPrecision"
     transform="translate(13.3594,67.1719)">
    <path
       inkscape:connector-curvature="0"
       id="path215"
       d="m -6.5,3.4219 h 4.4688 V 4.5 H -8.0469 V 3.4219 q 0.7344,-0.75 1.9922,-2.0235 1.2578,-1.2734 1.5859,-1.6484 0.6094,-0.6875 0.8516,-1.1719 0.2422,-0.4843 0.2422,-0.9375 0,-0.7656 -0.5234,-1.2344 -0.5235,-0.4687 -1.3828,-0.4687 -0.6094,0 -1.2735,0.2031 -0.6641,0.2032 -1.4297,0.6406 v -1.2968 q 0.7813,-0.3125 1.4532,-0.4766 0.6718,-0.164 1.2187,-0.164 1.4844,0 2.3594,0.7421 0.875,0.7422 0.875,1.9766 0,0.5781 -0.2188,1.1016 -0.2187,0.5234 -0.7969,1.2265 Q -3.25,0.0781 -4.1016,0.9609 -4.9531,1.8438 -6.5,3.4219 Z"
       style="stroke:none" />
  </g>
  <g
     id="g221"
     style="font-size:13.33329964px;font-family:SansSerif;color-interpolation:linearRGB;fill:#262626;stroke:#262626;color-rendering:optimizeQuality;image-rendering:optimizeQuality;text-rendering:geometricPrecision"
     transform="translate(13.3594,18.1719)">
    <path
       inkscape:connector-curvature="0"
       id="path219"
       d="m -3.7188,-0.6094 q 0.9219,0.2032 1.4376,0.8203 0.5156,0.6172 0.5156,1.5391 0,1.3906 -0.9688,2.1641 -0.9687,0.7734 -2.75,0.7734 -0.5937,0 -1.2265,-0.1172 -0.6329,-0.1172 -1.3047,-0.3515 v -1.25 q 0.5468,0.3124 1.1797,0.4765 0.6328,0.1641 1.3203,0.1641 1.2031,0 1.8359,-0.4766 0.6328,-0.4766 0.6328,-1.3828 0,-0.8438 -0.5859,-1.3125 -0.586,-0.4687 -1.6328,-0.4687 H -6.375 v -1.0626 h 1.1562 q 0.9532,0 1.4532,-0.375 0.5,-0.375 0.5,-1.0937 0,-0.7187 -0.5156,-1.1094 -0.5157,-0.3906 -1.4844,-0.3906 -0.5313,0 -1.1328,0.1094 Q -7,-3.8438 -7.7188,-3.5938 V -4.75 Q -7,-4.9531 -6.3594,-5.0547 q 0.6406,-0.1015 1.2032,-0.1015 1.4687,0 2.3203,0.664 0.8515,0.6641 0.8515,1.8047 0,0.7813 -0.4531,1.3281 -0.4531,0.5469 -1.2813,0.75 z"
       style="stroke:none" />
  </g>
  <g
     id="g225"
     style="font-size:13.33329964px;font-family:mwb_cmsy10;color-interpolation:linearRGB;fill:#262626;stroke:#262626;color-rendering:optimizeQuality;image-rendering:optimizeQuality;text-rendering:geometricPrecision"
     transform="translate(18.6927,14.1719)">
    <path
       inkscape:connector-curvature="0"
       id="path223"
       d="m 1.9062,-0.375 q 0,-0.0938 0.0626,-0.1875 L 4.6719,-3.25 1.9688,-5.9531 Q 1.9062,-6.0156 1.9062,-6.125 q 0,-0.0938 0.0782,-0.1797 0.0781,-0.0859 0.1875,-0.0859 0.0937,0 0.2031,0.0937 l 2.6875,2.6875 2.6719,-2.6875 q 0.1094,-0.0937 0.1875,-0.0937 0.1093,0 0.1875,0.0781 0.0781,0.0781 0.0781,0.1875 0,0.1094 -0.0625,0.1719 L 5.4219,-3.25 8.125,-0.5625 q 0.0625,0.0937 0.0625,0.1875 0,0.1094 -0.0781,0.1875 -0.0782,0.0781 -0.1875,0.0781 -0.0938,0 -0.1875,-0.0937 L 5.0625,-2.8906 2.375,-0.2031 q -0.1094,0.0937 -0.2031,0.0937 -0.1094,0 -0.1875,-0.0859 Q 1.9062,-0.2812 1.9062,-0.375 Z"
       style="stroke:none" />
  </g>
  <g
     id="g229"
     style="font-size:13.33329964px;font-family:SansSerif;color-interpolation:linearRGB;fill:#262626;stroke:#262626;color-rendering:optimizeQuality;image-rendering:optimizeQuality;text-rendering:geometricPrecision"
     transform="translate(29.6927,14.1719)">
    <path
       inkscape:connector-curvature="0"
       id="path227"
       d="m 1.6094,-1.0781 h 2.0937 v -7.2344 l -2.2812,0.4531 v -1.1562 l 2.2656,-0.4688 h 1.2969 v 8.4063 H 7.0781 V 0 H 1.6094 Z m 10.9854,-7.5625 q -0.9844,0 -1.4844,0.9765 -0.5,0.9766 -0.5,2.9297 0,1.9532 0.5,2.9297 0.5,0.9766 1.4844,0.9766 1,0 1.5,-0.9766 0.5,-0.9765 0.5,-2.9297 0,-1.9531 -0.5,-2.9297 -0.5,-0.9765 -1.5,-0.9765 z m 0,-1.0156 q 1.5938,0 2.4375,1.2656 0.8438,1.2656 0.8438,3.6562 0,2.3906 -0.8438,3.6563 -0.8437,1.2656 -2.4375,1.2656 -1.5781,0 -2.4219,-1.2656 -0.8437,-1.2657 -0.8437,-3.6563 0,-2.3906 0.8437,-3.6562 0.8438,-1.2656 2.4219,-1.2656 z"
       style="stroke:none" />
  </g>
  <g
     id="g233"
     style="font-size:10.66670036px;font-family:SansSerif;color-interpolation:linearRGB;fill:#262626;stroke:#262626;color-rendering:optimizeQuality;image-rendering:optimizeQuality;text-rendering:geometricPrecision"
     transform="translate(46.6927,8.1719)">
    <path
       inkscape:connector-curvature="0"
       id="path231"
       d="m 0.5312,-3.4531 h 2.9063 v 0.875 H 0.5312 Z m 7.7827,-0.875 q 0.7813,0.1719 1.2188,0.6953 0.4375,0.5234 0.4375,1.3047 0,1.1875 -0.8203,1.8359 -0.8203,0.6484 -2.3203,0.6484 -0.5157,0 -1.0469,-0.1015 -0.5313,-0.1016 -1.0938,-0.2891 v -1.0625 q 0.4532,0.2657 0.9844,0.4063 0.5313,0.1406 1.125,0.1406 1.0156,0 1.5469,-0.4062 0.5312,-0.4063 0.5312,-1.1719 0,-0.7188 -0.4921,-1.1172 Q 7.8921,-3.8438 7.0014,-3.8438 H 6.0639 v -0.8906 h 0.9844 q 0.7969,0 1.2188,-0.3203 0.4218,-0.3203 0.4218,-0.9141 0,-0.625 -0.4375,-0.9531 -0.4375,-0.3281 -1.25,-0.3281 -0.4375,0 -0.9531,0.0938 -0.5156,0.0937 -1.125,0.2968 V -7.8281 Q 5.5483,-8 6.0874,-8.0859 q 0.539,-0.086 1.0078,-0.086 1.2344,0 1.9609,0.5625 0.7266,0.5625 0.7266,1.5313 0,0.6562 -0.3828,1.1172 -0.3828,0.4609 -1.086,0.6328 z"
       style="stroke:none" />
  </g>
  <g
     id="g237"
     style="font-weight:bold;font-size:14.66670036px;font-family:SansSerif;color-interpolation:linearRGB;color-rendering:optimizeQuality;image-rendering:optimizeQuality;text-rendering:geometricPrecision"
     transform="translate(403.1932,15.4219)">
    <path
       inkscape:connector-curvature="0"
       id="path235"
       d="m -82.125,-13.0938 q -1.2969,0 -2.0078,0.9532 -0.711,0.9531 -0.711,2.6875 0,1.7187 0.711,2.6719 0.7109,0.9531 2.0078,0.9531 1.2969,0 2.0078,-0.9531 0.711,-0.9532 0.711,-2.6719 0,-1.7344 -0.711,-2.6875 -0.7109,-0.9532 -2.0078,-0.9532 z m 0,-2.0468 q 2.6406,0 4.1328,1.5156 1.4922,1.5156 1.4922,4.1719 0,2.6406 -1.4922,4.1562 -1.4922,1.5157 -4.1328,1.5157 -2.625,0 -4.125,-1.5157 -1.5,-1.5156 -1.5,-4.1562 0,-2.6563 1.5,-4.1719 1.5,-1.5156 4.125,-1.5156 z m 7.2561,7.9531 v -5.0156 h 2.6406 v 0.8125 q 0,0.6718 -0.0078,1.6797 -0.0078,1.0078 -0.0078,1.3515 0,0.9844 0.0469,1.4219 0.0469,0.4375 0.1719,0.625 0.1718,0.2656 0.4297,0.4063 0.2578,0.1406 0.6015,0.1406 0.8125,0 1.2813,-0.6328 0.4687,-0.6328 0.4687,-1.7578 v -4.0469 h 2.625 V -4 h -2.625 v -1.1875 q -0.5937,0.7187 -1.2578,1.0625 -0.6641,0.3438 -1.4609,0.3438 -1.4219,0 -2.1641,-0.875 -0.7422,-0.875 -0.7422,-2.5313 z m 13.3871,-7.3437 v 2.3281 h 2.7032 v 1.875 h -2.7032 v 3.4843 q 0,0.5626 0.2266,0.7657 0.2266,0.2031 0.8984,0.2031 h 1.3438 V -4 h -2.25 q -1.5469,0 -2.1953,-0.6484 -0.6485,-0.6485 -0.6485,-2.1954 v -3.4843 h -1.2968 v -1.875 h 1.2968 v -2.3281 z m 6.7561,9.3437 v 4.3125 h -2.6094 v -11.3281 h 2.6094 V -11 q 0.5469,-0.7188 1.211,-1.0625 0.664,-0.3437 1.5078,-0.3437 1.5156,0 2.4922,1.2109 0.9765,1.2109 0.9765,3.1015 0,1.8907 -0.9765,3.1016 -0.9766,1.211 -2.4922,1.211 -0.8438,0 -1.5078,-0.3438 -0.6641,-0.3438 -1.211,-1.0625 z m 1.75,-5.3125 q -0.8437,0 -1.2969,0.6172 -0.4531,0.6172 -0.4531,1.789 0,1.1563 0.4531,1.7813 0.4532,0.625 1.2969,0.625 0.8438,0 1.2891,-0.6172 0.4453,-0.6172 0.4453,-1.7891 0,-1.1718 -0.4453,-1.789 -0.4453,-0.6172 -1.2891,-0.6172 z m 6.0381,3.3125 v -5.0156 h 2.6407 v 0.8125 q 0,0.6718 -0.0078,1.6797 -0.0079,1.0078 -0.0079,1.3515 0,0.9844 0.0469,1.4219 0.0469,0.4375 0.1719,0.625 0.1719,0.2656 0.4297,0.4063 0.2578,0.1406 0.6015,0.1406 0.8125,0 1.2813,-0.6328 0.4687,-0.6328 0.4687,-1.7578 v -4.0469 h 2.625 V -4 h -2.625 v -1.1875 q -0.5937,0.7187 -1.2578,1.0625 -0.664,0.3438 -1.4609,0.3438 -1.4219,0 -2.1641,-0.875 -0.7422,-0.875 -0.7422,-2.5313 z m 13.3872,-7.3437 v 2.3281 h 2.7031 v 1.875 h -2.7031 v 3.4843 q 0,0.5626 0.2265,0.7657 0.2266,0.2031 0.8985,0.2031 h 1.3437 V -4 h -2.25 q -1.5469,0 -2.1953,-0.6484 -0.6484,-0.6485 -0.6484,-2.1954 v -3.4843 h -1.2969 v -1.875 h 1.2969 v -2.3281 z m 13.1398,4 q -0.8594,0 -1.3203,0.625 -0.461,0.625 -0.461,1.8124 0,1.1719 0.461,1.8047 0.4609,0.6329 1.3203,0.6329 0.8594,0 1.3125,-0.6329 0.4531,-0.6328 0.4531,-1.8047 0,-1.1874 -0.4531,-1.8124 -0.4531,-0.625 -1.3125,-0.625 z m 0,-1.875 q 2.125,0 3.3125,1.1484 1.1875,1.1484 1.1875,3.164 0,2.0157 -1.1875,3.1641 -1.1875,1.1485 -3.3125,1.1485 -2.1094,0 -3.3125,-1.1485 -1.2031,-1.1484 -1.2031,-3.1641 0,-2.0156 1.2031,-3.164 1.2031,-1.1484 3.3125,-1.1484 z m 11.569,-2.9844 v 1.7187 h -1.4531 q -0.5469,0 -0.7656,0.2031 -0.2188,0.2032 -0.2188,0.6876 v 0.5781 h 2.2344 v 1.875 h -2.2344 V -4 h -2.625 v -6.3281 h -1.3125 v -1.875 h 1.3125 v -0.5781 q 0,-1.3282 0.7422,-1.9688 0.7422,-0.6406 2.3203,-0.6406 z m 8.9476,0.8594 v 2.3281 h 2.7031 v 1.875 H 0.106 v 3.4843 q 0,0.5626 0.2265,0.7657 0.2266,0.2031 0.8985,0.2031 H 2.5747 V -4 h -2.25 Q -1.2222,-4 -1.8706,-4.6484 -2.519,-5.2969 -2.519,-6.8438 v -3.4843 h -1.2969 v -1.875 h 1.2969 v -2.3281 z M 12.4871,-9 v 5 h -2.625 v -0.8125 -3 q 0,-1.0781 -0.0469,-1.4766 -0.0469,-0.3984 -0.1719,-0.5859 -0.1562,-0.2656 -0.4141,-0.4062 -0.2578,-0.1407 -0.6015,-0.1407 -0.8281,0 -1.2969,0.6328 -0.4687,0.6329 -0.4687,1.7579 V -4 H 4.2527 V -15.3906 H 6.8621 V -11 q 0.5937,-0.7188 1.2656,-1.0625 0.6719,-0.3437 1.4687,-0.3437 1.4219,0 2.1563,0.875 0.7344,0.875 0.7344,2.5312 z m 10.3871,0.875 v 0.75 h -6.1406 q 0.0937,0.9219 0.6718,1.3828 0.5782,0.461 1.5938,0.461 0.8281,0 1.6953,-0.2422 0.8672,-0.2422 1.7891,-0.7422 V -4.5 q -0.9375,0.3594 -1.8672,0.5391 -0.9297,0.1797 -1.8516,0.1797 -2.2344,0 -3.4687,-1.1329 -1.2344,-1.1328 -1.2344,-3.1797 0,-2 1.2109,-3.1562 1.211,-1.1562 3.336,-1.1562 1.9375,0 3.1015,1.164 1.1641,1.1641 1.1641,3.1172 z M 20.1711,-9 q 0,-0.75 -0.4375,-1.2031 -0.4375,-0.4531 -1.1407,-0.4531 -0.75,0 -1.2265,0.4296 Q 16.8898,-9.7969 16.7648,-9 Z m 15.9645,-2.9531 v 2 q -0.8437,-0.3594 -1.625,-0.5313 -0.7812,-0.1718 -1.4844,-0.1718 -0.75,0 -1.1093,0.1874 -0.3594,0.1876 -0.3594,0.5782 0,0.3125 0.2734,0.4765 0.2735,0.1641 0.9766,0.2579 l 0.4687,0.0624 q 2.0157,0.25 2.711,0.836 0.6953,0.5859 0.6953,1.8359 0,1.3125 -0.9688,1.9766 -0.9687,0.6641 -2.8906,0.6641 -0.8125,0 -1.6797,-0.1329 -0.8672,-0.1328 -1.7734,-0.3828 v -2 q 0.7812,0.3907 1.6016,0.5781 0.8203,0.1876 1.6796,0.1876 0.7657,0 1.1563,-0.211 0.3906,-0.2109 0.3906,-0.6328 0,-0.3438 -0.2734,-0.5156 -0.2735,-0.1719 -1.0703,-0.2813 l -0.4532,-0.0469 q -1.75,-0.2187 -2.4531,-0.8124 -0.7031,-0.5938 -0.7031,-1.8126 0,-1.2968 0.8906,-1.9296 0.8906,-0.6328 2.7344,-0.6328 0.7344,0 1.5312,0.1093 0.7969,0.1094 1.7344,0.3438 z m 1.2393,-0.25 h 2.625 l 2.2031,5.5625 1.875,-5.5625 h 2.6094 l -3.4375,8.9843 q -0.5313,1.3594 -1.2188,1.9063 -0.6875,0.5469 -1.8281,0.5469 h -1.5156 v -1.7188 h 0.8281 q 0.6562,0 0.9609,-0.2109 0.3047,-0.2109 0.4766,-0.7578 l 0.0781,-0.2344 z m 17.0381,0.25 v 2 q -0.8438,-0.3594 -1.625,-0.5313 -0.7813,-0.1718 -1.4844,-0.1718 -0.75,0 -1.1094,0.1874 -0.3593,0.1876 -0.3593,0.5782 0,0.3125 0.2734,0.4765 0.2734,0.1641 0.9766,0.2579 l 0.4687,0.0624 q 2.0156,0.25 2.711,0.836 0.6953,0.5859 0.6953,1.8359 0,1.3125 -0.9688,1.9766 -0.9687,0.6641 -2.8906,0.6641 -0.8125,0 -1.6797,-0.1329 -0.8672,-0.1328 -1.7734,-0.3828 v -2 q 0.7812,0.3907 1.6015,0.5781 0.8203,0.1876 1.6797,0.1876 0.7656,0 1.1563,-0.211 0.3906,-0.2109 0.3906,-0.6328 0,-0.3438 -0.2734,-0.5156 -0.2735,-0.1719 -1.0704,-0.2813 l -0.4531,-0.0469 q -1.75,-0.2187 -2.4531,-0.8124 -0.7031,-0.5938 -0.7031,-1.8126 0,-1.2968 0.8906,-1.9296 0.8906,-0.6328 2.7344,-0.6328 0.7343,0 1.5312,0.1093 0.7969,0.1094 1.7344,0.3438 z m 5.1767,-2.5781 v 2.3281 h 2.7032 v 1.875 h -2.7032 v 3.4843 q 0,0.5626 0.2266,0.7657 0.2266,0.2031 0.8984,0.2031 h 1.3438 V -4 h -2.25 q -1.5469,0 -2.1953,-0.6484 -0.6485,-0.6485 -0.6485,-2.1954 v -3.4843 h -1.2968 v -1.875 h 1.2968 v -2.3281 z M 71.924,-8.125 v 0.75 h -6.1407 q 0.0938,0.9219 0.6719,1.3828 0.5781,0.461 1.5938,0.461 0.8281,0 1.6953,-0.2422 0.8672,-0.2422 1.789,-0.7422 V -4.5 q -0.9375,0.3594 -1.8672,0.5391 -0.9296,0.1797 -1.8515,0.1797 -2.2344,0 -3.4688,-1.1329 -1.2343,-1.1328 -1.2343,-3.1797 0,-2 1.2109,-3.1562 1.2109,-1.1562 3.3359,-1.1562 1.9375,0 3.1016,1.164 1.1641,1.1641 1.1641,3.1172 z M 69.2208,-9 q 0,-0.75 -0.4375,-1.2031 -0.4375,-0.4531 -1.1406,-0.4531 -0.75,0 -1.2266,0.4296 Q 65.9396,-9.7969 65.8146,-9 Z m 12.0496,-1.8438 q 0.5,-0.7656 1.1875,-1.164 0.6875,-0.3984 1.5,-0.3984 1.4219,0 2.1563,0.875 0.7343,0.875 0.7343,2.5312 v 5 h -2.625 v -4.2812 q 0,-0.0938 0.0078,-0.1954 0.0079,-0.1015 0.0079,-0.289 0,-0.875 -0.2579,-1.2656 -0.2578,-0.3907 -0.8359,-0.3907 -0.75,0 -1.1562,0.6172 -0.4063,0.6172 -0.4219,1.7735 V -4 h -2.625 v -4.2812 q 0,-1.3594 -0.2344,-1.75 -0.2344,-0.3907 -0.8437,-0.3907 -0.75,0 -1.1641,0.6172 -0.4141,0.6172 -0.4141,1.7735 V -4 h -2.625 v -8.2031 h 2.625 V -11 q 0.4844,-0.7031 1.1172,-1.0547 0.6328,-0.3515 1.3828,-0.3515 0.8438,0 1.5,0.414 0.6563,0.4141 0.9844,1.1484 z"
       style="stroke:none" />
  </g>
  <g
     id="g243"
     style="color-interpolation:linearRGB;fill:#ff0000;stroke:#ff0000;stroke-width:0.66670001;stroke-linecap:butt;color-rendering:optimizeQuality;image-rendering:optimizeQuality;text-rendering:geometricPrecision"
     transform="translate(-110.3073,-12.8281)">
    <path
       inkscape:connector-curvature="0"
       id="path239"
       style="fill:none;fill-rule:evenodd"
       d="m 130.538,158.9545 h 1.538 v 16.6946 h 1.538 v 13.2879 h 1.538 v 3.1636 h 1.538 v -6.8155 h 1.538 v -8.187 h 1.538 v -8.0909 h 1.538 v -6.9015 h 1.538 v 4.023 h 1.538 v -7.6796 h 1.538 v 0.9487 h 1.538 v -1.6758 h 1.538 v -15.6759 h 1.538 v -7.2945 h 1.538 v -10.2885 h 1.538 v 7.1155 h 1.538 v 7.6394 h 1.538 v -22.9802 h 1.538 v -11.2586 h 1.538 v 9.0042 h 1.538 v -0.8959 h 1.538 v 4.9375 h 1.538 v 16.0008 h 1.538 v 17.4919 h 1.538 v 25.892 h 1.538 v 21.5161 h 1.538 v 10.1049 h 1.538 v 10.6973 h 1.538 v 21.5424 h 1.538 v 5.9427 h 1.538 v 12.2331 h 1.538 v -1.5501 h 1.538 v -7.7768 h 1.538 v -17.3788 h 1.538 v -16.813 h 1.538 v -16.5404 h 1.538 v -31.6088 h 1.538 v -25.9178 h 1.538 v -0.5561 h 1.538 v -5.7092 h 1.538 v 18.9463 h 1.538 v 17.9403 h 1.538 v 6.4656 h 1.538 v 31.4228 h 1.538 v 18.0848 h 1.538 v 30.9859 h 1.538 v -1.4921 h 1.538 v -22.4114 h 1.538 v -14.3019 h 1.538 v -19.6334 h 1.538 v -8.68 h 1.538 v -14.2284 h 1.538 v 6.5445 h 1.538 v -20.6773 h 1.538 v -19.0494 h 1.538 v -24.0533 h 1.538 v -15.7664 h 1.538 V 88.7079 h 1.538 v -0.4072 h 1.538 v 34.9988 h 1.538 v -3.629 h 1.538 v 33.8974 h 1.538 v 8.7867 h 1.538 v 27.1152 h 1.538 v 30.3858 h 1.538 v 17.5697 h 1.538 v -15.3372 h 1.538 v -1.1573 h 1.538 v 3.4051 h 1.538 v -12.7502 h 1.538 v -12.0198 h 1.538 V 189.543 h 1.538 v -9.7203 h 1.538 v 3.7756 h 1.538 v -5.506 h 1.538 v -2.3258 h 1.538 v -13.8836 h 1.538 v 10.5914 h 1.538 v 2.2881 h 1.538 v 0.0333 h 1.538 v -3.0118 h 1.538 v 19.0146 h 1.538 v -3.5765 h 1.538 v 10.9722 h 1.538 V 161.377 h 1.538 v -20.0577 h 1.538 V 118.424 h 1.538 V 99.5982 h 1.538 v 0.0368 h 1.538 v 11.3597 h 1.538 v 9.2415 h 1.538 v 4.6236 h 1.538 v 26.2618 h 1.538 v 26.4028 h 1.538 v 26.345 h 1.538 v 30.2042 h 1.538 v -14.4679 h 1.538 v 6.9878 h 1.538 v -8.3592 h 1.538 v -10.4377 h 1.538 v -14.7409 h 1.538 v -21.1816 h 1.538 v -25.761 h 1.538 v -23.0462 h 1.538 v -12.9277 h 1.538 v 6.9726 h 1.538 v -0.0133 h 1.538 v 8.7425 h 1.538 v 1.2726 h 1.538 v 20.5279 h 1.538 v 22.9457 h 1.538 v 0.9623 h 1.538 v -2.012 h 1.538 v 3.7435 h 1.538 v 0.5595 h 1.538 v 15.9252 h 1.538 v 8.7432 h 1.538 v -8.1482 h 1.538 v 2.6517 h 1.538 v -9.2016 h 1.538 v 11.6754 h 1.538 v 14.1498 h 1.538 v 13.1331 h 1.538 v -5.188 h 1.538 v 11.7846 h 1.538 v -11.5334 h 1.538 v -2.5285 h 1.538 v -8.9891 h 1.538 v -24.9473 h 1.538 V 147.814 h 1.538 v -4.1381 h 1.538 v 5.9278 h 1.538 v 14.5817 h 1.538 v 21.0232 h 1.538 v 19.7166 h 1.538 v -4.0716 h 1.538 v 4.9086 h 1.538 v -10.0599 h 1.538 V 169.034 h 1.538 v -23.7324 h 1.538 v -10.8404 h 1.538 v -2.4827 h 1.538 v 0.3529 h 1.538 v 0.3089 h 1.538 v 12.3515 h 1.538 v 10.7071 h 1.538 v 0.3075 h 1.538 v 21.689 h 1.538 v 11.9455 h 1.538 v -0.5372 h 1.538 v -8.1044 h 1.538 v -31.9855 h 1.538 v -11.7466 h 1.538 v -16.476 h 1.538 V 96.2817 h 1.538 V 75.4659 h 1.538 v -9.3395 h 1.538 v 7.2523 h 1.538 v 3.2077 h 1.538 v 27.9212 h 1.538 v 41.2267 h 1.538 v 47.3659 h 1.538 v 41.9402 h 1.538 v 33.3229 h 1.538 v 22.4026 h 1.538 v 13.3281 h 1.538 V 293.41 h 1.538 v -13.3586 h 1.538 v -32.0331 h 1.538 v -8.9684 h 1.538 V 220.932 h 1.538 v -30.8821 h 1.538 v -13.0804 h 1.538 V 156.852 h 1.538 v -24.0889 h 1.538 v -23.943 h 1.538 V 94.4525 h 1.538 v 5.0694 h 1.538 v 8.8196 h 1.538 v 26.7696 h 1.538 v 24.291 h 1.538 v 18.8369 h 1.538 v 34.4109 h 1.538 v 4.9178 h 1.538 v 2.7938 h 1.538 v -11.0587 h 1.538 v -26.8617 h 1.538 v -25.4247 h 1.538 v -10.7368 h 1.538 v -16.2738 h 1.538 v -20.9786 h 1.538 V 94.1263 h 1.538 v 9.3066 h 1.538 v 7.4843 h 1.538 v 9.7412 h 1.538 v 15.4736 h 1.538 v 27.0551 h 1.538 v 26.5708 h 1.538 v 4.663 h 1.538 v 15.7714 h 1.538 v 7.1076 h 1.538 v -14.6012 h 1.538 v -13.5345 h 1.538 v -26.6848 h 1.538 v -6.7485 h 1.538 v 7.6721 h 1.538 v -16.1385 h 1.538 v 22.4935 h 1.538 v 13.989 h 1.538 v 25.7355 h 1.538 v 2.5586 h 1.538 v -7.4465 h 1.538 v -9.3938 h 1.538 v -10.7151 h 1.538 v -6.0001 h 1.538 v 13.7683 h 1.538 v 2.3857 h 1.538 v -18.2534 h 1.538 v -15.2641 h 1.538 v -23.5727 h 1.538 v -30.0381 h 1.538 V 79.727 h 1.538 V 67.1374 h 1.538 V 53.0731 h 1.538 v 4.1682 h 1.538 V 49.019 h 1.538 v 21.0637 h 1.538 v 27.409 h 1.538 v 46.0515 h 1.538 v 55.5467 h 1.538 v 60.924 h 1.538 v 39.8224 h 1.538 v 27.1145 h 1.538 v 5.5873 h 1.538 v -20.4158 h 1.538 V 282.627 h 1.538 v -42.2045 h 1.538 v -19.2946 h 1.538 V 207.562 h 1.538 v -11.3318 h 1.538 v -13.0287 h 1.538 v -23.3386 h 1.538 V 132.454 h 1.538 v -28.2961 h 1.538 V 81.1 h 1.538 V 66.2113 h 1.538 v 4.5849 h 1.538 v -1.5805 h 1.538 v 5.0596 h 1.538 v 10.9339 h 1.538 v 20.7152 h 1.538 v 34.3097 h 1.538 v 44.2532 h 1.538 v 26.4502 h 1.538 v 32.06 h 1.538 v 20.0649 h 1.538 v -0.009 h 1.538 v -4.854 h 1.538 v -35.3179 h 1.538 v -42.7611 h 1.538 v -34.2702 h 1.538 v -7.7778 h 1.538 v -16.075 h 1.538 v 18.6683 h 1.538 v 0.9428 h 1.538 v 10.1727 h 1.538 v -3.9646 h 1.538 v 31.741 h 1.538 v 2.144 h 1.538 v 1.9613 h 1.538 v -16.8147 h 1.538 v -20.1398 h 1.538 v -29.5999 h 1.538 v 8.5967 h 1.538 v -3.6882 h 1.538 v 2.4902 h 1.538 v 10.3248 h 1.538 v -5.6896 h 1.538 v 15.7926 h 1.538 v 14.4278 h 1.538 v 20.9877 h 1.538 v 10.3317 h 1.538 v 9.8226 h 1.538 v -4.1653 h 1.538 v 7.9502 h 1.538 v -4.899 h 1.538 v 7.8454 h 1.538 v -3.1722 h 1.538 v 4.6922 h 1.538 v 9.7022 h 1.538 V 207.731 h 1.538 v 19.9103 h 1.538 V 214.712 h 1.538 v -2.3987 h 1.538 v 6.8969 h 1.538 v 9.5001 h 1.538 v 15.6503 h 1.538 v 11.0731 h 1.538 v 14.9258 h 1.538 v 13.9787 h 1.538 v 2.4585 h 1.538 v 3.0762 h 1.538 v -10.4166 h 1.538 v -6.6621 h 1.538 v -21.5194 h 1.538 v 9.1596 h 1.538 v -23.99 h 1.538 v 11.1323 h 1.538 v 1.6819 h 1.538 v -11.2977 h 1.538 V 227.903 h 1.538 v -4.1703 h 1.538 v -3.2041 h 1.538 v -5.9978 h 1.538 v 0.9237 h 1.538 v 2.4908 h 1.538 v 0.2846 h 1.538 v -0.4963 h 1.538 v 8.5772 h 1.538 v 0.5199 h 1.538 v 15.0053 h 1.538 v 5.9925 h 1.538 v -6.009 h 1.538 v -19.7976 h 1.538 v -4.0892 h 1.538 v -5.0336 h 1.538 v -15.9608 h 1.538 v -0.1129 h 1.538 v -2.5071 h 1.538 v -10.5162 h 1.538 v -15.7438 h 1.538 v -4.7116 h 1.538 v -3.9912 h 1.538 v 10.977 h 1.538 v 10.1353 h 1.538 v 19.2127 h 1.538 v 24.1241 h 1.538 v 7.9932 h 1.538 v 0.9652 h 1.538 v 5.0075 h 1.538 v 7.7925 h 1.538 v -9.8024 h 1.538 v -18.2569 h 1.538 v -6.9456 h 1.538 v -21.1965 h 1.538 V 175.916 h 1.538 v 8.5867 h 1.538 v 7.5134 h 1.538 v 10.9577 h 1.538 v 9.2558 h 1.538 v -21.5734 h 1.538 v -26.387 h 1.538 v -22.9318 h 1.538 v 1.6698 h 1.538 v -20.8457 h 1.538 v 14.416 h 1.538 v -11.3781 h 1.538 v -16.4349 h 1.538 v -0.7385 h 1.538 v 11.9582 h 1.538 v -1.8351 h 1.538 v 24.6068 h 1.538 v 5.9131 h 1.538 v 2.4253 h 1.538 v 6.3822 h 1.538 v 4.79 h 1.538 v 0.0117 h 1.538 v 8.5728 h 1.538 v -12.3173 h 1.538 v 1.3778 h 1.538 v 5.4128 h 1.538 v 9.7478 h 1.538 v 22.6422 h 1.538 v 30.9326 h 1.538 v 14.0034 h 1.538 v 34.5361 h 1.538 v 26.0593 h 1.538 v 2.5453 h 1.538 v -7.2183 h 1.538 v -31.6318 h 1.538 v -18.9604 h 1.538 v -18.8337 h 1.538 v -8.4977 h 1.538 v 4.7059 h 1.538 v -2.3554 h 1.538 v -7.1136 h 1.538 v -25.2542 h 1.538 v -14.6022 h 1.538 v -18.1082 h 1.538 v -18.2056 h 1.538 v 4.7261 h 1.538 v 9.3091 h 1.538 v 1.5427 h 1.538 v 1.7554 h 1.538 v 1.3196 h 1.538 v 15.3816 h 1.538 v 26.8525 h 1.538 v 19.8586 h 1.538 v 18.7243 h 1.538 v 5.9142 h 1.538 v -14.1493 h 1.538 v 2.1177 h 1.538 v -13.3506 h 1.538 v -30.2406 h 1.538 v -12.1093 h 1.538 v -19.1915 h 1.538 v -2.0802 h 1.538 v -27.4408 h 1.538 v -9.2638 h 1.538 v -11.2938 h 1.538 v -4.5127 h 1.538 v 35.3437 h 1.538 v 22.5946 h 1.538 v 21.4038 h 1.538 v 6.8355 h 1.538 v 15.3536 h 1.538 v -13.26 h 1.538 v -6.294 h 1.538 v -20.5713 h 1.538 v -27.8343 h 1.538 v -27.1645 h 1.538 V 84.7476 h 1.538 V 91.41 h 1.538 v 11.279 h 1.538 v 35.9157 h 1.538 v 21.0303 h 1.538 v 27.3853 h 1.538 v 39.1742 h 1.538 v 31.794 h 1.538 v -3.4134 h 1.538 v 1.3903 h 1.538 v -34.6379 h 1.538 v -35.2206 h 1.538 v -19.2576 h 1.538 v -9.7552 h 1.538 v -23.1654 h 1.538 v 1.0935 h 1.538 v -22.7953 h 1.538 V 94.6894 h 1.538 v -1.4303 h 1.538 v 6.4823 h 1.538 v -2.9032 h 1.538 v 14.7269 h 1.538 v 10.4787 h 1.538 v 4.0322 h 1.538 v 24.127 h 1.538 v 8.6399 h 1.538 v 17.3814 h 1.538 v 30.734 h 1.538 v 30.2169 h 1.538 v 22.1671 h 1.538 v 25.8658 h 1.538 V 299.53 h 1.538 v 8.6464 h 1.538 v -10.5205 h 1.538 v -10.8937 h 1.538 v -24.3148 h 1.538 v -31.1972 h 1.538 v -10.0697 h 1.538 v -7.9178 h 1.538 v -2.5067 h 1.538 v -5.2558 h 1.538 v -10.9573 h 1.538 v -13.6254 h 1.538 v -15.1408 h 1.538 v -10.627 h 1.538 v -0.0445 h 1.538 v -2.4154 h 1.538 v -19.4301 h 1.538 v 22.5967 h 1.538 v 1.4573 h 1.538 v 17.9164 h 1.538 v 10.726 h 1.538 v 23.9173 h 1.538 v 13.4584 h 1.538 v -9.327 h 1.538 v -18.6347 h 1.538 v -36.8033 h 1.538 v -18.6686 h 1.538 v -14.9951 h 1.538 v -21.5406 h 1.538 v -3.3499 h 1.538 v -9.5885 h 1.538 V 80.1097 h 1.538 v 6.7187 h 1.538 v 21.7798 h 1.538 v 35.6474 h 1.538 v 28.099 h 1.538 v 29.1838 h 1.538 v 18.2101 h 1.538 v 6.2202 h 1.538 v -2.393 h 1.538 v 6.0435 h 1.538 v 6.0247 h 1.538 v -18.2402 h 1.538 v 10.5926 h 1.538 v 13.8007 h 1.538 v 3.386 h 1.538 V 233.4721 H 898 v 5.1451" />
    <path
       inkscape:connector-curvature="0"
       id="path241"
       style="fill:none;fill-rule:evenodd;stroke:#0000ff"
       d="m 130.538,178.2633 h 1.538 v 1.4946 h 1.538 v 5.9092 h 1.538 v -3.6069 h 1.538 v -11.4483 h 1.538 v -15.8488 h 1.538 v -7.6134 h 1.538 v -6.2185 h 1.538 v 3.826 h 1.538 v 1.5515 h 1.538 v 6.7735 h 1.538 v 1.6857 h 1.538 v -6.5736 h 1.538 v -6.3214 h 1.538 v -1.0687 h 1.538 v -2.4981 h 1.538 v -6.6442 h 1.538 v -10.5305 h 1.538 v -12.1175 h 1.538 v 1.7969 h 1.538 v 1.6288 h 1.538 v 2.8649 h 1.538 v 16.2806 h 1.538 v 21.0696 h 1.538 v 18.6461 h 1.538 v 19.3412 h 1.538 v 9.5199 h 1.538 v 13.9632 h 1.538 v 17.5742 h 1.538 v 15.0834 h 1.538 v 4.9556 h 1.538 v 0.3844 h 1.538 v -1.5222 h 1.538 v -16.9956 h 1.538 v -20.6288 h 1.538 v -19.8917 h 1.538 v -23.3325 h 1.538 v -26.0364 h 1.538 v -8.1244 h 1.538 v 3.0734 h 1.538 v 16.0451 h 1.538 v 9.2595 h 1.538 v 17.6103 h 1.538 v 23.8857 h 1.538 v 26.7742 h 1.538 v 21.203 h 1.538 v 3.3766 h 1.538 v -14.1773 h 1.538 v -24.5247 h 1.538 v -17.2716 h 1.538 v -9.43 h 1.538 v -13.2419 h 1.538 v -4.843 h 1.538 V 159.984 h 1.538 v -21.0139 h 1.538 v -22.4995 h 1.538 v -15.8852 h 1.538 V 85.8732 h 1.538 v 0.7513 h 1.538 v 24.5103 h 1.538 v 14.9659 h 1.538 v 26.8348 h 1.538 v 15.34 h 1.538 v 20.8287 h 1.538 v 26.2192 h 1.538 v 9.5347 h 1.538 v 0.4919 h 1.538 v -3.6991 h 1.538 v -0.2334 h 1.538 v -9.5613 h 1.538 v -17.7039 h 1.538 v -9.1576 h 1.538 v -3.9749 h 1.538 v -2.678 h 1.538 v 0.7682 h 1.538 v -7.9735 h 1.538 v -1.2768 h 1.538 v -1.1226 h 1.538 v 2.3788 h 1.538 v 0.8789 h 1.538 v 7.4472 h 1.538 v 9.4014 h 1.538 v 1.3873 h 1.538 v -9.2701 h 1.538 v -21.3111 h 1.538 v -22.5134 h 1.538 v -23.6476 h 1.538 V 94.4669 h 1.538 v 1.7212 h 1.538 v 12.347 h 1.538 v 9.2395 h 1.538 v 8.8991 h 1.538 v 22.8538 h 1.538 v 25.9132 h 1.538 v 28.7576 h 1.538 v 20.5238 h 1.538 v -0.7878 h 1.538 v 1.0285 h 1.538 v -9.0452 h 1.538 v -8.6544 h 1.538 v -13.6053 h 1.538 v -22.7862 h 1.538 v -26.7271 h 1.538 v -29.5763 h 1.538 v -6.3651 h 1.538 v 4.8847 h 1.538 v 6.5093 h 1.538 v 1.6536 h 1.538 v 12.8316 h 1.538 v 9.2592 h 1.538 v 18.6724 h 1.538 v 7.0159 h 1.538 v -2.4919 h 1.538 v 9.2935 h 1.538 v -0.5595 h 1.538 v 9.9745 h 1.538 v 11.7752 h 1.538 v -1.9469 h 1.538 v -1.632 h 1.538 v -3.8321 h 1.538 v 8.8624 h 1.538 v 11.5572 h 1.538 v 4.9529 h 1.538 v 5.751 h 1.538 v 3.0636 h 1.538 v -3.9556 h 1.538 v 1.5529 h 1.538 v -15.4295 h 1.538 v -25.096 h 1.538 v -22.7132 h 1.538 V 144.008 h 1.538 v 5.9149 h 1.538 v 13.4148 h 1.538 v 19.3436 h 1.538 v 13.4137 h 1.538 v 9.4271 h 1.538 v -2.0818 h 1.538 v -10.2194 h 1.538 v -20.276 h 1.538 v -24.9183 h 1.538 v -10.4685 h 1.538 v -10.8922 h 1.538 v 4.6846 h 1.538 v -2.4207 h 1.538 v 10.5456 h 1.538 v 10.0716 h 1.538 v 9.3354 h 1.538 v 15.9734 h 1.538 v 7.4821 h 1.538 v 2.6242 h 1.538 v -7.9809 h 1.538 V 158.081 h 1.538 v -21.7193 h 1.538 v -20.9209 h 1.538 v -21.908 h 1.538 V 73.3701 h 1.538 V 62.6986 h 1.538 v 4.4002 h 1.538 v 12.7651 h 1.538 v 26.0039 h 1.538 v 39.791 h 1.538 v 44.9935 h 1.538 v 44.3971 h 1.538 v 38.5102 h 1.538 v 16.5868 h 1.538 v 7.3246 h 1.538 v -10.5636 h 1.538 V 271.212 h 1.538 v -23.3989 h 1.538 v -19.6602 h 1.538 V 213.061 h 1.538 v -24.9794 h 1.538 v -9.4349 h 1.538 v -23.4209 h 1.538 v -20.6141 h 1.538 v -24.0101 h 1.538 V 91.4411 h 1.538 v 1.4641 h 1.538 V 110.79 h 1.538 v 27.7959 h 1.538 v 21.9046 h 1.538 v 25.9193 h 1.538 v 13.0287 h 1.538 v 14.0228 h 1.538 v 3.6281 h 1.538 v -15.4069 h 1.538 v -17.7617 h 1.538 V 154.424 h 1.538 v -12.6373 h 1.538 v -17.1982 h 1.538 v -15.875 h 1.538 v -9.2131 h 1.538 v -4.3348 h 1.538 v 8.7427 h 1.538 v 16.7605 h 1.538 v 14.6748 h 1.538 V 158.1 h 1.538 v 28.6195 h 1.538 v 11.8366 h 1.538 v 9.8476 h 1.538 v 1.0909 h 1.538 v -10.7763 h 1.538 v -13.7252 h 1.538 v -21.6047 h 1.538 v -9.9198 h 1.538 v 1.1513 h 1.538 v -0.8847 h 1.538 v 13.0672 h 1.538 v 13.6615 h 1.538 v 22.3417 h 1.538 v 5.9115 h 1.538 v -4.2493 h 1.538 v -13.1951 h 1.538 v -7.1793 h 1.538 v 4.4031 h 1.538 v 10.2395 h 1.538 v -1.8865 h 1.538 v -15.0268 h 1.538 v -20.0606 h 1.538 V 132.428 h 1.538 v -24.3585 h 1.538 V 87.2203 h 1.538 v -20.427 h 1.538 V 50.5386 h 1.538 V 40.3857 h 1.538 v 1.0905 h 1.538 V 63.814 h 1.538 v 34.7394 h 1.538 v 51.864 h 1.538 v 55.123 h 1.538 v 50.6932 h 1.538 v 42.7427 h 1.538 v 25.8732 h 1.538 v 2.0768 h 1.538 v -17.5319 h 1.538 v -39.292 h 1.538 v -31.3195 h 1.538 v -21.5895 h 1.538 v -13.714 h 1.538 v -6.6144 h 1.538 v -19.8247 h 1.538 v -22.0131 h 1.538 v -23.6549 h 1.538 v -26.1837 h 1.538 V 82.7184 h 1.538 V 66.6977 h 1.538 v 1.0538 h 1.538 v 4.7687 h 1.538 v 5.2715 h 1.538 v 6.9453 h 1.538 v 22.0773 h 1.538 v 35.6709 h 1.538 v 39.823 h 1.538 v 31.0919 h 1.538 v 23.7105 h 1.538 v 20.2986 h 1.538 v 1.5419 h 1.538 v -11.87 h 1.538 v -28.9494 h 1.538 V 179.925 h 1.538 v -32.1678 h 1.538 v -19.9945 h 1.538 v -2.6335 h 1.538 v 9.799 h 1.538 v 5.5609 h 1.538 v 2.5421 h 1.538 v 13.7108 h 1.538 v 16.219 h 1.538 v 10.1455 h 1.538 v -2.4409 h 1.538 v -14.6158 h 1.538 v -19.8752 h 1.538 v -18.429 h 1.538 v -5.5905 h 1.538 v -4.9012 h 1.538 v 7.6156 h 1.538 v 5.7394 h 1.538 v -1.8703 h 1.538 v 14.759 h 1.538 v 18.2642 h 1.538 v 17.6432 h 1.538 v 16.2342 h 1.538 v 3.4745 h 1.538 v -3.9558 h 1.538 v 3.342 h 1.538 v 3.5273 h 1.538 v -1.9669 h 1.538 v 6.195 h 1.538 v 7.2962 h 1.538 v -1.7193 h 1.538 v 2.3203 h 1.538 v 3.7333 h 1.538 v -3.7962 h 1.538 v 0.4149 h 1.538 v 6.5647 h 1.538 v 11.4118 h 1.538 v 14.3528 h 1.538 v 13.5643 h 1.538 v 8.6794 h 1.538 v 12.0477 h 1.538 v 9.7667 h 1.538 v 0.7425 h 1.538 v -13.3211 h 1.538 v -11.8778 h 1.538 v -13.6633 h 1.538 v -4.8495 h 1.538 v -2.3582 h 1.538 v -0.78 h 1.538 v -0.348 h 1.538 v -7.7632 h 1.538 v -10.2026 h 1.538 v -5.3585 h 1.538 v -8.5838 h 1.538 v -5.8744 h 1.538 v -1.0929 h 1.538 v 10.1245 h 1.538 v -7.1021 h 1.538 v 2.4378 h 1.538 v 8.3292 h 1.538 v 8.8349 h 1.538 v 15.094 h 1.538 v 13.1802 h 1.538 v -6.4806 h 1.538 v -21.0677 h 1.538 v -11.0447 h 1.538 v -9.3817 h 1.538 V 192.78 h 1.538 v 0.7403 h 1.538 v -4.1433 h 1.538 v -8.7702 h 1.538 v -12.9505 h 1.538 v -8.7677 h 1.538 v -7.2949 h 1.538 v 5.6247 h 1.538 v 15.1294 h 1.538 v 22.8609 h 1.538 v 22.442 h 1.538 v 7.3511 h 1.538 v 11.5726 h 1.538 v 8.3878 h 1.538 v -4.1674 h 1.538 v -0.6511 h 1.538 v -15.5762 h 1.538 v -12.8357 h 1.538 v -20.1159 h 1.538 v -6.5071 h 1.538 v -0.3664 h 1.538 v 9.4281 h 1.538 v 15.9562 h 1.538 v -1.1874 h 1.538 v -13.2076 h 1.538 V 169.908 h 1.538 v -22.6259 h 1.538 v -11.3335 h 1.538 v -11.8333 h 1.538 v 5.9731 h 1.538 v -6.6413 h 1.538 v -4.0542 h 1.538 v -7.9377 h 1.538 v 4.5576 h 1.538 v 8.2109 h 1.538 v 15.192 h 1.538 v 12.5473 h 1.538 v 0.9816 h 1.538 v 9.516 h 1.538 v -0.7829 h 1.538 v -4.4399 h 1.538 v 8.2573 h 1.538 v -6.4302 h 1.538 v -2.3898 h 1.538 v 4.2479 h 1.538 v 10.8067 h 1.538 v 21.5963 h 1.538 v 29.5081 h 1.538 v 23.5275 h 1.538 v 27.6211 h 1.538 v 20.3209 h 1.538 v 10.1545 h 1.538 V 293.431 h 1.538 v -27.2817 h 1.538 v -22.7544 h 1.538 v -15.4423 h 1.538 v -8.0752 h 1.538 v 0.8993 h 1.538 v -4.0486 h 1.538 v -8.7161 h 1.538 v -21.4348 h 1.538 v -11.8966 h 1.538 v -16.3542 h 1.538 v -14.8438 h 1.538 v -5.4434 h 1.538 v 5.935 h 1.538 v 1.3604 h 1.538 v -0.546 h 1.538 v 7.5167 h 1.538 v 20.1927 h 1.538 v 26.9899 h 1.538 v 27.7856 h 1.538 v 14.7434 h 1.538 v 5.0889 h 1.538 v -9.3362 h 1.538 v 0.3372 h 1.538 v -20.5784 h 1.538 v -24.496 h 1.538 v -12.6628 h 1.538 V 157.592 h 1.538 v -7.8676 h 1.538 v -14.7479 h 1.538 v -15.9424 h 1.538 v -11.1702 h 1.538 v 2.0516 h 1.538 v 21.7766 h 1.538 v 25.8242 h 1.538 v 17.4963 h 1.538 v 4.002 h 1.538 v 9.9525 h 1.538 v -3.2572 h 1.538 v -9.2056 h 1.538 v -15.2988 h 1.538 v -27.4071 h 1.538 V 112.459 h 1.538 V 91.9222 h 1.538 v -1.306 h 1.538 v 17.1056 h 1.538 v 28.5385 h 1.538 v 26.8104 h 1.538 v 26.3501 h 1.538 v 30.4235 h 1.538 v 25.6961 h 1.538 v 11.088 h 1.538 v -11.1509 h 1.538 v -23.9064 h 1.538 v -31.363 h 1.538 v -16.3919 h 1.538 v -10.4691 h 1.538 v -15.7054 h 1.538 v -14.1486 h 1.538 v -24.2129 h 1.538 V 94.0509 h 1.538 v 0.1146 h 1.538 v 0.7674 h 1.538 v 4.4238 h 1.538 v 11.1992 h 1.538 v 10.2833 h 1.538 v 10.5928 h 1.538 v 15.1859 h 1.538 v 9.7987 h 1.538 V 176.91 h 1.538 v 27.9063 h 1.538 v 29.135 h 1.538 v 27.2583 h 1.538 v 20.8902 h 1.538 v 20.3015 h 1.538 v 7.1434 h 1.538 v -7.5356 h 1.538 v -14.7059 h 1.538 v -27.5605 h 1.538 v -22.6844 h 1.538 v -15.4866 h 1.538 v -10.6311 h 1.538 v -0.0415 h 1.538 v -10.3546 h 1.538 v -7.6075 h 1.538 v -13.4802 h 1.538 v -17.7929 h 1.538 v -10.2583 h 1.538 v -9.0119 h 1.538 v 1.5312 h 1.538 v -2.3931 h 1.538 v 8.4008 h 1.538 v 2.9376 h 1.538 v 13.8831 h 1.538 v 22.4014 h 1.538 v 22.1565 h 1.538 v 10.3565 h 1.538 v -10.4899 h 1.538 v -14.0471 h 1.538 v -30.9532 h 1.538 v -27.7601 h 1.538 v -8.2212 h 1.538 v -20.1558 h 1.538 v -8.9008 h 1.538 V 85.9264 h 1.538 V 75.42 h 1.538 v 11.4762 h 1.538 v 22.2355 h 1.538 v 25.12 h 1.538 v 33.4976 h 1.538 v 29.0505 h 1.538 v 19.4789 h 1.538 v 17.4266 h 1.538 v -1.2587 h 1.538 v -10.7774 h 1.538 v -2.397 h 1.538 v -1.4809 h 1.538 v 8.7416 h 1.538 v 7.8342 h 1.538 v 8.1571 h 1.538 v -7.0169 H 898 v 1.5139" />
  </g>
  <g
     id="g247"
     style="color-interpolation:sRGB;fill:#ffffff;stroke:#ffffff;color-rendering:optimizeSpeed;image-rendering:optimizeSpeed;shape-rendering:crispEdges;text-rendering:optimizeSpeed"
     transform="translate(-110.3073,-12.8281)">
    <path
       inkscape:connector-curvature="0"
       id="path245"
       d="M 887,75 V 42 H 737 v 33 z"
       style="stroke:none" />
  </g>
  <g
     id="g251"
     style="font-family:mwa_cmr10;color-interpolation:linearRGB;color-rendering:optimizeQuality;image-rendering:optimizeQuality;text-rendering:geometricPrecision"
     transform="translate(673.6613,38.289)">
    <path
       inkscape:connector-curvature="0"
       id="path249"
       d="M 0.3594,2.88 V 2.4581 q 0.4062,0 0.6718,-0.0625 0.2657,-0.0625 0.2657,-0.3125 v -3.2813 q 0,-0.3281 -0.0938,-0.4687 Q 1.1094,-1.8075 0.9219,-1.8388 0.7344,-1.87 0.3594,-1.87 v -0.4219 l 1.7344,-0.125 v 1.1719 q 0.25,-0.5157 0.7187,-0.8438 0.4687,-0.3281 1.0313,-0.3281 1.375,0 1.625,1.125 0.2343,-0.5156 0.6953,-0.8203 0.4609,-0.3047 1.0078,-0.3047 0.5469,0 0.9219,0.1719 0.375,0.1718 0.5624,0.5312 0.1876,0.3594 0.1876,0.9063 v 2.8906 q 0,0.25 0.2656,0.3125 0.2656,0.0625 0.6718,0.0625 V 2.88 h -2.75 V 2.4581 q 0.4063,0 0.6719,-0.0625 Q 7.9688,2.3331 7.9688,2.0831 V -0.7763 Q 7.9688,-1.37 7.7969,-1.745 7.625,-2.12 7.1094,-2.12 q -0.7032,0 -1.1485,0.5625 -0.4453,0.5625 -0.4453,1.2656 v 2.375 q 0,0.25 0.2578,0.3125 0.2578,0.0625 0.6797,0.0625 V 2.88 h -2.75 V 2.4581 q 0.4063,0 0.6719,-0.0625 0.2656,-0.0625 0.2656,-0.3125 v -2.8594 q 0,-0.5781 -0.1718,-0.9609 Q 4.2969,-2.12 3.7656,-2.12 3.0781,-2.12 2.625,-1.5575 2.1719,-0.995 2.1719,-0.2919 v 2.375 q 0,0.25 0.2656,0.3125 0.2656,0.0625 0.6719,0.0625 V 2.88 Z"
       style="stroke:none" />
  </g>
  <g
     id="g281"
     style="font-family:mwa_cmr10;color-interpolation:linearRGB;color-rendering:optimizeQuality;image-rendering:optimizeQuality;text-rendering:geometricPrecision"
     transform="translate(673.6613,38.289)">
    <path
       inkscape:connector-curvature="0"
       id="path253"
       d="M 12.9844,3.0206 Q 12.25,3.0206 11.6407,2.63 11.0313,2.2393 10.6797,1.5987 10.3282,0.9581 10.3282,0.255 q 0,-0.7032 0.3203,-1.336 0.3203,-0.6328 0.8906,-1.0234 0.5703,-0.3906 1.2734,-0.3906 0.5625,0 0.9688,0.1796 0.4062,0.1797 0.6719,0.5079 0.2656,0.3281 0.3984,0.7734 0.1328,0.4453 0.1328,0.9766 0,0.1718 -0.125,0.1718 h -3.4687 v 0.125 q 0,1 0.3984,1.711 0.3984,0.7109 1.3047,0.7109 0.375,0 0.6875,-0.1641 0.3125,-0.164 0.539,-0.4531 0.2266,-0.289 0.3204,-0.6328 0,-0.0312 0.039,-0.0703 0.0391,-0.0391 0.0703,-0.0391 h 0.1094 q 0.125,0 0.125,0.1563 -0.1719,0.6875 -0.7344,1.125 -0.5625,0.4375 -1.2656,0.4375 z m -1.5937,-3.2188 h 2.7343 q 0,-0.4375 -0.125,-0.9062 -0.125,-0.4688 -0.414,-0.7735 -0.2891,-0.3046 -0.7735,-0.3046 -0.6718,0 -1.0468,0.6328 -0.375,0.6328 -0.375,1.3515 z"
       style="stroke:none" />
    <path
       inkscape:connector-curvature="0"
       id="path255"
       d="m 15.8177,1.7081 q 0,-0.7188 0.5625,-1.1719 0.5625,-0.4531 1.3516,-0.6328 0.7891,-0.1797 1.4922,-0.1797 v -0.5 q 0,-0.3437 -0.1484,-0.6641 -0.1485,-0.3203 -0.4375,-0.5312 -0.2891,-0.2109 -0.6329,-0.2109 -0.7968,0 -1.2187,0.3593 0.2344,0 0.3828,0.1719 0.1484,0.1719 0.1484,0.4063 0,0.2343 -0.1718,0.4062 -0.1719,0.1719 -0.4063,0.1719 -0.2344,0 -0.4062,-0.1719 -0.1719,-0.1719 -0.1719,-0.4062 0,-0.6407 0.5703,-0.9454 0.5703,-0.3046 1.2734,-0.3046 0.4844,0 0.9766,0.2031 0.4922,0.2031 0.8047,0.5937 0.3125,0.3907 0.3125,0.9063 v 2.7031 q 0,0.2344 0.1016,0.4297 0.1015,0.1953 0.3046,0.1953 0.2032,0 0.2969,-0.2031 Q 20.8959,2.13 20.8959,1.9112 V 1.1456 h 0.3593 v 0.7656 q 0,0.2656 -0.1406,0.5078 -0.1406,0.2422 -0.3828,0.3906 -0.2422,0.1485 -0.5078,0.1485 -0.3594,0 -0.6094,-0.2735 -0.25,-0.2734 -0.2812,-0.6484 -0.2188,0.4375 -0.6563,0.7109 -0.4375,0.2735 -0.9219,0.2735 -0.4687,0 -0.9062,-0.1406 Q 16.4115,2.7393 16.1146,2.4503 15.8177,2.1612 15.8177,1.7081 Z m 0.9688,0 q 0,0.4219 0.3125,0.7031 0.3125,0.2813 0.7344,0.2813 0.3906,0 0.7031,-0.1875 0.3125,-0.1875 0.5,-0.5235 0.1875,-0.3359 0.1875,-0.7109 v -1.25 q -0.5469,0 -1.1172,0.1797 -0.5703,0.1797 -0.9453,0.5625 -0.375,0.3828 -0.375,0.9453 z"
       style="stroke:none" />
    <path
       inkscape:connector-curvature="0"
       id="path257"
       d="M 21.7396,2.9112 V 0.9581 q 0,-0.0938 0.0938,-0.0938 h 0.1562 q 0.0625,0 0.0938,0.0938 0.3281,1.7344 1.6094,1.7344 0.5781,0 0.9609,-0.2579 0.3828,-0.2578 0.3828,-0.789 0,-0.3906 -0.3047,-0.6641 Q 24.4271,0.7081 24.0209,0.6143 L 23.224,0.4581 Q 22.8178,0.3643 22.4896,0.1846 22.1615,0.005 21.9506,-0.2997 q -0.211,-0.3047 -0.211,-0.6953 0,-0.5313 0.2735,-0.8672 0.2734,-0.336 0.7187,-0.4844 0.4453,-0.1484 0.961,-0.1484 0.625,0 1.0781,0.3281 l 0.3437,-0.2969 q 0,-0.0312 0.0625,-0.0312 h 0.0782 q 0.0468,0 0.0703,0.0312 0.0234,0.0313 0.0234,0.0625 v 1.5781 q 0,0.1094 -0.0937,0.1094 h -0.1407 q -0.1093,0 -0.1093,-0.1094 0,-0.6406 -0.3438,-1.0156 -0.3437,-0.375 -0.9844,-0.375 -0.5312,0 -0.9297,0.1953 -0.3984,0.1953 -0.3984,0.6797 0,0.3438 0.2891,0.5547 0.289,0.2109 0.664,0.3047 l 0.8125,0.1562 q 0.4063,0.0938 0.7657,0.3125 0.3593,0.2188 0.5625,0.5625 0.2031,0.3438 0.2031,0.7657 0,0.4375 -0.1485,0.7578 -0.1484,0.3203 -0.414,0.5312 -0.2656,0.211 -0.625,0.3125 -0.3594,0.1016 -0.7656,0.1016 -0.75,0 -1.2813,-0.5156 L 21.974,2.9893 q 0,0.0313 -0.0625,0.0313 h -0.0781 q -0.0938,0 -0.0938,-0.1094 z"
       style="stroke:none" />
    <path
       inkscape:connector-curvature="0"
       id="path259"
       d="m 27.3636,1.4425 v -2.6407 q 0,-0.3281 -0.0938,-0.4687 Q 27.1761,-1.8075 26.9886,-1.8388 26.8011,-1.87 26.4261,-1.87 v -0.4219 l 1.8125,-0.125 v 3.8594 q 0,0.4687 0.0703,0.7343 0.0703,0.2657 0.2891,0.3907 0.2187,0.125 0.7031,0.125 0.6406,0 1.0234,-0.5391 0.3828,-0.5391 0.3828,-1.2266 v -2.125 q 0,-0.3281 -0.1015,-0.4687 Q 30.5042,-1.8075 30.3245,-1.8388 30.1448,-1.87 29.7698,-1.87 v -0.4219 l 1.8125,-0.125 v 4.2031 q 0,0.3125 0.0938,0.4609 0.0937,0.1485 0.2734,0.1797 0.1797,0.0313 0.5703,0.0313 V 2.88 L 30.7386,3.0206 V 2.005 q -0.2188,0.4531 -0.6172,0.7343 -0.3984,0.2813 -0.8828,0.2813 -0.8594,0 -1.3672,-0.3672 -0.5078,-0.3672 -0.5078,-1.2109 z"
       style="stroke:none" />
    <path
       inkscape:connector-curvature="0"
       id="path261"
       d="M 33.0459,2.88 V 2.4581 q 0.4062,0 0.6719,-0.0625 0.2656,-0.0625 0.2656,-0.3125 v -3.2813 q 0,-0.3281 -0.0938,-0.4687 Q 33.7959,-1.8075 33.6084,-1.8388 33.4209,-1.87 33.0459,-1.87 v -0.4219 l 1.7187,-0.125 v 1.1719 q 0.1875,-0.5313 0.5469,-0.8516 0.3594,-0.3203 0.875,-0.3203 0.3438,0 0.625,0.2109 0.2813,0.211 0.2813,0.5547 0,0.2188 -0.1485,0.375 -0.1484,0.1563 -0.3828,0.1563 -0.2187,0 -0.3828,-0.1563 -0.1641,-0.1562 -0.1641,-0.375 0,-0.3281 0.2344,-0.4687 h -0.0625 q -0.5,0 -0.8047,0.3515 -0.3047,0.3516 -0.4297,0.875 -0.125,0.5235 -0.125,1.0078 v 1.9688 q 0,0.375 1.1563,0.375 V 2.88 Z"
       style="stroke:none" />
    <path
       inkscape:connector-curvature="0"
       id="path263"
       d="M 40.4178,3.0206 Q 39.6834,3.0206 39.074,2.63 38.4647,2.2393 38.1131,1.5987 37.7615,0.9581 37.7615,0.255 q 0,-0.7032 0.3203,-1.336 0.3204,-0.6328 0.8907,-1.0234 0.5703,-0.3906 1.2734,-0.3906 0.5625,0 0.9688,0.1796 0.4062,0.1797 0.6718,0.5079 0.2657,0.3281 0.3985,0.7734 0.1328,0.4453 0.1328,0.9766 0,0.1718 -0.125,0.1718 H 38.824 v 0.125 q 0,1 0.3985,1.711 0.3984,0.7109 1.3047,0.7109 0.375,0 0.6875,-0.1641 0.3125,-0.164 0.539,-0.4531 0.2266,-0.289 0.3203,-0.6328 0,-0.0312 0.0391,-0.0703 0.0391,-0.0391 0.0703,-0.0391 h 0.1094 q 0.125,0 0.125,0.1563 -0.1719,0.6875 -0.7344,1.125 -0.5625,0.4375 -1.2656,0.4375 z M 38.824,-0.1982 h 2.7344 q 0,-0.4375 -0.125,-0.9062 -0.125,-0.4688 -0.4141,-0.7735 -0.289,-0.3046 -0.7734,-0.3046 -0.6719,0 -1.0469,0.6328 -0.375,0.6328 -0.375,1.3515 z"
       style="stroke:none" />
    <path
       inkscape:connector-curvature="0"
       id="path265"
       d="m 45.7042,3.0206 q -0.7187,0 -1.3046,-0.3906 -0.586,-0.3907 -0.9063,-1.0157 -0.3203,-0.625 -0.3203,-1.3281 0,-0.7187 0.3516,-1.3437 0.3515,-0.625 0.9609,-0.9922 0.6094,-0.3672 1.3437,-0.3672 0.4375,0 0.8282,0.1797 0.3906,0.1797 0.6875,0.5078 v -2.5 q 0,-0.3125 -0.1016,-0.461 -0.1016,-0.1484 -0.2812,-0.1796 -0.1797,-0.0313 -0.5547,-0.0313 v -0.4219 l 1.7812,-0.125 v 7.2344 q 0,0.3125 0.0938,0.4609 0.0937,0.1485 0.2734,0.1797 0.1797,0.0313 0.5547,0.0313 V 2.88 L 47.298,3.0206 V 2.255 Q 46.9855,2.6143 46.5636,2.8175 46.1417,3.0206 45.7042,3.0206 Z M 44.4699,1.8331 q 0.2031,0.3906 0.5468,0.625 0.3438,0.2344 0.75,0.2344 0.5,0 0.9141,-0.2813 0.4141,-0.2812 0.6172,-0.75 v -2.875 Q 47.1574,-1.4794 46.9464,-1.6825 46.7355,-1.8857 46.4699,-2.0029 46.2042,-2.12 45.9074,-2.12 q -0.625,0 -1.0078,0.3593 -0.3829,0.3594 -0.5391,0.9063 -0.1563,0.5469 -0.1563,1.1562 0,0.4844 0.0547,0.836 0.0547,0.3515 0.211,0.6953 z"
       style="stroke:none" />
    <path
       inkscape:connector-curvature="0"
       id="path267"
       d="m 56.4334,3.0206 q -0.7187,0 -1.3359,-0.3672 Q 54.4803,2.2862 54.1209,1.669 53.7615,1.0518 53.7615,0.3175 q 0,-0.5469 0.2032,-1.0547 0.2031,-0.5078 0.5625,-0.9063 0.3593,-0.3984 0.8515,-0.625 0.4922,-0.2265 1.0547,-0.2265 0.7344,0 1.3438,0.3906 0.6093,0.3906 0.9609,1.039 0.3516,0.6485 0.3516,1.3829 0,0.7343 -0.3594,1.3515 -0.3594,0.6172 -0.9688,0.9844 -0.6093,0.3672 -1.3281,0.3672 z m 0,-0.3594 q 0.9688,0 1.2891,-0.6953 0.3203,-0.6953 0.3203,-1.7734 0,-0.6094 -0.0625,-1 -0.0625,-0.3907 -0.2813,-0.7188 -0.1406,-0.2031 -0.3515,-0.3516 -0.211,-0.1484 -0.4375,-0.2265 -0.2266,-0.0781 -0.4766,-0.0781 -0.375,0 -0.7109,0.1718 -0.336,0.1719 -0.5547,0.4844 -0.2344,0.3438 -0.2891,0.75 -0.0547,0.4063 -0.0547,0.9688 0,0.6718 0.1172,1.2109 0.1172,0.5391 0.4688,0.8984 0.3515,0.3594 1.0234,0.3594 z"
       style="stroke:none" />
    <path
       inkscape:connector-curvature="0"
       id="path269"
       d="m 60.7303,1.4425 v -2.6407 q 0,-0.3281 -0.0937,-0.4687 Q 60.5428,-1.8075 60.3553,-1.8388 60.1678,-1.87 59.7928,-1.87 v -0.4219 l 1.8125,-0.125 v 3.8594 q 0,0.4687 0.0703,0.7343 0.0703,0.2657 0.2891,0.3907 0.2187,0.125 0.7031,0.125 0.6406,0 1.0234,-0.5391 0.3829,-0.5391 0.3829,-1.2266 v -2.125 q 0,-0.3281 -0.1016,-0.4687 Q 63.8709,-1.8075 63.6912,-1.8388 63.5116,-1.87 63.1366,-1.87 v -0.4219 l 1.8125,-0.125 v 4.2031 q 0,0.3125 0.0937,0.4609 0.0938,0.1485 0.2735,0.1797 0.1796,0.0313 0.5703,0.0313 V 2.88 L 64.1053,3.0206 V 2.005 q -0.2187,0.4531 -0.6172,0.7343 -0.3984,0.2813 -0.8828,0.2813 -0.8594,0 -1.3672,-0.3672 -0.5078,-0.3672 -0.5078,-1.2109 z"
       style="stroke:none" />
    <path
       inkscape:connector-curvature="0"
       id="path271"
       d="M 67.3189,1.4425 V -1.87 h -0.9844 v -0.3125 q 0.7813,0 1.1484,-0.7344 0.3672,-0.7344 0.3672,-1.5938 h 0.3438 v 2.2188 H 69.897 V -1.87 h -1.7031 v 3.2812 q 0,0.5 0.1719,0.875 0.1718,0.375 0.5937,0.375 0.4219,0 0.6016,-0.3984 0.1797,-0.3985 0.1797,-0.8516 V 0.7081 h 0.3437 v 0.7344 q 0,0.375 -0.1406,0.7421 -0.1406,0.3672 -0.4063,0.6016 -0.2656,0.2344 -0.6562,0.2344 -0.7188,0 -1.1406,-0.4375 -0.4219,-0.4375 -0.4219,-1.1406 z"
       style="stroke:none" />
    <path
       inkscape:connector-curvature="0"
       id="path273"
       d="M 71.0793,5.2081 V 4.7862 q 0.4063,0 0.6719,-0.0703 0.2656,-0.0703 0.2656,-0.3047 v -5.7969 q 0,-0.3281 -0.2344,-0.4062 Q 71.5481,-1.87 71.0793,-1.87 v -0.4219 l 1.7813,-0.125 v 0.7344 q 0.3281,-0.3594 0.7578,-0.5469 0.4297,-0.1875 0.9297,-0.1875 0.7031,0 1.2734,0.3828 0.5703,0.3828 0.8906,1.0078 0.3203,0.625 0.3203,1.3125 0,0.7344 -0.3515,1.3594 -0.3516,0.625 -0.9688,1 -0.6172,0.375 -1.3515,0.375 -0.875,0 -1.4688,-0.7188 v 2.1094 q 0,0.2344 0.2656,0.3047 0.2657,0.0703 0.6719,0.0703 v 0.4219 z m 1.8125,-3.5 q 0.2031,0.4375 0.5781,0.7109 0.375,0.2735 0.8282,0.2735 0.4062,0 0.7265,-0.2188 0.3203,-0.2187 0.5391,-0.5937 0.2187,-0.375 0.3203,-0.7891 0.1016,-0.4141 0.1016,-0.8047 0,-0.4844 -0.1719,-1.0391 -0.1719,-0.5546 -0.5235,-0.9375 -0.3515,-0.3828 -0.8671,-0.3828 -0.4844,0 -0.8907,0.25 -0.4062,0.25 -0.6406,0.6719 z"
       style="stroke:none" />
    <path
       inkscape:connector-curvature="0"
       id="path275"
       d="m 78.7304,1.4425 v -2.6407 q 0,-0.3281 -0.0938,-0.4687 Q 78.5429,-1.8075 78.3554,-1.8388 78.1679,-1.87 77.7929,-1.87 v -0.4219 l 1.8125,-0.125 v 3.8594 q 0,0.4687 0.0703,0.7343 0.0703,0.2657 0.289,0.3907 0.2188,0.125 0.7032,0.125 0.6406,0 1.0234,-0.5391 0.3828,-0.5391 0.3828,-1.2266 v -2.125 q 0,-0.3281 -0.1015,-0.4687 Q 81.871,-1.8075 81.6913,-1.8388 81.5116,-1.87 81.1366,-1.87 v -0.4219 l 1.8125,-0.125 v 4.2031 q 0,0.3125 0.0938,0.4609 0.0937,0.1485 0.2734,0.1797 0.1797,0.0313 0.5703,0.0313 V 2.88 L 82.1054,3.0206 V 2.005 q -0.2188,0.4531 -0.6172,0.7343 -0.3985,0.2813 -0.8828,0.2813 -0.8594,0 -1.3672,-0.3672 -0.5078,-0.3672 -0.5078,-1.2109 z"
       style="stroke:none" />
    <path
       inkscape:connector-curvature="0"
       id="path277"
       d="M 85.3189,1.4425 V -1.87 h -0.9843 v -0.3125 q 0.7812,0 1.1484,-0.7344 0.3672,-0.7344 0.3672,-1.5938 h 0.3437 v 2.2188 h 1.7032 V -1.87 h -1.7032 v 3.2812 q 0,0.5 0.1719,0.875 0.1719,0.375 0.5938,0.375 0.4218,0 0.6015,-0.3984 0.1797,-0.3985 0.1797,-0.8516 V 0.7081 h 0.3438 v 0.7344 q 0,0.375 -0.1407,0.7421 -0.1406,0.3672 -0.4062,0.6016 -0.2656,0.2344 -0.6563,0.2344 -0.7187,0 -1.1406,-0.4375 -0.4219,-0.4375 -0.4219,-1.1406 z"
       style="stroke:none" />
    <path
       inkscape:connector-curvature="0"
       id="path279"
       d="m 93.595,4.8487 q 0.2344,0.1875 0.5,0.1875 0.7656,0 1.2344,-1.1406 L 95.7512,2.88 93.9387,-1.5263 Q 93.8294,-1.745 93.6028,-1.8075 93.3762,-1.87 93.0012,-1.87 v -0.4219 h 2.5157 V -1.87 q -0.6563,0 -0.6563,0.2812 0,0.0469 0,0.0781 l 1.3438,3.2813 1.2031,-2.9531 q 0.0312,-0.0938 0.0312,-0.2032 0,-0.1562 -0.0781,-0.2656 Q 97.2825,-1.7607 97.1575,-1.8154 97.0325,-1.87 96.8762,-1.87 v -0.4219 h 1.9844 V -1.87 q -0.375,0 -0.6484,0.1718 -0.2735,0.1719 -0.4297,0.5 l -2.0781,5.0938 q -0.1563,0.375 -0.375,0.7031 -0.2188,0.3281 -0.5391,0.5391 -0.3203,0.2109 -0.6953,0.2109 -0.4375,0 -0.7656,-0.2969 -0.3282,-0.2968 -0.3282,-0.7187 0,-0.2188 0.1485,-0.375 0.1484,-0.1563 0.3672,-0.1563 0.1562,0 0.2812,0.0703 0.125,0.0704 0.1875,0.1875 0.0625,0.1172 0.0625,0.2735 0,0.1875 -0.125,0.3437 -0.125,0.1563 -0.3281,0.1719 z"
       style="stroke:none" />
  </g>
  <g
     id="g285"
     style="color-interpolation:linearRGB;fill:#ff0000;stroke:#ff0000;stroke-width:0.66670001;stroke-linecap:butt;stroke-linejoin:round;color-rendering:optimizeQuality;image-rendering:optimizeQuality;text-rendering:geometricPrecision"
     transform="translate(-110.3073,-12.8281)">
    <line
       id="line283"
       y1="51.1171"
       x2="780.97058"
       x1="740.99731"
       style="fill:none"
       y2="51.1171" />
  </g>
  <g
     id="g289"
     style="font-family:mwa_cmr10;color-interpolation:linearRGB;color-rendering:optimizeQuality;image-rendering:optimizeQuality;text-rendering:geometricPrecision"
     transform="translate(673.6613,53.0548)">
    <path
       inkscape:connector-curvature="0"
       id="path287"
       d="M 0.3125,5.2081 V 4.7862 q 0.4063,0 0.6719,-0.0703 Q 1.25,4.6456 1.25,4.4112 V -1.3857 Q 1.25,-1.7138 1.0156,-1.7919 0.7812,-1.87 0.3125,-1.87 v -0.4219 l 1.7813,-0.125 v 0.7344 q 0.3281,-0.3594 0.7578,-0.5469 0.4296,-0.1875 0.9296,-0.1875 0.7032,0 1.2735,0.3828 0.5703,0.3828 0.8906,1.0078 0.3203,0.625 0.3203,1.3125 0,0.7344 -0.3515,1.3594 -0.3516,0.625 -0.9688,1 -0.6172,0.375 -1.3515,0.375 -0.875,0 -1.4688,-0.7188 v 2.1094 q 0,0.2344 0.2656,0.3047 0.2656,0.0703 0.6719,0.0703 v 0.4219 z m 1.8125,-3.5 q 0.2031,0.4375 0.5781,0.7109 0.375,0.2735 0.8281,0.2735 0.4063,0 0.7266,-0.2188 Q 4.5781,2.255 4.7969,1.88 5.0156,1.505 5.1172,1.0909 5.2188,0.6768 5.2188,0.2862 5.2188,-0.1982 5.0469,-0.7529 4.875,-1.3075 4.5234,-1.6904 4.1719,-2.0732 3.6562,-2.0732 q -0.4843,0 -0.8906,0.25 -0.4062,0.25 -0.6406,0.6719 z"
       style="stroke:none" />
  </g>
  <g
     id="g323"
     style="font-family:mwa_cmr10;color-interpolation:linearRGB;color-rendering:optimizeQuality;image-rendering:optimizeQuality;text-rendering:geometricPrecision"
     transform="translate(673.6613,53.0548)">
    <path
       inkscape:connector-curvature="0"
       id="path291"
       d="M 6.9792,2.88 V 2.4581 q 0.4062,0 0.6719,-0.0625 0.2656,-0.0625 0.2656,-0.3125 v -3.2813 q 0,-0.3281 -0.0938,-0.4687 Q 7.7292,-1.8075 7.5417,-1.8388 7.3542,-1.87 6.9792,-1.87 v -0.4219 l 1.7187,-0.125 v 1.1719 q 0.1875,-0.5313 0.5469,-0.8516 0.3594,-0.3203 0.875,-0.3203 0.3438,0 0.625,0.2109 0.2813,0.211 0.2813,0.5547 0,0.2188 -0.1485,0.375 -0.1484,0.1563 -0.3828,0.1563 -0.2187,0 -0.3828,-0.1563 -0.1641,-0.1562 -0.1641,-0.375 0,-0.3281 0.2344,-0.4687 h -0.0625 q -0.5,0 -0.8047,0.3515 -0.3047,0.3516 -0.4297,0.875 -0.125,0.5235 -0.125,1.0078 v 1.9688 q 0,0.375 1.1563,0.375 V 2.88 Z"
       style="stroke:none" />
    <path
       inkscape:connector-curvature="0"
       id="path293"
       d="M 14.3511,3.0206 Q 13.6167,3.0206 13.0073,2.63 12.3979,2.2393 12.0464,1.5987 11.6948,0.9581 11.6948,0.255 q 0,-0.7032 0.3203,-1.336 0.3203,-0.6328 0.8907,-1.0234 0.5703,-0.3906 1.2734,-0.3906 0.5625,0 0.9687,0.1796 0.4063,0.1797 0.6719,0.5079 0.2656,0.3281 0.3985,0.7734 0.1328,0.4453 0.1328,0.9766 0,0.1718 -0.125,0.1718 h -3.4688 v 0.125 q 0,1 0.3985,1.711 0.3984,0.7109 1.3046,0.7109 0.375,0 0.6875,-0.1641 0.3125,-0.164 0.5391,-0.4531 0.2266,-0.289 0.3203,-0.6328 0,-0.0312 0.0391,-0.0703 0.039,-0.0391 0.0703,-0.0391 h 0.1094 q 0.125,0 0.125,0.1563 -0.1719,0.6875 -0.7344,1.125 -0.5625,0.4375 -1.2656,0.4375 z m -1.5938,-3.2188 h 2.7344 q 0,-0.4375 -0.125,-0.9062 -0.125,-0.4688 -0.4141,-0.7735 -0.289,-0.3046 -0.7734,-0.3046 -0.6719,0 -1.0469,0.6328 -0.375,0.6328 -0.375,1.3515 z"
       style="stroke:none" />
    <path
       inkscape:connector-curvature="0"
       id="path295"
       d="m 19.6375,3.0206 q -0.7187,0 -1.3047,-0.3906 -0.5859,-0.3907 -0.9062,-1.0157 -0.3203,-0.625 -0.3203,-1.3281 0,-0.7187 0.3515,-1.3437 0.3516,-0.625 0.961,-0.9922 0.6094,-0.3672 1.3437,-0.3672 0.4375,0 0.8282,0.1797 0.3906,0.1797 0.6875,0.5078 v -2.5 q 0,-0.3125 -0.1016,-0.461 Q 21.075,-4.8388 20.8953,-4.87 20.7157,-4.9013 20.3407,-4.9013 v -0.4219 l 1.7812,-0.125 v 7.2344 q 0,0.3125 0.0938,0.4609 0.0937,0.1485 0.2734,0.1797 0.1797,0.0313 0.5547,0.0313 V 2.88 L 21.2313,3.0206 V 2.255 Q 20.9188,2.6143 20.4969,2.8175 20.075,3.0206 19.6375,3.0206 Z M 18.4032,1.8331 q 0.2031,0.3906 0.5468,0.625 0.3438,0.2344 0.75,0.2344 0.5,0 0.9141,-0.2813 0.4141,-0.2812 0.6172,-0.75 v -2.875 Q 21.0907,-1.4794 20.8797,-1.6825 20.6688,-1.8857 20.4032,-2.0029 20.1375,-2.12 19.8407,-2.12 q -0.625,0 -1.0079,0.3593 -0.3828,0.3594 -0.539,0.9063 -0.1563,0.5469 -0.1563,1.1562 0,0.4844 0.0547,0.836 0.0547,0.3515 0.211,0.6953 z"
       style="stroke:none" />
    <path
       inkscape:connector-curvature="0"
       id="path297"
       d="M 23.7417,2.88 V 2.4581 q 0.4063,0 0.6719,-0.0625 0.2656,-0.0625 0.2656,-0.3125 v -3.2813 q 0,-0.4687 -0.1797,-0.5703 Q 24.3198,-1.87 23.7886,-1.87 v -0.4219 l 1.7344,-0.125 v 4.5 q 0,0.25 0.2265,0.3125 0.2266,0.0625 0.6016,0.0625 V 2.88 Z m 0.5,-7.3594 q 0,-0.2656 0.2031,-0.4688 0.2032,-0.2031 0.4532,-0.2031 0.1718,0 0.3281,0.0859 0.1562,0.086 0.25,0.25 0.0937,0.1641 0.0937,0.336 0,0.25 -0.2031,0.4531 -0.2031,0.2031 -0.4687,0.2031 -0.25,0 -0.4532,-0.2031 -0.2031,-0.2031 -0.2031,-0.4531 z"
       style="stroke:none" />
    <path
       inkscape:connector-curvature="0"
       id="path299"
       d="m 29.6844,3.0206 q -0.7187,0 -1.3125,-0.3828 Q 27.7782,2.255 27.4422,1.63 27.1063,1.005 27.1063,0.2862 q 0,-0.7031 0.3359,-1.3516 0.336,-0.6484 0.9297,-1.039 0.5938,-0.3906 1.3125,-0.3906 0.7032,0 1.2813,0.2734 0.5781,0.2734 0.5781,0.8984 0,0.2344 -0.1641,0.4063 -0.164,0.1719 -0.414,0.1719 -0.2344,0 -0.3985,-0.1719 -0.164,-0.1719 -0.164,-0.4063 0,-0.2031 0.1328,-0.3593 0.1328,-0.1563 0.3359,-0.2032 -0.4218,-0.2656 -1.1718,-0.2656 -0.5782,0 -0.9297,0.3828 -0.3516,0.3828 -0.4922,0.9453 -0.1406,0.5625 -0.1406,1.1094 0,0.5781 0.1718,1.125 0.1719,0.5469 0.5625,0.8984 0.3907,0.3516 0.9688,0.3516 0.5625,0 0.9609,-0.3516 0.3985,-0.3515 0.5391,-0.914 0,-0.0625 0.0937,-0.0625 h 0.1563 q 0.0312,0 0.0625,0.0312 0.0312,0.0313 0.0312,0.0782 v 0.0312 q -0.1875,0.7031 -0.7265,1.125 -0.5391,0.4219 -1.2735,0.4219 z"
       style="stroke:none" />
    <path
       inkscape:connector-curvature="0"
       id="path301"
       d="M 33.2521,1.4425 V -1.87 h -0.9843 v -0.3125 q 0.7812,0 1.1484,-0.7344 0.3672,-0.7344 0.3672,-1.5938 h 0.3437 v 2.2188 h 1.7032 V -1.87 h -1.7032 v 3.2812 q 0,0.5 0.1719,0.875 0.1719,0.375 0.5938,0.375 0.4218,0 0.6015,-0.3984 Q 35.674,1.8643 35.674,1.4112 V 0.7081 h 0.3438 v 0.7344 q 0,0.375 -0.1407,0.7421 -0.1406,0.3672 -0.4062,0.6016 -0.2656,0.2344 -0.6563,0.2344 -0.7187,0 -1.1406,-0.4375 -0.4219,-0.4375 -0.4219,-1.1406 z"
       style="stroke:none" />
    <path
       inkscape:connector-curvature="0"
       id="path303"
       d="M 39.6844,3.0206 Q 38.9501,3.0206 38.3407,2.63 37.7313,2.2393 37.3798,1.5987 37.0282,0.9581 37.0282,0.255 q 0,-0.7032 0.3203,-1.336 0.3203,-0.6328 0.8906,-1.0234 0.5703,-0.3906 1.2735,-0.3906 0.5625,0 0.9687,0.1796 0.4063,0.1797 0.6719,0.5079 0.2656,0.3281 0.3984,0.7734 0.1328,0.4453 0.1328,0.9766 0,0.1718 -0.125,0.1718 h -3.4687 v 0.125 q 0,1 0.3984,1.711 0.3985,0.7109 1.3047,0.7109 0.375,0 0.6875,-0.1641 0.3125,-0.164 0.5391,-0.4531 0.2265,-0.289 0.3203,-0.6328 0,-0.0312 0.0391,-0.0703 0.039,-0.0391 0.0703,-0.0391 h 0.1093 q 0.125,0 0.125,0.1563 -0.1718,0.6875 -0.7343,1.125 -0.5625,0.4375 -1.2657,0.4375 z m -1.5937,-3.2188 h 2.7344 q 0,-0.4375 -0.125,-0.9062 -0.125,-0.4688 -0.4141,-0.7735 -0.2891,-0.3046 -0.7734,-0.3046 -0.6719,0 -1.0469,0.6328 -0.375,0.6328 -0.375,1.3515 z"
       style="stroke:none" />
    <path
       inkscape:connector-curvature="0"
       id="path305"
       d="M 44.9709,3.0206 Q 44.2522,3.0206 43.6662,2.63 43.0803,2.2393 42.76,1.6143 42.4397,0.9893 42.4397,0.2862 q 0,-0.7187 0.3515,-1.3437 0.3516,-0.625 0.961,-0.9922 0.6093,-0.3672 1.3437,-0.3672 0.4375,0 0.8281,0.1797 0.3907,0.1797 0.6875,0.5078 v -2.5 q 0,-0.3125 -0.1015,-0.461 Q 46.4084,-4.8388 46.2287,-4.87 46.049,-4.9013 45.674,-4.9013 v -0.4219 l 1.7813,-0.125 v 7.2344 q 0,0.3125 0.0937,0.4609 0.0938,0.1485 0.2735,0.1797 0.1797,0.0313 0.5547,0.0313 V 2.88 L 46.5647,3.0206 V 2.255 Q 46.2522,2.6143 45.8303,2.8175 45.4084,3.0206 44.9709,3.0206 Z M 43.7365,1.8331 q 0.2032,0.3906 0.5469,0.625 0.3438,0.2344 0.75,0.2344 0.5,0 0.9141,-0.2813 0.414,-0.2812 0.6172,-0.75 v -2.875 Q 46.424,-1.4794 46.2131,-1.6825 46.0022,-1.8857 45.7365,-2.0029 45.4709,-2.12 45.174,-2.12 q -0.625,0 -1.0078,0.3593 -0.3828,0.3594 -0.539,0.9063 -0.1563,0.5469 -0.1563,1.1562 0,0.4844 0.0547,0.836 0.0547,0.3515 0.2109,0.6953 z"
       style="stroke:none" />
    <path
       inkscape:connector-curvature="0"
       id="path307"
       d="m 55.7001,3.0206 q -0.7188,0 -1.336,-0.3672 Q 53.747,2.2862 53.3876,1.669 53.0282,1.0518 53.0282,0.3175 q 0,-0.5469 0.2031,-1.0547 0.2032,-0.5078 0.5625,-0.9063 0.3594,-0.3984 0.8516,-0.625 0.4922,-0.2265 1.0547,-0.2265 0.7344,0 1.3437,0.3906 0.6094,0.3906 0.961,1.039 0.3515,0.6485 0.3515,1.3829 0,0.7343 -0.3593,1.3515 -0.3594,0.6172 -0.9688,0.9844 -0.6094,0.3672 -1.3281,0.3672 z m 0,-0.3594 q 0.9687,0 1.289,-0.6953 0.3204,-0.6953 0.3204,-1.7734 0,-0.6094 -0.0625,-1 -0.0625,-0.3907 -0.2813,-0.7188 -0.1406,-0.2031 -0.3516,-0.3516 -0.2109,-0.1484 -0.4375,-0.2265 -0.2265,-0.0781 -0.4765,-0.0781 -0.375,0 -0.711,0.1718 -0.3359,0.1719 -0.5546,0.4844 -0.2344,0.3438 -0.2891,0.75 -0.0547,0.4063 -0.0547,0.9688 0,0.6718 0.1172,1.2109 0.1172,0.5391 0.4687,0.8984 0.3516,0.3594 1.0235,0.3594 z"
       style="stroke:none" />
    <path
       inkscape:connector-curvature="0"
       id="path309"
       d="m 59.997,1.4425 v -2.6407 q 0,-0.3281 -0.0938,-0.4687 Q 59.8095,-1.8075 59.622,-1.8388 59.4345,-1.87 59.0595,-1.87 v -0.4219 l 1.8125,-0.125 v 3.8594 q 0,0.4687 0.0703,0.7343 0.0703,0.2657 0.289,0.3907 0.2188,0.125 0.7032,0.125 0.6406,0 1.0234,-0.5391 0.3828,-0.5391 0.3828,-1.2266 v -2.125 q 0,-0.3281 -0.1015,-0.4687 Q 63.1376,-1.8075 62.9579,-1.8388 62.7782,-1.87 62.4032,-1.87 v -0.4219 l 1.8125,-0.125 v 4.2031 q 0,0.3125 0.0938,0.4609 0.0937,0.1485 0.2734,0.1797 0.1797,0.0313 0.5703,0.0313 V 2.88 L 63.372,3.0206 V 2.005 q -0.2188,0.4531 -0.6172,0.7343 -0.3985,0.2813 -0.8828,0.2813 -0.8594,0 -1.3672,-0.3672 Q 59.997,2.2862 59.997,1.4425 Z"
       style="stroke:none" />
    <path
       inkscape:connector-curvature="0"
       id="path311"
       d="M 66.5855,1.4425 V -1.87 h -0.9843 v -0.3125 q 0.7812,0 1.1484,-0.7344 0.3672,-0.7344 0.3672,-1.5938 h 0.3437 v 2.2188 h 1.7032 V -1.87 h -1.7032 v 3.2812 q 0,0.5 0.1719,0.875 0.1719,0.375 0.5938,0.375 0.4218,0 0.6015,-0.3984 0.1797,-0.3985 0.1797,-0.8516 V 0.7081 h 0.3438 v 0.7344 q 0,0.375 -0.1407,0.7421 -0.1406,0.3672 -0.4062,0.6016 -0.2656,0.2344 -0.6563,0.2344 -0.7187,0 -1.1406,-0.4375 -0.4219,-0.4375 -0.4219,-1.1406 z"
       style="stroke:none" />
    <path
       inkscape:connector-curvature="0"
       id="path313"
       d="M 70.346,5.2081 V 4.7862 q 0.4062,0 0.6718,-0.0703 0.2657,-0.0703 0.2657,-0.3047 v -5.7969 q 0,-0.3281 -0.2344,-0.4062 Q 70.8147,-1.87 70.346,-1.87 v -0.4219 l 1.7812,-0.125 v 0.7344 q 0.3281,-0.3594 0.7578,-0.5469 0.4297,-0.1875 0.9297,-0.1875 0.7031,0 1.2735,0.3828 0.5703,0.3828 0.8906,1.0078 0.3203,0.625 0.3203,1.3125 0,0.7344 -0.3516,1.3594 -0.3515,0.625 -0.9687,1 -0.6172,0.375 -1.3516,0.375 -0.875,0 -1.4687,-0.7188 v 2.1094 q 0,0.2344 0.2656,0.3047 0.2656,0.0703 0.6719,0.0703 v 0.4219 z m 1.8125,-3.5 q 0.2031,0.4375 0.5781,0.7109 0.375,0.2735 0.8281,0.2735 0.4063,0 0.7266,-0.2188 0.3203,-0.2187 0.539,-0.5937 0.2188,-0.375 0.3204,-0.7891 0.1015,-0.4141 0.1015,-0.8047 0,-0.4844 -0.1719,-1.0391 -0.1718,-0.5546 -0.5234,-0.9375 -0.3516,-0.3828 -0.8672,-0.3828 -0.4844,0 -0.8906,0.25 -0.4063,0.25 -0.6406,0.6719 z"
       style="stroke:none" />
    <path
       inkscape:connector-curvature="0"
       id="path315"
       d="m 77.997,1.4425 v -2.6407 q 0,-0.3281 -0.0937,-0.4687 Q 77.8095,-1.8075 77.622,-1.8388 77.4345,-1.87 77.0595,-1.87 v -0.4219 l 1.8125,-0.125 v 3.8594 q 0,0.4687 0.0703,0.7343 0.0704,0.2657 0.2891,0.3907 0.2188,0.125 0.7031,0.125 0.6407,0 1.0235,-0.5391 0.3828,-0.5391 0.3828,-1.2266 v -2.125 q 0,-0.3281 -0.1016,-0.4687 Q 81.1377,-1.8075 80.958,-1.8388 80.7783,-1.87 80.4033,-1.87 v -0.4219 l 1.8125,-0.125 v 4.2031 q 0,0.3125 0.0937,0.4609 0.0938,0.1485 0.2735,0.1797 0.1797,0.0313 0.5703,0.0313 V 2.88 L 81.372,3.0206 V 2.005 q -0.2187,0.4531 -0.6172,0.7343 -0.3984,0.2813 -0.8828,0.2813 -0.8593,0 -1.3672,-0.3672 Q 77.997,2.2862 77.997,1.4425 Z"
       style="stroke:none" />
    <path
       inkscape:connector-curvature="0"
       id="path317"
       d="M 84.5856,1.4425 V -1.87 h -0.9844 v -0.3125 q 0.7813,0 1.1485,-0.7344 0.3671,-0.7344 0.3671,-1.5938 h 0.3438 v 2.2188 h 1.7031 V -1.87 h -1.7031 v 3.2812 q 0,0.5 0.1719,0.875 0.1718,0.375 0.5937,0.375 0.4219,0 0.6016,-0.3984 0.1797,-0.3985 0.1797,-0.8516 V 0.7081 h 0.3437 v 0.7344 q 0,0.375 -0.1406,0.7421 -0.1406,0.3672 -0.4063,0.6016 -0.2656,0.2344 -0.6562,0.2344 -0.7188,0 -1.1406,-0.4375 -0.4219,-0.4375 -0.4219,-1.1406 z"
       style="stroke:none" />
    <path
       inkscape:connector-curvature="0"
       id="path319"
       d="m 94.4822,-3.5732 -0.2344,-0.25 1.6094,-1.625 1.6093,1.625 -0.25,0.25 -1.3593,-1.2031 z"
       style="stroke:none" />
    <path
       inkscape:connector-curvature="0"
       id="path321"
       d="m 93.0491,4.5987 q 0.25,0.4375 0.875,0.4375 0.5625,0 0.9766,-0.3984 0.4141,-0.3985 0.6719,-0.9688 0.2578,-0.5703 0.3984,-1.164 -0.5312,0.5156 -1.1562,0.5156 -0.4688,0 -0.8047,-0.1641 -0.336,-0.164 -0.5235,-0.4922 -0.1875,-0.3281 -0.1875,-0.7968 0,-0.3907 0.1094,-0.8047 0.1094,-0.4141 0.2969,-0.9219 0.1875,-0.5078 0.3281,-0.8828 0.1563,-0.4375 0.1563,-0.7188 0,-0.3593 -0.25,-0.3593 -0.4844,0 -0.7891,0.4921 -0.3047,0.4922 -0.4609,1.1016 -0.0157,0.0781 -0.0938,0.0781 h -0.1406 q -0.0938,0 -0.0938,-0.125 v -0.0312 q 0.1875,-0.7188 0.586,-1.2656 0.3984,-0.5469 1.0078,-0.5469 0.4219,0 0.7187,0.2812 0.2969,0.2813 0.2969,0.7032 0,0.2343 -0.0937,0.4687 -0.0469,0.1563 -0.2344,0.6484 -0.1875,0.4922 -0.2891,0.8125 -0.1015,0.3204 -0.164,0.6329 -0.0625,0.3125 -0.0625,0.625 0,0.3906 0.164,0.664 0.1641,0.2735 0.5391,0.2735 0.75,0 1.3281,-0.9063 l 0.9219,-3.6875 q 0.0312,-0.1719 0.1797,-0.2812 0.1484,-0.1094 0.3203,-0.1094 0.1406,0 0.25,0.0937 0.1094,0.0938 0.1094,0.25 0,0.0625 -0.0157,0.0938 l -1.1875,4.7656 q -0.1562,0.625 -0.5781,1.1875 -0.4219,0.5625 -1.0156,0.9063 -0.5938,0.3437 -1.2344,0.3437 -0.3125,0 -0.6172,-0.125 -0.3047,-0.125 -0.4922,-0.3672 -0.1875,-0.2422 -0.1875,-0.5547 0,-0.3281 0.1954,-0.5703 0.1953,-0.2422 0.5078,-0.2422 0.2031,0 0.3281,0.1172 0.125,0.1172 0.125,0.3203 0,0.2657 -0.2031,0.4766 -0.2032,0.2109 -0.4688,0.2109 -0.0156,-0.0156 -0.0312,-0.0156 -0.0157,0 -0.0157,0 z"
       style="stroke:none" />
  </g>
  <g
     id="g329"
     style="color-interpolation:linearRGB;fill:#0000ff;stroke:#0000ff;stroke-width:0.66670001;stroke-linecap:butt;stroke-linejoin:round;color-rendering:optimizeQuality;image-rendering:optimizeQuality;text-rendering:geometricPrecision"
     transform="translate(-110.3073,-12.8281)">
    <line
       id="line325"
       y1="65.882896"
       x2="780.97058"
       x1="740.99731"
       style="fill:none"
       y2="65.882896" />
    <path
       inkscape:connector-curvature="0"
       id="path327"
       style="fill:none;fill-rule:evenodd;stroke:#262626;stroke-linejoin:miter"
       d="M 737,75 V 42 h 150 v 33 z" />
  </g>
</svg>
