<?xml version="1.0" encoding="UTF-8" standalone="no"?>
<svg
   xmlns:dc="http://purl.org/dc/elements/1.1/"
   xmlns:cc="http://creativecommons.org/ns#"
   xmlns:rdf="http://www.w3.org/1999/02/22-rdf-syntax-ns#"
   xmlns:svg="http://www.w3.org/2000/svg"
   xmlns="http://www.w3.org/2000/svg"
   xmlns:sodipodi="http://sodipodi.sourceforge.net/DTD/sodipodi-0.dtd"
   xmlns:inkscape="http://www.inkscape.org/namespaces/inkscape"
   style="font-style:normal;font-weight:normal;font-size:12px;font-family:Dialog;color-interpolation:auto;fill:#000000;fill-opacity:1;stroke:#000000;stroke-width:1;stroke-linecap:square;stroke-linejoin:miter;stroke-miterlimit:10;stroke-dasharray:none;stroke-dashoffset:0;stroke-opacity:1;color-rendering:auto;image-rendering:auto;shape-rendering:auto;text-rendering:auto"
   width="464.0386"
   height="379.69269"
   version="1.1"
   id="svg291"
   sodipodi:docname="output_lsim2.svg"
   inkscape:version="0.92.2 2405546, 2018-03-11">
  <metadata
     id="metadata295">
    <rdf:RDF>
      <cc:Work
         rdf:about="">
        <dc:format>image/svg+xml</dc:format>
        <dc:type
           rdf:resource="http://purl.org/dc/dcmitype/StillImage" />
        <dc:title></dc:title>
      </cc:Work>
    </rdf:RDF>
  </metadata>
  <sodipodi:namedview
     pagecolor="#ffffff"
     bordercolor="#666666"
     borderopacity="1"
     objecttolerance="10"
     gridtolerance="10"
     guidetolerance="10"
     inkscape:pageopacity="0"
     inkscape:pageshadow="2"
     inkscape:window-width="739"
     inkscape:window-height="480"
     id="namedview293"
     showgrid="false"
     showguides="false"
     fit-margin-top="0"
     fit-margin-left="0"
     fit-margin-right="0"
     fit-margin-bottom="0"
     inkscape:zoom="0.53571429"
     inkscape:cx="225.6927"
     inkscape:cy="182.5208"
     inkscape:window-x="0"
     inkscape:window-y="0"
     inkscape:window-maximized="0"
     inkscape:current-layer="svg291" />
  <!--Generated by the Batik Graphics2D SVG Generator-->
  <defs
     id="genericDefs">
    <defs
       id="defs1">
      <clipPath
         id="clipPath1"
         clipPathUnits="userSpaceOnUse">
        <path
           id="path3"
           d="M 0,0 H 560 V 420 H 0 Z"
           inkscape:connector-curvature="0" />
      </clipPath>
    </defs>
  </defs>
  <g
     id="g73"
     style="color-interpolation:linearRGB;fill:#262626;fill-opacity:0.14900004;stroke:#262626;stroke-width:0.66670001;stroke-linecap:butt;stroke-linejoin:round;stroke-opacity:0.14900004;color-rendering:optimizeQuality;image-rendering:optimizeQuality;text-rendering:geometricPrecision"
     transform="translate(-54.3073,-12.8281)">
    <line
       id="line17"
       y1="374"
       x2="73"
       x1="73"
       style="fill:none"
       y2="31" />
    <line
       id="line19"
       y1="374"
       x2="159.8"
       x1="159.8"
       style="fill:none"
       y2="31" />
    <line
       id="line21"
       y1="374"
       x2="246.60001"
       x1="246.60001"
       style="fill:none"
       y2="31" />
    <line
       id="line23"
       y1="374"
       x2="333.39999"
       x1="333.39999"
       style="fill:none"
       y2="31" />
    <line
       id="line25"
       y1="374"
       x2="420.20001"
       x1="420.20001"
       style="fill:none"
       y2="31" />
    <line
       id="line27"
       y1="374"
       x2="507"
       x1="507"
       style="fill:none"
       y2="31" />
    <line
       id="line29"
       y1="374"
       x2="73"
       x1="507"
       style="fill:none"
       y2="374" />
    <line
       id="line31"
       y1="325"
       x2="73"
       x1="507"
       style="fill:none"
       y2="325" />
    <line
       id="line33"
       y1="276"
       x2="73"
       x1="507"
       style="fill:none"
       y2="276" />
    <line
       id="line35"
       y1="227"
       x2="73"
       x1="507"
       style="fill:none"
       y2="227" />
    <line
       id="line37"
       y1="178"
       x2="73"
       x1="507"
       style="fill:none"
       y2="178" />
    <line
       id="line39"
       y1="129"
       x2="73"
       x1="507"
       style="fill:none"
       y2="129" />
    <line
       id="line41"
       y1="80"
       x2="73"
       x1="507"
       style="fill:none"
       y2="80" />
    <line
       id="line43"
       y1="31"
       x2="73"
       x1="507"
       style="fill:none"
       y2="31" />
    <line
       id="line45"
       y2="374"
       style="fill:none;fill-opacity:1;stroke-linecap:square;stroke-opacity:1"
       y1="374"
       x2="507"
       x1="73" />
    <line
       id="line47"
       y2="31"
       style="fill:none;fill-opacity:1;stroke-linecap:square;stroke-opacity:1"
       y1="31"
       x2="507"
       x1="73" />
    <line
       id="line49"
       y2="369.66"
       style="fill:none;fill-opacity:1;stroke-linecap:square;stroke-opacity:1"
       y1="374"
       x2="73"
       x1="73" />
    <line
       id="line51"
       y2="369.66"
       style="fill:none;fill-opacity:1;stroke-linecap:square;stroke-opacity:1"
       y1="374"
       x2="159.8"
       x1="159.8" />
    <line
       id="line53"
       y2="369.66"
       style="fill:none;fill-opacity:1;stroke-linecap:square;stroke-opacity:1"
       y1="374"
       x2="246.60001"
       x1="246.60001" />
    <line
       id="line55"
       y2="369.66"
       style="fill:none;fill-opacity:1;stroke-linecap:square;stroke-opacity:1"
       y1="374"
       x2="333.39999"
       x1="333.39999" />
    <line
       id="line57"
       y2="369.66"
       style="fill:none;fill-opacity:1;stroke-linecap:square;stroke-opacity:1"
       y1="374"
       x2="420.20001"
       x1="420.20001" />
    <line
       id="line59"
       y2="369.66"
       style="fill:none;fill-opacity:1;stroke-linecap:square;stroke-opacity:1"
       y1="374"
       x2="507"
       x1="507" />
    <line
       id="line61"
       y2="35.34"
       style="fill:none;fill-opacity:1;stroke-linecap:square;stroke-opacity:1"
       y1="31"
       x2="73"
       x1="73" />
    <line
       id="line63"
       y2="35.34"
       style="fill:none;fill-opacity:1;stroke-linecap:square;stroke-opacity:1"
       y1="31"
       x2="159.8"
       x1="159.8" />
    <line
       id="line65"
       y2="35.34"
       style="fill:none;fill-opacity:1;stroke-linecap:square;stroke-opacity:1"
       y1="31"
       x2="246.60001"
       x1="246.60001" />
    <line
       id="line67"
       y2="35.34"
       style="fill:none;fill-opacity:1;stroke-linecap:square;stroke-opacity:1"
       y1="31"
       x2="333.39999"
       x1="333.39999" />
    <line
       id="line69"
       y2="35.34"
       style="fill:none;fill-opacity:1;stroke-linecap:square;stroke-opacity:1"
       y1="31"
       x2="420.20001"
       x1="420.20001" />
    <line
       id="line71"
       y2="35.34"
       style="fill:none;fill-opacity:1;stroke-linecap:square;stroke-opacity:1"
       y1="31"
       x2="507"
       x1="507" />
  </g>
  <g
     id="g77"
     style="font-size:13.33329964px;font-family:SansSerif;color-interpolation:linearRGB;fill:#262626;stroke:#262626;color-rendering:optimizeQuality;image-rendering:optimizeQuality;text-rendering:geometricPrecision"
     transform="translate(18.6927,366.5052)">
    <path
       inkscape:connector-curvature="0"
       id="path75"
       d="m -0.375,4.3594 q -0.9844,0 -1.4844,0.9765 -0.5,0.9766 -0.5,2.9297 0,1.9532 0.5,2.9297 0.5,0.9766 1.4844,0.9766 1,0 1.5,-0.9766 0.5,-0.9765 0.5,-2.9297 0,-1.9531 -0.5,-2.9297 -0.5,-0.9765 -1.5,-0.9765 z m 0,-1.0156 q 1.5938,0 2.4375,1.2656 0.8437,1.2656 0.8437,3.6562 0,2.3906 -0.8437,3.6563 -0.8437,1.2656 -2.4375,1.2656 -1.5781,0 -2.4219,-1.2656 -0.8437,-1.2657 -0.8437,-3.6563 0,-2.3906 0.8437,-3.6562 0.8438,-1.2656 2.4219,-1.2656 z"
       style="stroke:none" />
  </g>
  <g
     id="g81"
     style="font-size:13.33329964px;font-family:SansSerif;color-interpolation:linearRGB;fill:#262626;stroke:#262626;color-rendering:optimizeQuality;image-rendering:optimizeQuality;text-rendering:geometricPrecision"
     transform="translate(105.4927,366.5052)">
    <path
       inkscape:connector-curvature="0"
       id="path79"
       d="m -11.3906,11.9219 h 2.0937 V 4.6875 l -2.2812,0.4531 V 3.9844 l 2.2656,-0.4688 h 1.2969 v 8.4063 h 2.0937 V 13 h -5.4687 z M -0.4052,4.3594 q -0.9844,0 -1.4844,0.9765 -0.5,0.9766 -0.5,2.9297 0,1.9532 0.5,2.9297 0.5,0.9766 1.4844,0.9766 1,0 1.5,-0.9766 0.5,-0.9765 0.5,-2.9297 0,-1.9531 -0.5,-2.9297 -0.5,-0.9765 -1.5,-0.9765 z m 0,-1.0156 q 1.5938,0 2.4375,1.2656 0.8438,1.2656 0.8438,3.6562 0,2.3906 -0.8438,3.6563 -0.8437,1.2656 -2.4375,1.2656 -1.5781,0 -2.4219,-1.2656 -0.8437,-1.2657 -0.8437,-3.6563 0,-2.3906 0.8437,-3.6562 0.8438,-1.2656 2.4219,-1.2656 z m 8.4698,1.0156 q -0.9843,0 -1.4843,0.9765 -0.5,0.9766 -0.5,2.9297 0,1.9532 0.5,2.9297 0.5,0.9766 1.4843,0.9766 1,0 1.5,-0.9766 0.5,-0.9765 0.5,-2.9297 0,-1.9531 -0.5,-2.9297 -0.5,-0.9765 -1.5,-0.9765 z m 0,-1.0156 q 1.5938,0 2.4375,1.2656 0.8438,1.2656 0.8438,3.6562 0,2.3906 -0.8438,3.6563 -0.8437,1.2656 -2.4375,1.2656 -1.5781,0 -2.4218,-1.2656 Q 4.799,10.6562 4.799,8.2656 4.799,5.875 5.6428,4.6094 6.4865,3.3438 8.0646,3.3438 Z"
       style="stroke:none" />
  </g>
  <g
     id="g85"
     style="font-size:13.33329964px;font-family:SansSerif;color-interpolation:linearRGB;fill:#262626;stroke:#262626;color-rendering:optimizeQuality;image-rendering:optimizeQuality;text-rendering:geometricPrecision"
     transform="translate(192.2927,366.5052)">
    <path
       inkscape:connector-curvature="0"
       id="path83"
       d="m -10.5,11.9219 h 4.4688 V 13 h -6.0157 v -1.0781 q 0.7344,-0.75 1.9922,-2.0235 Q -8.7969,8.625 -8.4688,8.25 -7.8594,7.5625 -7.6172,7.0781 -7.375,6.5938 -7.375,6.1406 q 0,-0.7656 -0.5234,-1.2344 -0.5235,-0.4687 -1.3828,-0.4687 -0.6094,0 -1.2735,0.2031 -0.6641,0.2032 -1.4297,0.6406 V 3.9844 q 0.7813,-0.3125 1.4532,-0.4766 0.6718,-0.164 1.2187,-0.164 1.4844,0 2.3594,0.7421 0.875,0.7422 0.875,1.9766 0,0.5781 -0.2188,1.1016 -0.2187,0.5234 -0.7969,1.2265 -0.1562,0.1875 -1.0078,1.0703 -0.8515,0.8829 -2.3984,2.461 z M -0.4052,4.3594 q -0.9844,0 -1.4844,0.9765 -0.5,0.9766 -0.5,2.9297 0,1.9532 0.5,2.9297 0.5,0.9766 1.4844,0.9766 1,0 1.5,-0.9766 0.5,-0.9765 0.5,-2.9297 0,-1.9531 -0.5,-2.9297 -0.5,-0.9765 -1.5,-0.9765 z m 0,-1.0156 q 1.5938,0 2.4375,1.2656 0.8438,1.2656 0.8438,3.6562 0,2.3906 -0.8438,3.6563 -0.8437,1.2656 -2.4375,1.2656 -1.5781,0 -2.4219,-1.2656 -0.8437,-1.2657 -0.8437,-3.6563 0,-2.3906 0.8437,-3.6562 0.8438,-1.2656 2.4219,-1.2656 z m 8.4698,1.0156 q -0.9843,0 -1.4843,0.9765 -0.5,0.9766 -0.5,2.9297 0,1.9532 0.5,2.9297 0.5,0.9766 1.4843,0.9766 1,0 1.5,-0.9766 0.5,-0.9765 0.5,-2.9297 0,-1.9531 -0.5,-2.9297 -0.5,-0.9765 -1.5,-0.9765 z m 0,-1.0156 q 1.5938,0 2.4375,1.2656 0.8438,1.2656 0.8438,3.6562 0,2.3906 -0.8438,3.6563 -0.8437,1.2656 -2.4375,1.2656 -1.5781,0 -2.4218,-1.2656 Q 4.799,10.6562 4.799,8.2656 4.799,5.875 5.6428,4.6094 6.4865,3.3438 8.0646,3.3438 Z"
       style="stroke:none" />
  </g>
  <g
     id="g89"
     style="font-size:13.33329964px;font-family:SansSerif;color-interpolation:linearRGB;fill:#262626;stroke:#262626;color-rendering:optimizeQuality;image-rendering:optimizeQuality;text-rendering:geometricPrecision"
     transform="translate(279.0927,366.5052)">
    <path
       inkscape:connector-curvature="0"
       id="path87"
       d="m -7.7188,7.8906 q 0.9219,0.2032 1.4376,0.8203 0.5156,0.6172 0.5156,1.5391 0,1.3906 -0.9688,2.1641 -0.9687,0.7734 -2.75,0.7734 -0.5937,0 -1.2265,-0.1172 -0.6329,-0.1172 -1.3047,-0.3515 v -1.25 q 0.5468,0.3124 1.1797,0.4765 0.6328,0.1641 1.3203,0.1641 1.2031,0 1.8359,-0.4766 0.6328,-0.4766 0.6328,-1.3828 0,-0.8438 -0.5859,-1.3125 -0.586,-0.4687 -1.6328,-0.4687 H -10.375 V 7.4062 h 1.1562 q 0.9532,0 1.4532,-0.375 0.5,-0.375 0.5,-1.0937 0,-0.7187 -0.5156,-1.1094 -0.5157,-0.3906 -1.4844,-0.3906 -0.5313,0 -1.1328,0.1094 Q -11,4.6562 -11.7188,4.9062 V 3.75 Q -11,3.5469 -10.3594,3.4453 q 0.6406,-0.1015 1.2032,-0.1015 1.4687,0 2.3203,0.664 0.8515,0.6641 0.8515,1.8047 0,0.7813 -0.4531,1.3281 -0.4531,0.5469 -1.2813,0.75 z m 7.3136,-3.5312 q -0.9844,0 -1.4844,0.9765 -0.5,0.9766 -0.5,2.9297 0,1.9532 0.5,2.9297 0.5,0.9766 1.4844,0.9766 1,0 1.5,-0.9766 0.5,-0.9765 0.5,-2.9297 0,-1.9531 -0.5,-2.9297 -0.5,-0.9765 -1.5,-0.9765 z m 0,-1.0156 q 1.5938,0 2.4375,1.2656 0.8438,1.2656 0.8438,3.6562 0,2.3906 -0.8438,3.6563 -0.8437,1.2656 -2.4375,1.2656 -1.5781,0 -2.4219,-1.2656 -0.8437,-1.2657 -0.8437,-3.6563 0,-2.3906 0.8437,-3.6562 0.8438,-1.2656 2.4219,-1.2656 z m 8.4698,1.0156 q -0.9843,0 -1.4843,0.9765 -0.5,0.9766 -0.5,2.9297 0,1.9532 0.5,2.9297 0.5,0.9766 1.4843,0.9766 1,0 1.5,-0.9766 0.5,-0.9765 0.5,-2.9297 0,-1.9531 -0.5,-2.9297 -0.5,-0.9765 -1.5,-0.9765 z m 0,-1.0156 q 1.5938,0 2.4375,1.2656 0.8438,1.2656 0.8438,3.6562 0,2.3906 -0.8438,3.6563 -0.8437,1.2656 -2.4375,1.2656 -1.5781,0 -2.4218,-1.2656 Q 4.799,10.6562 4.799,8.2656 4.799,5.875 5.6428,4.6094 6.4865,3.3438 8.0646,3.3438 Z"
       style="stroke:none" />
  </g>
  <g
     id="g93"
     style="font-size:13.33329964px;font-family:SansSerif;color-interpolation:linearRGB;fill:#262626;stroke:#262626;color-rendering:optimizeQuality;image-rendering:optimizeQuality;text-rendering:geometricPrecision"
     transform="translate(365.8927,366.5052)">
    <path
       inkscape:connector-curvature="0"
       id="path91"
       d="m -8.0938,4.6406 -3.2343,5.0625 h 3.2343 z m -0.3281,-1.125 h 1.6094 v 6.1875 h 1.3594 v 1.0625 H -6.8125 V 13 h -1.2813 v -2.2344 h -4.2656 V 9.5312 Z m 8.0167,0.8438 q -0.9844,0 -1.4844,0.9765 -0.5,0.9766 -0.5,2.9297 0,1.9532 0.5,2.9297 0.5,0.9766 1.4844,0.9766 1,0 1.5,-0.9766 0.5,-0.9765 0.5,-2.9297 0,-1.9531 -0.5,-2.9297 -0.5,-0.9765 -1.5,-0.9765 z m 0,-1.0156 q 1.5938,0 2.4375,1.2656 0.8438,1.2656 0.8438,3.6562 0,2.3906 -0.8438,3.6563 -0.8437,1.2656 -2.4375,1.2656 -1.5781,0 -2.4219,-1.2656 -0.8437,-1.2657 -0.8437,-3.6563 0,-2.3906 0.8437,-3.6562 0.8438,-1.2656 2.4219,-1.2656 z m 8.4698,1.0156 q -0.9843,0 -1.4843,0.9765 -0.5,0.9766 -0.5,2.9297 0,1.9532 0.5,2.9297 0.5,0.9766 1.4843,0.9766 1,0 1.5,-0.9766 0.5,-0.9765 0.5,-2.9297 0,-1.9531 -0.5,-2.9297 -0.5,-0.9765 -1.5,-0.9765 z m 0,-1.0156 q 1.5938,0 2.4375,1.2656 0.8438,1.2656 0.8438,3.6562 0,2.3906 -0.8438,3.6563 -0.8437,1.2656 -2.4375,1.2656 -1.5781,0 -2.4218,-1.2656 Q 4.799,10.6562 4.799,8.2656 4.799,5.875 5.6428,4.6094 6.4865,3.3438 8.0646,3.3438 Z"
       style="stroke:none" />
  </g>
  <g
     id="g97"
     style="font-size:13.33329964px;font-family:SansSerif;color-interpolation:linearRGB;fill:#262626;stroke:#262626;color-rendering:optimizeQuality;image-rendering:optimizeQuality;text-rendering:geometricPrecision"
     transform="translate(452.6927,366.5052)">
    <path
       inkscape:connector-curvature="0"
       id="path95"
       d="m -11.5938,3.5156 h 5.0313 v 1.0938 h -3.8594 v 2.3125 q 0.2813,-0.0938 0.5625,-0.1407 0.2813,-0.0468 0.5469,-0.0468 1.5937,0 2.5234,0.8672 0.9297,0.8672 0.9297,2.3515 0,1.5313 -0.9531,2.3828 -0.9531,0.8516 -2.6875,0.8516 -0.5938,0 -1.2188,-0.1016 -0.625,-0.1015 -1.2812,-0.3047 v -1.2968 q 0.5781,0.3125 1.1875,0.4687 0.6094,0.1563 1.2813,0.1563 1.1093,0 1.75,-0.5782 0.6406,-0.5781 0.6406,-1.5781 0,-0.9843 -0.6406,-1.5625 -0.6407,-0.5781 -1.75,-0.5781 -0.5157,0 -1.0235,0.1172 -0.5078,0.1172 -1.0391,0.3515 z m 11.1886,0.8438 q -0.9844,0 -1.4844,0.9765 -0.5,0.9766 -0.5,2.9297 0,1.9532 0.5,2.9297 0.5,0.9766 1.4844,0.9766 1,0 1.5,-0.9766 0.5,-0.9765 0.5,-2.9297 0,-1.9531 -0.5,-2.9297 -0.5,-0.9765 -1.5,-0.9765 z m 0,-1.0156 q 1.5938,0 2.4375,1.2656 0.8438,1.2656 0.8438,3.6562 0,2.3906 -0.8438,3.6563 -0.8437,1.2656 -2.4375,1.2656 -1.5781,0 -2.4219,-1.2656 -0.8437,-1.2657 -0.8437,-3.6563 0,-2.3906 0.8437,-3.6562 0.8438,-1.2656 2.4219,-1.2656 z m 8.4698,1.0156 q -0.9843,0 -1.4843,0.9765 -0.5,0.9766 -0.5,2.9297 0,1.9532 0.5,2.9297 0.5,0.9766 1.4843,0.9766 1,0 1.5,-0.9766 0.5,-0.9765 0.5,-2.9297 0,-1.9531 -0.5,-2.9297 -0.5,-0.9765 -1.5,-0.9765 z m 0,-1.0156 q 1.5938,0 2.4375,1.2656 0.8438,1.2656 0.8438,3.6562 0,2.3906 -0.8438,3.6563 -0.8437,1.2656 -2.4375,1.2656 -1.5781,0 -2.4218,-1.2656 Q 4.799,10.6562 4.799,8.2656 4.799,5.875 5.6428,4.6094 6.4865,3.3438 8.0646,3.3438 Z"
       style="stroke:none" />
  </g>
  <g
     id="g135"
     style="color-interpolation:linearRGB;fill:#262626;stroke:#262626;stroke-width:0.66670001;stroke-linejoin:round;color-rendering:optimizeQuality;image-rendering:optimizeQuality;text-rendering:geometricPrecision"
     transform="translate(-54.3073,-12.8281)">
    <line
       id="line99"
       y1="374"
       x2="73"
       x1="73"
       style="fill:none"
       y2="31" />
    <line
       id="line101"
       y1="374"
       x2="507"
       x1="507"
       style="fill:none"
       y2="31" />
    <line
       id="line103"
       y1="374"
       x2="77.339996"
       x1="73"
       style="fill:none"
       y2="374" />
    <line
       id="line105"
       y1="325"
       x2="77.339996"
       x1="73"
       style="fill:none"
       y2="325" />
    <line
       id="line107"
       y1="276"
       x2="77.339996"
       x1="73"
       style="fill:none"
       y2="276" />
    <line
       id="line109"
       y1="227"
       x2="77.339996"
       x1="73"
       style="fill:none"
       y2="227" />
    <line
       id="line111"
       y1="178"
       x2="77.339996"
       x1="73"
       style="fill:none"
       y2="178" />
    <line
       id="line113"
       y1="129"
       x2="77.339996"
       x1="73"
       style="fill:none"
       y2="129" />
    <line
       id="line115"
       y1="80"
       x2="77.339996"
       x1="73"
       style="fill:none"
       y2="80" />
    <line
       id="line117"
       y1="31"
       x2="77.339996"
       x1="73"
       style="fill:none"
       y2="31" />
    <line
       id="line119"
       y1="374"
       x2="502.66"
       x1="507"
       style="fill:none"
       y2="374" />
    <line
       id="line121"
       y1="325"
       x2="502.66"
       x1="507"
       style="fill:none"
       y2="325" />
    <line
       id="line123"
       y1="276"
       x2="502.66"
       x1="507"
       style="fill:none"
       y2="276" />
    <line
       id="line125"
       y1="227"
       x2="502.66"
       x1="507"
       style="fill:none"
       y2="227" />
    <line
       id="line127"
       y1="178"
       x2="502.66"
       x1="507"
       style="fill:none"
       y2="178" />
    <line
       id="line129"
       y1="129"
       x2="502.66"
       x1="507"
       style="fill:none"
       y2="129" />
    <line
       id="line131"
       y1="80"
       x2="502.66"
       x1="507"
       style="fill:none"
       y2="80" />
    <line
       id="line133"
       y1="31"
       x2="502.66"
       x1="507"
       style="fill:none"
       y2="31" />
  </g>
  <g
     id="g139"
     style="font-size:13.33329964px;font-family:SansSerif;color-interpolation:linearRGB;fill:#262626;stroke:#262626;color-rendering:optimizeQuality;image-rendering:optimizeQuality;text-rendering:geometricPrecision"
     transform="translate(13.3594,361.1719)">
    <path
       inkscape:connector-curvature="0"
       id="path137"
       d="m -13.3594,0.4219 h 3.4219 v 1.0312 h -3.4219 z m 9.0693,-4.2813 -3.2343,5.0625 h 3.2343 z m -0.3281,-1.125 h 1.6094 v 6.1875 h 1.3594 V 2.2656 H -3.0088 V 4.5 H -4.2901 V 2.2656 H -8.5557 V 1.0312 Z"
       style="stroke:none" />
  </g>
  <g
     id="g143"
     style="font-size:13.33329964px;font-family:SansSerif;color-interpolation:linearRGB;fill:#262626;stroke:#262626;color-rendering:optimizeQuality;image-rendering:optimizeQuality;text-rendering:geometricPrecision"
     transform="translate(13.3594,312.1719)">
    <path
       inkscape:connector-curvature="0"
       id="path141"
       d="m -13.3594,0.4219 h 3.4219 v 1.0312 h -3.4219 z m 9.4443,-1.0313 q 0.9219,0.2032 1.4375,0.8203 0.5157,0.6172 0.5157,1.5391 0,1.3906 -0.9688,2.1641 -0.9687,0.7734 -2.75,0.7734 -0.5937,0 -1.2266,-0.1172 -0.6328,-0.1172 -1.3046,-0.3515 v -1.25 q 0.5468,0.3124 1.1796,0.4765 0.6329,0.1641 1.3204,0.1641 1.2031,0 1.8359,-0.4766 0.6328,-0.4766 0.6328,-1.3828 0,-0.8438 -0.5859,-1.3125 -0.586,-0.4687 -1.6328,-0.4687 h -1.1094 v -1.0626 h 1.1562 q 0.9532,0 1.4532,-0.375 0.5,-0.375 0.5,-1.0937 0,-0.7187 -0.5157,-1.1094 -0.5156,-0.3906 -1.4843,-0.3906 -0.5313,0 -1.1329,0.1094 -0.6015,0.1093 -1.3203,0.3593 V -4.75 q 0.7188,-0.2031 1.3594,-0.3047 0.6406,-0.1015 1.2031,-0.1015 1.4688,0 2.3203,0.664 0.8516,0.6641 0.8516,1.8047 0,0.7813 -0.4531,1.3281 -0.4531,0.5469 -1.2813,0.75 z"
       style="stroke:none" />
  </g>
  <g
     id="g147"
     style="font-size:13.33329964px;font-family:SansSerif;color-interpolation:linearRGB;fill:#262626;stroke:#262626;color-rendering:optimizeQuality;image-rendering:optimizeQuality;text-rendering:geometricPrecision"
     transform="translate(13.3594,263.1719)">
    <path
       inkscape:connector-curvature="0"
       id="path145"
       d="m -13.3594,0.4219 h 3.4219 v 1.0312 h -3.4219 z m 6.6631,3 h 4.4687 V 4.5 H -8.2432 V 3.4219 q 0.7344,-0.75 1.9922,-2.0235 1.2578,-1.2734 1.5859,-1.6484 0.6094,-0.6875 0.8516,-1.1719 0.2422,-0.4843 0.2422,-0.9375 0,-0.7656 -0.5235,-1.2344 -0.5234,-0.4687 -1.3828,-0.4687 -0.6093,0 -1.2734,0.2031 -0.6641,0.2032 -1.4297,0.6406 v -1.2968 q 0.7813,-0.3125 1.4531,-0.4766 0.6719,-0.164 1.2188,-0.164 1.4844,0 2.3594,0.7421 0.875,0.7422 0.875,1.9766 0,0.5781 -0.2188,1.1016 -0.2187,0.5234 -0.7969,1.2265 -0.1562,0.1875 -1.0078,1.0703 -0.8515,0.8829 -2.3984,2.461 z"
       style="stroke:none" />
  </g>
  <g
     id="g151"
     style="font-size:13.33329964px;font-family:SansSerif;color-interpolation:linearRGB;fill:#262626;stroke:#262626;color-rendering:optimizeQuality;image-rendering:optimizeQuality;text-rendering:geometricPrecision"
     transform="translate(13.3594,214.1719)">
    <path
       inkscape:connector-curvature="0"
       id="path149"
       d="m -13.3594,0.4219 h 3.4219 v 1.0312 h -3.4219 z m 5.7725,3 h 2.0937 v -7.2344 l -2.2812,0.4531 v -1.1562 l 2.2656,-0.4688 h 1.2969 v 8.4063 h 2.0937 V 4.5 h -5.4687 z"
       style="stroke:none" />
  </g>
  <g
     id="g155"
     style="font-size:13.33329964px;font-family:SansSerif;color-interpolation:linearRGB;fill:#262626;stroke:#262626;color-rendering:optimizeQuality;image-rendering:optimizeQuality;text-rendering:geometricPrecision"
     transform="translate(13.3594,165.1719)">
    <path
       inkscape:connector-curvature="0"
       id="path153"
       d="m -4.875,-4.1406 q -0.9844,0 -1.4844,0.9765 -0.5,0.9766 -0.5,2.9297 0,1.9532 0.5,2.9297 0.5,0.9766 1.4844,0.9766 1,0 1.5,-0.9766 0.5,-0.9765 0.5,-2.9297 0,-1.9531 -0.5,-2.9297 -0.5,-0.9765 -1.5,-0.9765 z m 0,-1.0156 q 1.5938,0 2.4375,1.2656 0.8437,1.2656 0.8437,3.6562 0,2.3906 -0.8437,3.6563 -0.8437,1.2656 -2.4375,1.2656 -1.5781,0 -2.4219,-1.2656 -0.8437,-1.2657 -0.8437,-3.6563 0,-2.3906 0.8437,-3.6562 0.8438,-1.2656 2.4219,-1.2656 z"
       style="stroke:none" />
  </g>
  <g
     id="g159"
     style="font-size:13.33329964px;font-family:SansSerif;color-interpolation:linearRGB;fill:#262626;stroke:#262626;color-rendering:optimizeQuality;image-rendering:optimizeQuality;text-rendering:geometricPrecision"
     transform="translate(13.3594,116.1719)">
    <path
       inkscape:connector-curvature="0"
       id="path157"
       d="m -7.3906,3.4219 h 2.0937 v -7.2344 l -2.2812,0.4531 v -1.1562 l 2.2656,-0.4688 h 1.2969 v 8.4063 h 2.0937 V 4.5 h -5.4687 z"
       style="stroke:none" />
  </g>
  <g
     id="g163"
     style="font-size:13.33329964px;font-family:SansSerif;color-interpolation:linearRGB;fill:#262626;stroke:#262626;color-rendering:optimizeQuality;image-rendering:optimizeQuality;text-rendering:geometricPrecision"
     transform="translate(13.3594,67.1719)">
    <path
       inkscape:connector-curvature="0"
       id="path161"
       d="m -6.5,3.4219 h 4.4688 V 4.5 H -8.0469 V 3.4219 q 0.7344,-0.75 1.9922,-2.0235 1.2578,-1.2734 1.5859,-1.6484 0.6094,-0.6875 0.8516,-1.1719 0.2422,-0.4843 0.2422,-0.9375 0,-0.7656 -0.5234,-1.2344 -0.5235,-0.4687 -1.3828,-0.4687 -0.6094,0 -1.2735,0.2031 -0.6641,0.2032 -1.4297,0.6406 v -1.2968 q 0.7813,-0.3125 1.4532,-0.4766 0.6718,-0.164 1.2187,-0.164 1.4844,0 2.3594,0.7421 0.875,0.7422 0.875,1.9766 0,0.5781 -0.2188,1.1016 -0.2187,0.5234 -0.7969,1.2265 Q -3.25,0.0781 -4.1016,0.9609 -4.9531,1.8438 -6.5,3.4219 Z"
       style="stroke:none" />
  </g>
  <g
     id="g167"
     style="font-size:13.33329964px;font-family:SansSerif;color-interpolation:linearRGB;fill:#262626;stroke:#262626;color-rendering:optimizeQuality;image-rendering:optimizeQuality;text-rendering:geometricPrecision"
     transform="translate(13.3594,18.1719)">
    <path
       inkscape:connector-curvature="0"
       id="path165"
       d="m -3.7188,-0.6094 q 0.9219,0.2032 1.4376,0.8203 0.5156,0.6172 0.5156,1.5391 0,1.3906 -0.9688,2.1641 -0.9687,0.7734 -2.75,0.7734 -0.5937,0 -1.2265,-0.1172 -0.6329,-0.1172 -1.3047,-0.3515 v -1.25 q 0.5468,0.3124 1.1797,0.4765 0.6328,0.1641 1.3203,0.1641 1.2031,0 1.8359,-0.4766 0.6328,-0.4766 0.6328,-1.3828 0,-0.8438 -0.5859,-1.3125 -0.586,-0.4687 -1.6328,-0.4687 H -6.375 v -1.0626 h 1.1562 q 0.9532,0 1.4532,-0.375 0.5,-0.375 0.5,-1.0937 0,-0.7187 -0.5156,-1.1094 -0.5157,-0.3906 -1.4844,-0.3906 -0.5313,0 -1.1328,0.1094 Q -7,-3.8438 -7.7188,-3.5938 V -4.75 Q -7,-4.9531 -6.3594,-5.0547 q 0.6406,-0.1015 1.2032,-0.1015 1.4687,0 2.3203,0.664 0.8515,0.6641 0.8515,1.8047 0,0.7813 -0.4531,1.3281 -0.4531,0.5469 -1.2813,0.75 z"
       style="stroke:none" />
  </g>
  <g
     id="g171"
     style="font-size:13.33329964px;font-family:mwb_cmsy10;color-interpolation:linearRGB;fill:#262626;stroke:#262626;color-rendering:optimizeQuality;image-rendering:optimizeQuality;text-rendering:geometricPrecision"
     transform="translate(18.6927,14.1719)">
    <path
       inkscape:connector-curvature="0"
       id="path169"
       d="m 1.9062,-0.375 q 0,-0.0938 0.0626,-0.1875 L 4.6719,-3.25 1.9688,-5.9531 Q 1.9062,-6.0156 1.9062,-6.125 q 0,-0.0938 0.0782,-0.1797 0.0781,-0.0859 0.1875,-0.0859 0.0937,0 0.2031,0.0937 l 2.6875,2.6875 2.6719,-2.6875 q 0.1094,-0.0937 0.1875,-0.0937 0.1093,0 0.1875,0.0781 0.0781,0.0781 0.0781,0.1875 0,0.1094 -0.0625,0.1719 L 5.4219,-3.25 8.125,-0.5625 q 0.0625,0.0937 0.0625,0.1875 0,0.1094 -0.0781,0.1875 -0.0782,0.0781 -0.1875,0.0781 -0.0938,0 -0.1875,-0.0937 L 5.0625,-2.8906 2.375,-0.2031 q -0.1094,0.0937 -0.2031,0.0937 -0.1094,0 -0.1875,-0.0859 Q 1.9062,-0.2812 1.9062,-0.375 Z"
       style="stroke:none" />
  </g>
  <g
     id="g175"
     style="font-size:13.33329964px;font-family:SansSerif;color-interpolation:linearRGB;fill:#262626;stroke:#262626;color-rendering:optimizeQuality;image-rendering:optimizeQuality;text-rendering:geometricPrecision"
     transform="translate(29.6927,14.1719)">
    <path
       inkscape:connector-curvature="0"
       id="path173"
       d="m 1.6094,-1.0781 h 2.0937 v -7.2344 l -2.2812,0.4531 v -1.1562 l 2.2656,-0.4688 h 1.2969 v 8.4063 H 7.0781 V 0 H 1.6094 Z m 10.9854,-7.5625 q -0.9844,0 -1.4844,0.9765 -0.5,0.9766 -0.5,2.9297 0,1.9532 0.5,2.9297 0.5,0.9766 1.4844,0.9766 1,0 1.5,-0.9766 0.5,-0.9765 0.5,-2.9297 0,-1.9531 -0.5,-2.9297 -0.5,-0.9765 -1.5,-0.9765 z m 0,-1.0156 q 1.5938,0 2.4375,1.2656 0.8438,1.2656 0.8438,3.6562 0,2.3906 -0.8438,3.6563 -0.8437,1.2656 -2.4375,1.2656 -1.5781,0 -2.4219,-1.2656 -0.8437,-1.2657 -0.8437,-3.6563 0,-2.3906 0.8437,-3.6562 0.8438,-1.2656 2.4219,-1.2656 z"
       style="stroke:none" />
  </g>
  <g
     id="g179"
     style="font-size:10.66670036px;font-family:SansSerif;color-interpolation:linearRGB;fill:#262626;stroke:#262626;color-rendering:optimizeQuality;image-rendering:optimizeQuality;text-rendering:geometricPrecision"
     transform="translate(46.6927,8.1719)">
    <path
       inkscape:connector-curvature="0"
       id="path177"
       d="m 0.5312,-3.4531 h 2.9063 v 0.875 H 0.5312 Z m 7.7827,-0.875 q 0.7813,0.1719 1.2188,0.6953 0.4375,0.5234 0.4375,1.3047 0,1.1875 -0.8203,1.8359 -0.8203,0.6484 -2.3203,0.6484 -0.5157,0 -1.0469,-0.1015 -0.5313,-0.1016 -1.0938,-0.2891 v -1.0625 q 0.4532,0.2657 0.9844,0.4063 0.5313,0.1406 1.125,0.1406 1.0156,0 1.5469,-0.4062 0.5312,-0.4063 0.5312,-1.1719 0,-0.7188 -0.4921,-1.1172 Q 7.8921,-3.8438 7.0014,-3.8438 H 6.0639 v -0.8906 h 0.9844 q 0.7969,0 1.2188,-0.3203 0.4218,-0.3203 0.4218,-0.9141 0,-0.625 -0.4375,-0.9531 -0.4375,-0.3281 -1.25,-0.3281 -0.4375,0 -0.9531,0.0938 -0.5156,0.0937 -1.125,0.2968 V -7.8281 Q 5.5483,-8 6.0874,-8.0859 q 0.539,-0.086 1.0078,-0.086 1.2344,0 1.9609,0.5625 0.7266,0.5625 0.7266,1.5313 0,0.6562 -0.3828,1.1172 -0.3828,0.4609 -1.086,0.6328 z"
       style="stroke:none" />
  </g>
  <g
     id="g183"
     style="font-weight:bold;font-size:14.66670036px;font-family:SansSerif;color-interpolation:linearRGB;color-rendering:optimizeQuality;image-rendering:optimizeQuality;text-rendering:geometricPrecision"
     transform="translate(235.693,15.4219)">
    <path
       inkscape:connector-curvature="0"
       id="path181"
       d="m -114.5156,-14.5938 v 2.3126 q -0.8906,-0.3907 -1.75,-0.6016 -0.8594,-0.211 -1.625,-0.211 -1.0156,0 -1.4922,0.2813 -0.4766,0.2813 -0.4766,0.8594 0,0.4531 0.3203,0.6953 0.3203,0.2422 1.1797,0.414 l 1.2032,0.25 q 1.8281,0.3594 2.5937,1.1094 0.7656,0.75 0.7656,2.125 0,1.8125 -1.0703,2.6953 -1.0703,0.8829 -3.2734,0.8829 -1.0469,0 -2.0938,-0.2032 -1.0468,-0.2031 -2.0937,-0.5937 v -2.375 q 1.0469,0.5625 2.0234,0.8437 0.9766,0.2813 1.8828,0.2813 0.9219,0 1.4141,-0.3125 0.4922,-0.3125 0.4922,-0.875 0,-0.5156 -0.3282,-0.7969 -0.3281,-0.2813 -1.3281,-0.5 l -1.0937,-0.2344 q -1.6406,-0.3593 -2.3985,-1.125 -0.7578,-0.7656 -0.7578,-2.0625 0,-1.6406 1.0547,-2.5234 1.0547,-0.8828 3.0234,-0.8828 0.9063,0 1.8594,0.1406 0.9532,0.1406 1.9688,0.4062 z m 11.0244,6.4688 v 0.75 h -6.1407 q 0.0938,0.9219 0.6719,1.3828 0.5781,0.461 1.5938,0.461 0.8281,0 1.6953,-0.2422 0.8672,-0.2422 1.789,-0.7422 V -4.5 q -0.9375,0.3594 -1.8671,0.5391 -0.9297,0.1797 -1.8516,0.1797 -2.2344,0 -3.4688,-1.1329 -1.2343,-1.1328 -1.2343,-3.1797 0,-2 1.2109,-3.1562 1.2109,-1.1562 3.3359,-1.1562 1.9375,0 3.1016,1.164 1.1641,1.1641 1.1641,3.1172 z M -106.1944,-9 q 0,-0.75 -0.4375,-1.2031 -0.4375,-0.4531 -1.1406,-0.4531 -0.75,0 -1.2265,0.4296 -0.4766,0.4297 -0.6016,1.2266 z m 11.0809,-2.9531 v 2.1406 q -0.5313,-0.3594 -1.0703,-0.5391 -0.5391,-0.1796 -1.1172,-0.1796 -1.1094,0 -1.7188,0.6406 -0.6094,0.6406 -0.6094,1.7968 0,1.1563 0.6094,1.7969 0.6094,0.6407 1.7188,0.6407 0.6093,0 1.164,-0.1876 0.5547,-0.1874 1.0235,-0.5468 v 2.1562 q -0.625,0.2188 -1.2578,0.336 -0.6329,0.1172 -1.2579,0.1172 -2.2187,0 -3.4765,-1.1407 -1.2578,-1.1406 -1.2578,-3.1719 0,-2.0312 1.2578,-3.1718 1.2578,-1.1406 3.4765,-1.1406 0.6407,0 1.2657,0.1171 0.625,0.1172 1.25,0.336 z m 5.9534,1.4219 q -0.8593,0 -1.3203,0.625 -0.4609,0.625 -0.4609,1.8124 0,1.1719 0.4609,1.8047 0.461,0.6329 1.3203,0.6329 0.8594,0 1.3125,-0.6329 0.4532,-0.6328 0.4532,-1.8047 0,-1.1874 -0.4532,-1.8124 -0.4531,-0.625 -1.3125,-0.625 z m 0,-1.875 q 2.125,0 3.3125,1.1484 1.1875,1.1484 1.1875,3.164 0,2.0157 -1.1875,3.1641 -1.1875,1.1485 -3.3125,1.1485 -2.1093,0 -3.3125,-1.1485 -1.2031,-1.1484 -1.2031,-3.1641 0,-2.0156 1.2031,-3.164 1.2032,-1.1484 3.3125,-1.1484 z M -74.7473,-9 v 5 h -2.625 v -0.8125 -3.0156 q 0,-1.0625 -0.0469,-1.461 -0.0468,-0.3984 -0.1718,-0.5859 -0.1563,-0.2656 -0.4141,-0.4062 -0.2578,-0.1407 -0.6016,-0.1407 -0.8281,0 -1.2968,0.6328 -0.4688,0.6329 -0.4688,1.7579 V -4 h -2.6094 v -8.2031 h 2.6094 V -11 q 0.5938,-0.7188 1.2656,-1.0625 0.6719,-0.3437 1.4688,-0.3437 1.4219,0 2.1562,0.875 0.7344,0.875 0.7344,2.5312 z m 7.7777,-2 v -4.3906 h 2.6407 V -4 h -2.6407 v -1.1875 q -0.5468,0.7187 -1.1953,1.0625 -0.6484,0.3438 -1.5078,0.3438 -1.5156,0 -2.4922,-1.211 -0.9765,-1.2109 -0.9765,-3.1016 0,-1.8906 0.9765,-3.1015 0.9766,-1.2109 2.4922,-1.2109 0.8438,0 1.5,0.3437 0.6563,0.3437 1.2031,1.0625 z m -1.7343,5.3125 q 0.8437,0 1.289,-0.6172 0.4453,-0.6172 0.4453,-1.7891 0,-1.1718 -0.4453,-1.789 -0.4453,-0.6172 -1.289,-0.6172 -0.8282,0 -1.2735,0.6172 -0.4453,0.6172 -0.4453,1.789 0,1.1719 0.4453,1.7891 0.4453,0.6172 1.2735,0.6172 z m 15.6406,-4.8437 q -0.8594,0 -1.3203,0.625 -0.461,0.625 -0.461,1.8124 0,1.1719 0.461,1.8047 0.4609,0.6329 1.3203,0.6329 0.8594,0 1.3125,-0.6329 0.4531,-0.6328 0.4531,-1.8047 0,-1.1874 -0.4531,-1.8124 -0.4531,-0.625 -1.3125,-0.625 z m 0,-1.875 q 2.125,0 3.3125,1.1484 1.1875,1.1484 1.1875,3.164 0,2.0157 -1.1875,3.1641 -1.1875,1.1485 -3.3125,1.1485 -2.1094,0 -3.3125,-1.1485 -1.2031,-1.1484 -1.2031,-3.1641 0,-2.0156 1.2031,-3.164 1.2031,-1.1484 3.3125,-1.1484 z m 12.2721,2.4374 q -0.3437,-0.1562 -0.6875,-0.2343 -0.3437,-0.0781 -0.6875,-0.0781 -1.0156,0 -1.5625,0.6484 -0.5469,0.6484 -0.5469,1.8516 V -4 h -2.6093 v -8.2031 h 2.6093 v 1.3437 q 0.5157,-0.7968 1.1719,-1.1718 0.6563,-0.375 1.5625,-0.375 0.1406,0 0.2891,0.0156 0.1484,0.0156 0.4453,0.0468 z M -34.0789,-11 v -4.3906 h 2.6407 V -4 h -2.6407 v -1.1875 q -0.5468,0.7187 -1.1953,1.0625 -0.6484,0.3438 -1.5078,0.3438 -1.5156,0 -2.4922,-1.211 -0.9765,-1.2109 -0.9765,-3.1016 0,-1.8906 0.9765,-3.1015 0.9766,-1.2109 2.4922,-1.2109 0.8438,0 1.5,0.3437 0.6563,0.3437 1.2031,1.0625 z m -1.7343,5.3125 q 0.8437,0 1.289,-0.6172 0.4453,-0.6172 0.4453,-1.7891 0,-1.1718 -0.4453,-1.789 -0.4453,-0.6172 -1.289,-0.6172 -0.8282,0 -1.2735,0.6172 -0.4453,0.6172 -0.4453,1.789 0,1.1719 0.4453,1.7891 0.4453,0.6172 1.2735,0.6172 z m 14.8349,-2.4375 v 0.75 h -6.1406 q 0.0938,0.9219 0.6719,1.3828 0.5781,0.461 1.5937,0.461 0.8282,0 1.6954,-0.2422 0.8671,-0.2422 1.789,-0.7422 V -4.5 q -0.9375,0.3594 -1.8672,0.5391 -0.9297,0.1797 -1.8515,0.1797 -2.2344,0 -3.4688,-1.1329 -1.2344,-1.1328 -1.2344,-3.1797 0,-2 1.211,-3.1562 1.2109,-1.1562 3.3359,-1.1562 1.9375,0 3.1016,1.164 1.164,1.1641 1.164,3.1172 z M -23.6814,-9 q 0,-0.75 -0.4375,-1.2031 -0.4375,-0.4531 -1.1406,-0.4531 -0.75,0 -1.2266,0.4296 -0.4765,0.4297 -0.6015,1.2266 z m 10.5496,-0.9688 q -0.3438,-0.1562 -0.6875,-0.2343 -0.3438,-0.0781 -0.6875,-0.0781 -1.0156,0 -1.5625,0.6484 -0.5469,0.6484 -0.5469,1.8516 V -4 h -2.6094 v -8.2031 h 2.6094 v 1.3437 q 0.5156,-0.7968 1.1719,-1.1718 0.6562,-0.375 1.5625,-0.375 0.1406,0 0.2891,0.0156 0.1484,0.0156 0.4453,0.0468 z m 13.8304,-0.875 q 0.5,-0.7656 1.1875,-1.164 0.6875,-0.3984 1.5,-0.3984 1.4219,0 2.1563,0.875 0.7343,0.875 0.7343,2.5312 v 5 h -2.625 v -4.2812 q 0,-0.0938 0.0079,-0.1954 0.0078,-0.1015 0.0078,-0.289 0,-0.875 -0.2578,-1.2656 -0.2579,-0.3907 -0.836,-0.3907 -0.75,0 -1.1562,0.6172 -0.4063,0.6172 -0.4219,1.7735 V -4 h -2.625 v -4.2812 q 0,-1.3594 -0.2344,-1.75 -0.2344,-0.3907 -0.8437,-0.3907 -0.75,0 -1.1641,0.6172 -0.4141,0.6172 -0.4141,1.7735 V -4 h -2.625 v -8.2031 h 2.625 V -11 q 0.4844,-0.7031 1.1172,-1.0547 0.6328,-0.3515 1.3828,-0.3515 0.8438,0 1.5,0.414 0.6563,0.4141 0.9844,1.1484 z m 11.5686,0.3126 q -0.8594,0 -1.3203,0.625 -0.461,0.625 -0.461,1.8124 0,1.1719 0.461,1.8047 0.4609,0.6329 1.3203,0.6329 0.8594,0 1.3125,-0.6329 0.4531,-0.6328 0.4531,-1.8047 0,-1.1874 -0.4531,-1.8124 -0.4531,-0.625 -1.3125,-0.625 z m 0,-1.875 q 2.125,0 3.3125,1.1484 1.1875,1.1484 1.1875,3.164 0,2.0157 -1.1875,3.1641 -1.1875,1.1485 -3.3125,1.1485 -2.1094,0 -3.3125,-1.1485 -1.2031,-1.1484 -1.2031,-3.1641 0,-2.0156 1.2031,-3.164 1.2031,-1.1484 3.3125,-1.1484 z M 24.0237,-11 v -4.3906 h 2.6406 V -4 h -2.6406 v -1.1875 q -0.5469,0.7187 -1.1953,1.0625 -0.6484,0.3438 -1.5078,0.3438 -1.5156,0 -2.4922,-1.211 -0.9766,-1.2109 -0.9766,-3.1016 0,-1.8906 0.9766,-3.1015 0.9766,-1.2109 2.4922,-1.2109 0.8437,0 1.5,0.3437 0.6562,0.3437 1.2031,1.0625 z m -1.7344,5.3125 q 0.8438,0 1.2891,-0.6172 0.4453,-0.6172 0.4453,-1.7891 0,-1.1718 -0.4453,-1.789 -0.4453,-0.6172 -1.2891,-0.6172 -0.8281,0 -1.2734,0.6172 -0.4453,0.6172 -0.4453,1.789 0,1.1719 0.4453,1.7891 0.4453,0.6172 1.2734,0.6172 z m 14.835,-2.4375 v 0.75 h -6.1406 q 0.0938,0.9219 0.6719,1.3828 0.5781,0.461 1.5937,0.461 0.8282,0 1.6953,-0.2422 0.8672,-0.2422 1.7891,-0.7422 V -4.5 q -0.9375,0.3594 -1.8672,0.5391 -0.9297,0.1797 -1.8515,0.1797 -2.2344,0 -3.4688,-1.1329 -1.2344,-1.1328 -1.2344,-3.1797 0,-2 1.211,-3.1562 1.2109,-1.1562 3.3359,-1.1562 1.9375,0 3.1016,1.164 1.164,1.1641 1.164,3.1172 z M 34.4212,-9 q 0,-0.75 -0.4375,-1.2031 -0.4375,-0.4531 -1.1406,-0.4531 -0.75,0 -1.2266,0.4296 Q 31.14,-9.7969 31.015,-9 Z m 4.4558,-6.3906 h 2.6094 V -4 H 38.877 Z m 9.3919,3.1875 h 2.5469 l 1.375,5.6562 1.3906,-5.6562 h 2.1875 l 1.375,5.5937 1.375,-5.5937 h 2.5625 L 58.9095,-4 H 56.0502 L 54.6595,-9.6406 53.2845,-4 h -2.8593 z m 14.2743,0 h 2.6093 V -4 h -2.6093 z m 0,-3.1875 h 2.6093 v 2.125 h -2.6093 z m 7.8831,0.8594 v 2.3281 h 2.7031 v 1.875 h -2.7031 v 3.4843 q 0,0.5626 0.2266,0.7657 0.2265,0.2031 0.8984,0.2031 h 1.3438 V -4 h -2.25 q -1.5469,0 -2.1954,-0.6484 -0.6484,-0.6485 -0.6484,-2.1954 v -3.4843 h -1.2969 v -1.875 h 1.2969 v -2.3281 z M 82.8074,-9 v 5 h -2.625 v -0.8125 -3 q 0,-1.0781 -0.0469,-1.4766 -0.0469,-0.3984 -0.1719,-0.5859 -0.1562,-0.2656 -0.414,-0.4062 -0.2578,-0.1407 -0.6016,-0.1407 -0.8281,0 -1.2969,0.6328 -0.4687,0.6329 -0.4687,1.7579 V -4 H 74.573 v -11.3906 h 2.6094 V -11 q 0.5937,-0.7188 1.2656,-1.0625 0.6719,-0.3437 1.4688,-0.3437 1.4218,0 2.1562,0.875 0.7344,0.875 0.7344,2.5312 z m 7.3021,-6.3906 h 2.6094 V -4 h -2.6094 z m 11.43,3.4375 v 2 q -0.8437,-0.3594 -1.625,-0.5313 -0.7812,-0.1718 -1.4844,-0.1718 -0.75,0 -1.1093,0.1874 -0.3594,0.1876 -0.3594,0.5782 0,0.3125 0.2734,0.4765 0.2735,0.1641 0.9766,0.2579 l 0.4687,0.0624 q 2.0157,0.25 2.711,0.836 0.6953,0.5859 0.6953,1.8359 0,1.3125 -0.9688,1.9766 -0.9687,0.6641 -2.8906,0.6641 -0.8125,0 -1.6797,-0.1329 -0.8672,-0.1328 -1.7734,-0.3828 v -2 q 0.7812,0.3907 1.6016,0.5781 0.8203,0.1876 1.6796,0.1876 0.7657,0 1.1563,-0.211 0.3906,-0.2109 0.3906,-0.6328 0,-0.3438 -0.2734,-0.5156 -0.2735,-0.1719 -1.0703,-0.2813 l -0.4532,-0.0469 q -1.75,-0.2187 -2.4531,-0.8124 -0.7031,-0.5938 -0.7031,-1.8126 0,-1.2968 0.8906,-1.9296 0.8906,-0.6328 2.7344,-0.6328 0.7344,0 1.5312,0.1093 0.7969,0.1094 1.7344,0.3438 z m 2.3174,-0.25 h 2.6094 V -4 h -2.6094 z m 0,-3.1875 h 2.6094 v 2.125 h -2.6094 z m 12.6175,4.5468 q 0.5,-0.7656 1.1875,-1.164 0.6875,-0.3984 1.5,-0.3984 1.4219,0 2.1563,0.875 0.7343,0.875 0.7343,2.5312 v 5 h -2.625 v -4.2812 q 0,-0.0938 0.008,-0.1954 0.008,-0.1015 0.008,-0.289 0,-0.875 -0.2579,-1.2656 -0.2578,-0.3907 -0.8359,-0.3907 -0.75,0 -1.1562,0.6172 -0.4063,0.6172 -0.4219,1.7735 V -4 h -2.625 v -4.2812 q 0,-1.3594 -0.2344,-1.75 -0.2344,-0.3907 -0.8437,-0.3907 -0.75,0 -1.1641,0.6172 -0.4141,0.6172 -0.4141,1.7735 V -4 h -2.625 v -8.2031 h 2.625 V -11 q 0.4844,-0.7031 1.1172,-1.0547 0.6328,-0.3515 1.3828,-0.3515 0.8438,0 1.5,0.414 0.6563,0.4141 0.9844,1.1484 z"
       style="stroke:none" />
  </g>
  <g
     id="g189"
     style="color-interpolation:linearRGB;fill:#ff0000;stroke:#ff0000;stroke-width:0.66670001;stroke-linecap:butt;color-rendering:optimizeQuality;image-rendering:optimizeQuality;text-rendering:geometricPrecision"
     transform="translate(-54.3073,-12.8281)">
    <path
       inkscape:connector-curvature="0"
       id="path185"
       style="fill:none;fill-rule:evenodd"
       d="m 73.868,158.9545 h 0.868 v 16.6946 h 0.868 v 13.2879 h 0.868 v 3.1636 h 0.868 v -6.8155 h 0.868 v -8.187 h 0.868 v -8.0909 h 0.868 v -6.9015 h 0.868 v 4.023 h 0.868 v -7.6796 h 0.868 v 0.9487 h 0.868 v -1.6758 h 0.868 v -15.6759 h 0.868 v -7.2945 h 0.868 v -10.2885 h 0.868 v 7.1155 h 0.868 v 7.6394 h 0.868 v -22.9802 h 0.868 v -11.2586 h 0.868 v 9.0042 h 0.868 v -0.8959 h 0.868 v 4.9375 h 0.868 v 16.0008 h 0.868 v 17.4919 H 94.7 v 25.892 h 0.868 v 21.5161 h 0.868 v 10.1049 h 0.868 v 10.6973 h 0.868 v 21.5424 h 0.868 v 5.9427 h 0.868 v 12.2331 h 0.868 v -1.5501 h 0.868 v -7.7768 h 0.868 v -17.3788 h 0.868 v -16.813 h 0.868 v -16.5404 h 0.868 v -31.6088 h 0.868 v -25.9178 h 0.868 v -0.5561 h 0.868 v -5.7092 h 0.868 v 18.9463 h 0.868 v 17.9403 h 0.868 v 6.4656 h 0.868 v 31.4228 h 0.868 v 18.0848 h 0.868 v 30.9859 h 0.868 v -1.4921 h 0.868 v -22.4114 h 0.868 v -14.3019 h 0.868 v -19.6334 h 0.868 v -8.68 h 0.868 v -14.2284 h 0.868 v 6.5445 h 0.868 v -20.6773 h 0.868 v -19.0494 h 0.868 v -24.0533 h 0.868 v -15.7664 h 0.868 V 88.7079 h 0.868 v -0.4072 h 0.868 v 34.9988 h 0.868 v -3.629 h 0.868 v 33.8974 h 0.868 v 8.7867 h 0.868 v 27.1152 h 0.868 v 30.3858 h 0.868 v 17.5697 h 0.868 v -15.3372 h 0.868 v -1.1573 h 0.868 v 3.4051 h 0.868 v -12.7502 h 0.868 v -12.0198 h 0.868 V 189.543 h 0.868 v -9.7203 h 0.868 v 3.7756 h 0.868 v -5.506 h 0.868 v -2.3258 h 0.868 v -13.8836 h 0.868 v 10.5914 h 0.868 v 2.2881 h 0.868 v 0.0333 h 0.868 v -3.0118 h 0.868 v 19.0146 h 0.868 v -3.5765 h 0.868 v 10.9722 h 0.868 V 161.377 h 0.868 v -20.0577 h 0.868 V 118.424 h 0.868 V 99.5982 h 0.868 v 0.0368 h 0.868 v 11.3597 h 0.868 v 9.2415 h 0.868 v 4.6236 h 0.868 v 26.2618 h 0.868 v 26.4028 h 0.868 v 26.345 h 0.868 v 30.2042 h 0.868 v -14.4679 h 0.868 v 6.9878 h 0.868 v -8.3592 h 0.868 v -10.4377 h 0.868 v -14.7409 h 0.868 v -21.1816 h 0.868 v -25.761 h 0.868 v -23.0462 h 0.868 v -12.9277 h 0.868 v 6.9726 h 0.868 v -0.0133 h 0.868 v 8.7425 h 0.868 v 1.2726 h 0.868 v 20.5279 h 0.868 v 22.9457 h 0.868 v 0.9623 h 0.868 v -2.012 h 0.868 v 3.7435 h 0.868 v 0.5595 h 0.868 v 15.9252 h 0.868 v 8.7432 h 0.868 v -8.1482 h 0.868 v 2.6517 h 0.868 v -9.2016 h 0.868 v 11.6754 h 0.868 v 14.1498 h 0.868 v 13.1331 h 0.868 v -5.188 h 0.868 v 11.7846 h 0.868 v -11.5334 h 0.868 v -2.5285 h 0.868 v -8.9891 h 0.868 v -24.9473 h 0.868 V 147.814 h 0.868 v -4.1381 h 0.868 v 5.9278 h 0.868 v 14.5817 h 0.868 v 21.0232 h 0.868 v 19.7166 h 0.868 v -4.0716 h 0.868 v 4.9086 h 0.868 v -10.0599 h 0.868 V 169.034 h 0.868 v -23.7324 h 0.868 v -10.8404 h 0.868 v -2.4827 h 0.868 v 0.3529 h 0.868 v 0.3089 h 0.868 v 12.3515 h 0.868 v 10.7071 h 0.868 v 0.3075 h 0.868 v 21.689 h 0.868 v 11.9455 h 0.868 v -0.5372 h 0.868 v -8.1044 h 0.868 v -31.9855 h 0.868 v -11.7466 h 0.868 v -16.476 h 0.868 V 96.2817 h 0.868 V 75.4659 h 0.868 v -9.3395 h 0.868 v 7.2523 h 0.868 v 3.2077 h 0.868 v 27.9212 h 0.868 v 41.2267 h 0.868 v 47.3659 h 0.868 v 41.9402 h 0.868 v 33.3229 h 0.868 v 22.4026 h 0.868 v 13.3281 h 0.868 V 293.41 h 0.868 v -13.3586 h 0.868 v -32.0331 h 0.868 v -8.9684 h 0.868 V 220.932 h 0.868 v -30.8821 h 0.868 v -13.0804 h 0.868 V 156.852 h 0.868 v -24.0889 h 0.868 v -23.943 h 0.868 V 94.4525 h 0.868 v 5.0694 h 0.868 v 8.8196 h 0.868 v 26.7696 h 0.868 v 24.291 h 0.868 v 18.8369 h 0.868 v 34.4109 h 0.868 v 4.9178 h 0.868 v 2.7938 h 0.868 v -11.0587 h 0.868 v -26.8617 h 0.868 v -25.4247 h 0.868 v -10.7368 h 0.868 v -16.2738 h 0.868 v -20.9786 h 0.868 V 94.1263 h 0.868 v 9.3066 h 0.868 v 7.4843 h 0.868 v 9.7412 h 0.868 v 15.4736 h 0.868 v 27.0551 h 0.868 v 26.5708 h 0.868 v 4.663 h 0.868 v 15.7714 h 0.868 v 7.1076 h 0.868 v -14.6012 h 0.868 v -13.5345 h 0.868 v -26.6848 h 0.868 v -6.7485 h 0.868 v 7.6721 h 0.868 v -16.1385 h 0.868 v 22.4935 h 0.868 v 13.989 h 0.868 v 25.7355 h 0.868 v 2.5586 h 0.868 v -7.4465 h 0.868 v -9.3938 h 0.868 v -10.7151 h 0.868 v -6.0001 h 0.868 v 13.7683 h 0.868 v 2.3857 h 0.868 v -18.2534 h 0.868 v -15.2641 h 0.868 v -23.5727 h 0.868 v -30.0381 h 0.868 V 79.727 h 0.868 V 67.1374 h 0.868 V 53.0731 h 0.868 v 4.1682 h 0.868 V 49.019 h 0.868 v 21.0637 h 0.868 v 27.409 h 0.868 v 46.0515 h 0.868 v 55.5467 h 0.868 v 60.924 h 0.868 v 39.8224 h 0.868 v 27.1145 h 0.868 v 5.5873 h 0.868 v -20.4158 h 0.868 V 282.627 h 0.868 v -42.2045 h 0.868 v -19.2946 h 0.868 V 207.562 h 0.868 v -11.3318 h 0.868 v -13.0287 h 0.868 v -23.3386 h 0.868 V 132.454 h 0.868 v -28.2961 h 0.868 V 81.1 h 0.868 V 66.2113 h 0.868 v 4.5849 h 0.868 v -1.5805 h 0.868 v 5.0596 H 290 v 10.9339 h 0.868 v 20.7152 h 0.868 v 34.3097 h 0.868 v 44.2532 h 0.868 v 26.4502 h 0.868 v 32.06 h 0.868 v 20.0649 h 0.868 v -0.009 h 0.868 v -4.854 h 0.868 v -35.3179 h 0.868 v -42.7611 h 0.868 v -34.2702 h 0.868 v -7.7778 h 0.868 v -16.075 h 0.868 v 18.6683 h 0.868 v 0.9428 h 0.868 v 10.1727 h 0.868 v -3.9646 h 0.868 v 31.741 h 0.868 v 2.144 h 0.868 v 1.9613 h 0.868 v -16.8147 h 0.868 v -20.1398 h 0.868 v -29.5999 h 0.868 v 8.5967 h 0.868 v -3.6882 h 0.868 v 2.4902 h 0.868 v 10.3248 h 0.868 v -5.6896 h 0.868 v 15.7926 h 0.868 v 14.4278 h 0.868 v 20.9877 h 0.868 v 10.3317 h 0.868 v 9.8226 h 0.868 v -4.1653 h 0.868 v 7.9502 h 0.868 v -4.899 h 0.868 v 7.8454 h 0.868 v -3.1722 h 0.868 v 4.6922 h 0.868 v 9.7022 h 0.868 V 207.731 h 0.868 v 19.9103 h 0.868 V 214.712 h 0.868 v -2.3987 h 0.868 v 6.8969 h 0.868 v 9.5001 h 0.868 v 15.6503 h 0.868 v 11.0731 h 0.868 v 14.9258 h 0.868 v 13.9787 h 0.868 v 2.4585 h 0.868 v 3.0762 h 0.868 v -10.4166 h 0.868 v -6.6621 h 0.868 v -21.5194 h 0.868 v 9.1596 h 0.868 v -23.99 h 0.868 v 11.1323 h 0.868 v 1.6819 h 0.868 v -11.2977 h 0.868 V 227.903 h 0.868 v -4.1703 h 0.868 v -3.2041 h 0.868 v -5.9978 h 0.868 v 0.9237 h 0.868 v 2.4908 h 0.868 v 0.2846 h 0.868 v -0.4963 h 0.868 v 8.5772 h 0.868 v 0.5199 h 0.868 v 15.0053 h 0.868 v 5.9925 h 0.868 v -6.009 h 0.868 v -19.7976 h 0.868 v -4.0892 h 0.868 v -5.0336 h 0.868 v -15.9608 h 0.868 v -0.1129 h 0.868 v -2.5071 h 0.868 v -10.5162 h 0.868 v -15.7438 h 0.868 v -4.7116 h 0.868 v -3.9912 h 0.868 v 10.977 h 0.868 v 10.1353 h 0.868 v 19.2127 h 0.868 v 24.1241 h 0.868 v 7.9932 h 0.868 v 0.9652 h 0.868 v 5.0075 h 0.868 v 7.7925 h 0.868 v -9.8024 h 0.868 v -18.2569 h 0.868 v -6.9456 h 0.868 v -21.1965 h 0.868 V 175.916 h 0.868 v 8.5867 h 0.868 v 7.5134 h 0.868 v 10.9577 h 0.868 v 9.2558 h 0.868 v -21.5734 h 0.868 v -26.387 h 0.868 v -22.9318 h 0.868 v 1.6698 h 0.868 v -20.8457 h 0.868 v 14.416 h 0.868 v -11.3781 h 0.868 v -16.4349 h 0.868 v -0.7385 h 0.868 v 11.9582 h 0.868 v -1.8351 h 0.868 v 24.6068 h 0.868 v 5.9131 h 0.868 v 2.4253 h 0.868 v 6.3822 h 0.868 v 4.79 h 0.868 v 0.0117 h 0.868 v 8.5728 h 0.868 v -12.3173 h 0.868 v 1.3778 h 0.868 v 5.4128 h 0.868 v 9.7478 h 0.868 v 22.6422 h 0.868 v 30.9326 h 0.868 v 14.0034 h 0.868 v 34.5361 h 0.868 v 26.0593 h 0.868 v 2.5453 h 0.868 v -7.2183 h 0.868 v -31.6318 h 0.868 v -18.9604 h 0.868 v -18.8337 h 0.868 v -8.4977 h 0.868 v 4.7059 h 0.868 v -2.3554 h 0.868 v -7.1136 h 0.868 v -25.2542 h 0.868 v -14.6022 h 0.868 v -18.1082 h 0.868 v -18.2056 h 0.868 v 4.7261 h 0.868 v 9.3091 h 0.868 v 1.5427 h 0.868 v 1.7554 h 0.868 v 1.3196 h 0.868 v 15.3816 h 0.868 v 26.8525 h 0.868 v 19.8586 h 0.868 v 18.7243 h 0.868 v 5.9142 h 0.868 v -14.1493 h 0.868 v 2.1177 h 0.868 v -13.3506 h 0.868 v -30.2406 h 0.868 v -12.1093 h 0.868 v -19.1915 h 0.868 v -2.0802 h 0.868 v -27.4408 h 0.868 v -9.2638 h 0.868 v -11.2938 h 0.868 v -4.5127 h 0.868 v 35.3437 h 0.868 v 22.5946 h 0.868 v 21.4038 h 0.868 v 6.8355 h 0.868 v 15.3536 h 0.868 v -13.26 h 0.868 v -6.294 h 0.868 v -20.5713 h 0.868 v -27.8343 h 0.868 v -27.1645 h 0.868 V 84.7476 h 0.868 V 91.41 h 0.868 v 11.279 h 0.868 v 35.9157 h 0.868 v 21.0303 h 0.868 v 27.3853 h 0.868 v 39.1742 h 0.868 v 31.794 h 0.868 v -3.4134 h 0.868 v 1.3903 h 0.868 v -34.6379 h 0.868 v -35.2206 h 0.868 v -19.2576 h 0.868 v -9.7552 h 0.868 v -23.1654 h 0.868 v 1.0935 h 0.868 v -22.7953 h 0.868 V 94.6894 h 0.868 v -1.4303 h 0.868 v 6.4823 h 0.868 v -2.9032 h 0.868 v 14.7269 h 0.868 v 10.4787 h 0.868 v 4.0322 h 0.868 v 24.127 h 0.868 v 8.6399 h 0.868 v 17.3814 h 0.868 v 30.734 h 0.868 v 30.2169 h 0.868 v 22.1671 h 0.868 v 25.8658 h 0.868 V 299.53 h 0.868 v 8.6464 h 0.868 v -10.5205 h 0.868 v -10.8937 h 0.868 v -24.3148 h 0.868 v -31.1972 h 0.868 v -10.0697 h 0.868 v -7.9178 h 0.868 v -2.5067 h 0.868 v -5.2558 h 0.868 v -10.9573 h 0.868 v -13.6254 h 0.868 v -15.1408 h 0.868 v -10.627 h 0.868 v -0.0445 h 0.868 v -2.4154 h 0.868 v -19.4301 h 0.868 v 22.5967 h 0.868 v 1.4573 h 0.868 v 17.9164 h 0.868 v 10.726 h 0.868 v 23.9173 h 0.868 v 13.4584 h 0.868 v -9.327 h 0.868 v -18.6347 h 0.868 v -36.8033 h 0.868 v -18.6686 h 0.868 v -14.9951 h 0.868 v -21.5406 h 0.868 v -3.3499 h 0.868 v -9.5885 h 0.868 V 80.1097 h 0.868 v 6.7187 h 0.868 v 21.7798 h 0.868 v 35.6474 h 0.868 v 28.099 h 0.868 v 29.1838 h 0.868 v 18.2101 h 0.868 v 6.2202 h 0.868 v -2.393 h 0.868 v 6.0435 h 0.868 v 6.0247 h 0.868 v -18.2402 h 0.868 v 10.5926 h 0.868 v 13.8007 h 0.868 v 3.386 h 0.868 V 233.4721 H 507 v 5.1451" />
    <path
       inkscape:connector-curvature="0"
       id="path187"
       style="fill:none;fill-rule:evenodd;stroke:#0000ff"
       d="m 73.868,178 h 0.868 v 1.793 h 0.868 v 6.3509 h 0.868 v -5.6511 h 0.868 v -12.8673 h 0.868 V 154.953 h 0.868 v -0.542 h 0.868 v -3.3584 h 0.868 v 5.8874 h 0.868 v 0.5571 h 0.868 v 7.7811 h 0.868 v -2.6355 h 0.868 v -9.1256 h 0.868 v -8.8344 h 0.868 v 2.9744 h 0.868 v -3.9884 h 0.868 v -8.1039 h 0.868 v -9.9611 h 0.868 v -6.5824 h 0.868 v 7.0028 h 0.868 v 0.7886 h 0.868 v 0.2664 h 0.868 v 14.223 h 0.868 v 18.2625 H 94.7 v 8.3182 h 0.868 v 11.7738 h 0.868 v 2.1002 h 0.868 v 9.9395 h 0.868 v 14.0276 h 0.868 v 11.6883 h 0.868 v -1.7339 h 0.868 v 4.0585 h 0.868 v 3.8222 h 0.868 v -11.0353 h 0.868 v -15.9782 h 0.868 v -6.8481 h 0.868 v -14.5647 h 0.868 v -14.5243 h 0.868 v 1.2772 h 0.868 v 11.3948 h 0.868 v 13.2283 h 0.868 v 2.3575 h 0.868 v 9.3948 h 0.868 v 13.0174 h 0.868 v 14.0634 h 0.868 v 9.7481 h 0.868 v -8.3472 h 0.868 v -19.2443 h 0.868 v -20.7977 h 0.868 v -5.4017 h 0.868 v 1.5353 h 0.868 v -4.8562 h 0.868 v 2.2214 h 0.868 v -7.7336 h 0.868 v -13.4143 h 0.868 v -15.7549 h 0.868 V 127.601 h 0.868 v -10.5005 h 0.868 v 8.2407 h 0.868 v 15.9812 h 0.868 v 8.6648 h 0.868 v 13.7895 h 0.868 v 4.9965 h 0.868 V 181.89 h 0.868 v 13.4833 h 0.868 v -1.9505 h 0.868 v -8.176 h 0.868 v 2.9273 h 0.868 v 6.2477 h 0.868 v -6.5465 h 0.868 v -10.6009 h 0.868 v 2.1531 h 0.868 v 6.621 h 0.868 v -1.8805 h 0.868 v 3.5313 h 0.868 v -4.049 h 0.868 v 2.1771 h 0.868 v -4.7397 h 0.868 v 1.9857 h 0.868 v -4.5881 h 0.868 v 5.9304 h 0.868 v 8.5709 h 0.868 v -4.8965 h 0.868 v -13.1386 h 0.868 v -17.1674 h 0.868 v -18.0615 h 0.868 v -16.8335 h 0.868 v -10.7666 h 0.868 v 8.5663 h 0.868 v 16.6579 h 0.868 v 5.9156 h 0.868 v 1.9443 h 0.868 v 13.4965 h 0.868 v 19.636 h 0.868 v 18.0655 h 0.868 v 0.9173 h 0.868 v -6.7069 h 0.868 v -0.2433 h 0.868 v -6.7638 h 0.868 v 0.4212 h 0.868 v -9.2843 h 0.868 v -14.6477 h 0.868 v -16.6592 h 0.868 v -12.7103 h 0.868 v 5.4441 h 0.868 v 13.084 h 0.868 v 2.4063 h 0.868 v -1.1716 h 0.868 v 7.3614 h 0.868 v 1.4217 h 0.868 v 8.1638 h 0.868 v -2.6034 h 0.868 v -5.7382 h 0.868 v 3.5394 h 0.868 v -1.5352 h 0.868 v 9.6498 h 0.868 V 183.1 h 0.868 v -1.4567 h 0.868 v -6.677 h 0.868 v 4.9283 h 0.868 v 11.9596 h 0.868 v 11.7356 h 0.868 v -0.3199 h 0.868 v 6.2173 h 0.868 v 6.2476 h 0.868 v -5.0936 h 0.868 v -1.2016 h 0.868 V 196.56 h 0.868 v -19.1621 h 0.868 V 159.666 h 0.868 v -0.7082 h 0.868 v 10.4005 h 0.868 v 16.5622 h 0.868 v 15.3136 h 0.868 v 2.2358 h 0.868 v 4.2684 h 0.868 v -9.1626 h 0.868 v -16.954 h 0.868 v -20.3089 h 0.868 v -16.8655 h 0.868 v -2.2092 h 0.868 v -3.2211 h 0.868 v 7.1809 h 0.868 v 2.471 h 0.868 v 9.9055 h 0.868 v 2.9989 h 0.868 v 8.9563 h 0.868 v 1.1868 h 0.868 v 6.7663 h 0.868 v -4.6151 h 0.868 v -11.5325 h 0.868 v -14.8635 h 0.868 v -15.5355 h 0.868 v -14.4165 h 0.868 v -12.248 h 0.868 v -9.6162 h 0.868 V 92.294 h 0.868 v 11.7662 h 0.868 v 9.6612 h 0.868 v 21.6512 h 0.868 v 27.2582 h 0.868 v 28.1657 h 0.868 v 25.935 h 0.868 v 18.3071 h 0.868 v 0.7934 h 0.868 v 0.0943 h 0.868 V 224.822 h 0.868 v -6.518 h 0.868 v -13.6277 h 0.868 v -2.552 h 0.868 v 1.2988 h 0.868 v -7.0702 h 0.868 v -1.0531 h 0.868 v -11.3681 h 0.868 v -16.9182 h 0.868 v -18.8237 h 0.868 v -14.5892 h 0.868 v 3.9382 h 0.868 v 15.5568 h 0.868 v 17.9471 h 0.868 v 6.9649 h 0.868 v 9.8829 h 0.868 v 0.0502 h 0.868 v 4.4054 h 0.868 v -7.5332 h 0.868 v -14.5201 h 0.868 v -17.5969 h 0.868 v -14.2448 h 0.868 v 0.0901 h 0.868 v -4.9462 h 0.868 v -7.7166 h 0.868 v -5.1546 h 0.868 v 7.7581 h 0.868 v 4.6183 h 0.868 v 12.856 h 0.868 v 6.1747 h 0.868 v 15.5465 h 0.868 v 16.4809 h 0.868 v 1.1157 h 0.868 v -5.3725 h 0.868 v 1.6941 h 0.868 v -8.2152 h 0.868 v -13.8181 h 0.868 v -12.4818 h 0.868 v 3.9554 h 0.868 v 10.6312 h 0.868 v 3.1597 h 0.868 v 12.321 h 0.868 v 17.0278 h 0.868 v 14.7893 h 0.868 v -2.4638 h 0.868 v -13.4039 h 0.868 v -15.5696 h 0.868 v -1.0938 h 0.868 v 8.4013 h 0.868 v 10.1311 h 0.868 v -4.0832 h 0.868 v -12.8906 h 0.868 v -17.311 h 0.868 v -18.4446 h 0.868 v -17.3336 h 0.868 v -14.8783 h 0.868 V 98.2275 h 0.868 v -8.6191 h 0.868 v -5.6956 h 0.868 v 0.3558 h 0.868 v 18.5655 h 0.868 v 28.5142 h 0.868 v 32.1108 h 0.868 v 31.229 h 0.868 v 27.5318 h 0.868 v 22.3791 h 0.868 v 13.2124 h 0.868 v -8.375 h 0.868 v -21.5336 h 0.868 v -24.3243 h 0.868 v -9.3774 h 0.868 v 1.2523 h 0.868 v 8.019 h 0.868 v 8.0178 h 0.868 v -7.1071 h 0.868 v -16.2024 h 0.868 v -20.478 h 0.868 V 146.502 h 0.868 v -19.5474 h 0.868 v -12.9332 h 0.868 v 3.3856 h 0.868 v -0.6943 h 0.868 v -3.2702 H 290 v -1.027 h 0.868 v 14.8519 h 0.868 v 23.661 h 0.868 v 23.4185 h 0.868 v 10.1817 h 0.868 v 14.902 h 0.868 v 12.8852 h 0.868 v -4.0339 h 0.868 v -14.6 h 0.868 v -19.9897 h 0.868 v -21.4835 h 0.868 v -16.716 h 0.868 v 2.3699 h 0.868 v 14.5075 h 0.868 v 17.3394 h 0.868 v 3.1183 h 0.868 v -2.8284 h 0.868 v 7.9207 h 0.868 v 10.5115 h 0.868 v -3.1825 h 0.868 v -11.7428 h 0.868 v -16.1178 h 0.868 v -17.3414 h 0.868 V 127.234 h 0.868 v 2.141 h 0.868 v 0.8869 h 0.868 v 10.7207 h 0.868 v 1.702 h 0.868 v -0.7298 h 0.868 v 12.0882 h 0.868 v 15.6033 h 0.868 v 5.585 h 0.868 v 9.2661 h 0.868 v -3.5961 h 0.868 v -7.99 h 0.868 v 4.2827 h 0.868 v 8.2253 h 0.868 v -0.7773 h 0.868 v 7.785 h 0.868 v 8.9717 h 0.868 v -1.8927 h 0.868 v 5.5742 h 0.868 v 6.2718 h 0.868 v -4.6394 h 0.868 v 3.0721 h 0.868 v 7.7646 h 0.868 v 10.0299 h 0.868 v 10.495 h 0.868 v 9.746 h 0.868 v 8.2851 h 0.868 v 6.5086 h 0.868 v 4.7053 h 0.868 v -0.5206 h 0.868 v -14.5928 h 0.868 v -7.9346 h 0.868 v -2.8234 h 0.868 v 0.7731 h 0.868 v 3.0276 h 0.868 v 4.1864 h 0.868 v 0.9327 h 0.868 v -12.0059 h 0.868 v -4.8718 h 0.868 v -3.3445 h 0.868 v -12.7552 h 0.868 v -3.2587 h 0.868 v 3.2247 h 0.868 v 3.5199 h 0.868 v -7.3769 h 0.868 v 0.6179 h 0.868 v 5.7398 h 0.868 v 8.4861 h 0.868 v 9.4175 h 0.868 v 5.493 h 0.868 v -11.9232 h 0.868 v -18.4361 h 0.868 v -6.492 h 0.868 v -1.684 h 0.868 v -9.1338 h 0.868 v 1.2718 h 0.868 v 4.3053 h 0.868 v -8.4805 h 0.868 v -12.3358 h 0.868 v -2.865 h 0.868 v -7.1735 h 0.868 v 5.0727 h 0.868 v 12.5051 h 0.868 v 16.0726 h 0.868 v 13.1911 h 0.868 v -0.7332 h 0.868 v 4.6337 h 0.868 v 4.0638 h 0.868 v -7.4482 h 0.868 v -3.4311 h 0.868 v -11.2189 h 0.868 v -4.4097 h 0.868 v -10.2892 h 0.868 v 1.2501 h 0.868 v 8.6069 h 0.868 v 12.5154 h 0.868 v 10.211 h 0.868 v -6.6267 h 0.868 v -16.8807 h 0.868 v -21.8396 h 0.868 v -19.2832 h 0.868 v -4.9599 h 0.868 v -5.9124 h 0.868 v 4.7976 h 0.868 v -3.0603 h 0.868 v -7.8488 h 0.868 v -6.5821 h 0.868 v 5.6337 h 0.868 v 2.2546 h 0.868 v 10.5737 h 0.868 v 0.5877 h 0.868 v -2.3599 h 0.868 v 6.701 h 0.868 v -2.4166 h 0.868 v -4.5004 h 0.868 v 5.3347 h 0.868 v -3.1441 h 0.868 v -4.7409 h 0.868 v 9.0199 h 0.868 v 17.0394 h 0.868 v 20.5337 h 0.868 v 20.7442 h 0.868 v 18.8045 h 0.868 v 15.6649 h 0.868 v 12.0613 h 0.868 v 4.9319 h 0.868 v -14.5061 h 0.868 v -22.0714 h 0.868 v -10.4458 h 0.868 v -1.8626 h 0.868 v 3.8889 h 0.868 v 7.2288 h 0.868 v 5.085 h 0.868 V 221.607 h 0.868 v -16.9524 h 0.868 v -8.2913 h 0.868 v -16.1676 h 0.868 v -16.0703 h 0.868 v -0.0772 h 0.868 v 6.7142 h 0.868 v -3.8761 h 0.868 v -6.7688 h 0.868 v 6.3549 h 0.868 v 14.2279 h 0.868 v 17.9086 h 0.868 v 14.9168 h 0.868 v 0.7482 h 0.868 v 2.2226 h 0.868 v -7.7797 h 0.868 v -2.7505 h 0.868 v -13.5362 h 0.868 v -15.5886 h 0.868 v -4.6235 h 0.868 v -7.7869 h 0.868 v 1.677 h 0.868 v -6.6763 h 0.868 v -11.4242 h 0.868 v -9.7733 h 0.868 v 6.597 h 0.868 v 16.5508 h 0.868 v 17.7622 h 0.868 v 2.4482 h 0.868 v -4.1401 h 0.868 v 2.7384 h 0.868 v -7.3976 h 0.868 v -13.2291 h 0.868 v -15.6862 h 0.868 v -15.7093 h 0.868 v -14.152 h 0.868 v -8.1401 h 0.868 v 10.8945 h 0.868 v 22.1455 h 0.868 v 23.6382 h 0.868 v 11.5044 h 0.868 v 16.8074 h 0.868 v 18.5636 h 0.868 v 14.2584 h 0.868 v -4.2817 h 0.868 v -15.8741 h 0.868 v -21.8016 h 0.868 v -19.877 h 0.868 v -2.318 h 0.868 v 5.7129 h 0.868 v -3.9735 h 0.868 v -9.8564 h 0.868 V 138.735 h 0.868 v -9.6622 h 0.868 v 4 h 0.868 v -1.8639 h 0.868 v -1.8933 h 0.868 v 9.0128 h 0.868 v 0.8604 h 0.868 v -0.9257 h 0.868 v 8.7447 h 0.868 v 3.4038 h 0.868 v 13.9219 h 0.868 v 19.3483 h 0.868 v 20.9301 h 0.868 v 19.861 h 0.868 v 17.1801 h 0.868 v 13.7223 h 0.868 v 6.5211 h 0.868 V 252.36 h 0.868 v -8.2576 h 0.868 v -17.3376 h 0.868 v -7.1681 h 0.868 v 0.1431 h 0.868 v 4.8691 h 0.868 v 3.8601 h 0.868 v -7.9162 h 0.868 v -4.0236 h 0.868 v -15.4188 h 0.868 v -17.6781 h 0.868 v -6.6378 h 0.868 v -9.5511 h 0.868 v 0.2518 h 0.868 v -4.1533 h 0.868 v 4.1421 h 0.868 v -1.6298 h 0.868 v 9.1127 h 0.868 v 15.1659 h 0.868 v 13.9867 h 0.868 v -2.4993 h 0.868 v -12.9383 h 0.868 v -18.4118 h 0.868 v -20.118 h 0.868 v -15.6248 h 0.868 v -0.4119 h 0.868 v -4.8288 h 0.868 v -7.2093 h 0.868 v -8.0312 h 0.868 v -4.1743 h 0.868 v 13.0658 h 0.868 v 19.3503 h 0.868 v 10.7526 h 0.868 v 18.4236 h 0.868 v 17.9674 h 0.868 v 5.1377 h 0.868 v 7.0407 h 0.868 v -6.7518 h 0.868 v -11.4328 h 0.868 v 0.9981 h 0.868 v 8.9581 h 0.868 v 13.2226 h 0.868 v 14.6643 h 0.868 v 10.5453 h 0.868 v -3.9164 H 507 v 1.4206" />
  </g>
  <g
     id="g193"
     style="color-interpolation:sRGB;fill:#ffffff;stroke:#ffffff;color-rendering:optimizeSpeed;image-rendering:optimizeSpeed;shape-rendering:crispEdges;text-rendering:optimizeSpeed"
     transform="translate(-54.3073,-12.8281)">
    <path
       inkscape:connector-curvature="0"
       id="path191"
       d="M 496,75 V 42 H 323 v 33 z"
       style="stroke:none" />
  </g>
  <g
     id="g197"
     style="font-family:mwa_cmr10;color-interpolation:linearRGB;color-rendering:optimizeQuality;image-rendering:optimizeQuality;text-rendering:geometricPrecision"
     transform="translate(315.7333,38.289)">
    <path
       inkscape:connector-curvature="0"
       id="path195"
       d="M 0.3594,2.88 V 2.4581 q 0.4062,0 0.6718,-0.0625 0.2657,-0.0625 0.2657,-0.3125 v -3.2813 q 0,-0.3281 -0.0938,-0.4687 Q 1.1094,-1.8075 0.9219,-1.8388 0.7344,-1.87 0.3594,-1.87 v -0.4219 l 1.7344,-0.125 v 1.1719 q 0.25,-0.5157 0.7187,-0.8438 0.4687,-0.3281 1.0313,-0.3281 1.375,0 1.625,1.125 0.2343,-0.5156 0.6953,-0.8203 0.4609,-0.3047 1.0078,-0.3047 0.5469,0 0.9219,0.1719 0.375,0.1718 0.5624,0.5312 0.1876,0.3594 0.1876,0.9063 v 2.8906 q 0,0.25 0.2656,0.3125 0.2656,0.0625 0.6718,0.0625 V 2.88 h -2.75 V 2.4581 q 0.4063,0 0.6719,-0.0625 Q 7.9688,2.3331 7.9688,2.0831 V -0.7763 Q 7.9688,-1.37 7.7969,-1.745 7.625,-2.12 7.1094,-2.12 q -0.7032,0 -1.1485,0.5625 -0.4453,0.5625 -0.4453,1.2656 v 2.375 q 0,0.25 0.2578,0.3125 0.2578,0.0625 0.6797,0.0625 V 2.88 h -2.75 V 2.4581 q 0.4063,0 0.6719,-0.0625 0.2656,-0.0625 0.2656,-0.3125 v -2.8594 q 0,-0.5781 -0.1718,-0.9609 Q 4.2969,-2.12 3.7656,-2.12 3.0781,-2.12 2.625,-1.5575 2.1719,-0.995 2.1719,-0.2919 v 2.375 q 0,0.25 0.2656,0.3125 0.2656,0.0625 0.6719,0.0625 V 2.88 Z"
       style="stroke:none" />
  </g>
  <g
     id="g233"
     style="font-family:mwa_cmr10;color-interpolation:linearRGB;color-rendering:optimizeQuality;image-rendering:optimizeQuality;text-rendering:geometricPrecision"
     transform="translate(315.7333,38.289)">
    <path
       inkscape:connector-curvature="0"
       id="path199"
       d="M 12.9844,3.0206 Q 12.25,3.0206 11.6407,2.63 11.0313,2.2393 10.6797,1.5987 10.3282,0.9581 10.3282,0.255 q 0,-0.7032 0.3203,-1.336 0.3203,-0.6328 0.8906,-1.0234 0.5703,-0.3906 1.2734,-0.3906 0.5625,0 0.9688,0.1796 0.4062,0.1797 0.6719,0.5079 0.2656,0.3281 0.3984,0.7734 0.1328,0.4453 0.1328,0.9766 0,0.1718 -0.125,0.1718 h -3.4687 v 0.125 q 0,1 0.3984,1.711 0.3984,0.7109 1.3047,0.7109 0.375,0 0.6875,-0.1641 0.3125,-0.164 0.539,-0.4531 0.2266,-0.289 0.3204,-0.6328 0,-0.0312 0.039,-0.0703 0.0391,-0.0391 0.0703,-0.0391 h 0.1094 q 0.125,0 0.125,0.1563 -0.1719,0.6875 -0.7344,1.125 -0.5625,0.4375 -1.2656,0.4375 z m -1.5937,-3.2188 h 2.7343 q 0,-0.4375 -0.125,-0.9062 -0.125,-0.4688 -0.414,-0.7735 -0.2891,-0.3046 -0.7735,-0.3046 -0.6718,0 -1.0468,0.6328 -0.375,0.6328 -0.375,1.3515 z"
       style="stroke:none" />
    <path
       inkscape:connector-curvature="0"
       id="path201"
       d="m 15.8177,1.7081 q 0,-0.7188 0.5625,-1.1719 0.5625,-0.4531 1.3516,-0.6328 0.7891,-0.1797 1.4922,-0.1797 v -0.5 q 0,-0.3437 -0.1484,-0.6641 -0.1485,-0.3203 -0.4375,-0.5312 -0.2891,-0.2109 -0.6329,-0.2109 -0.7968,0 -1.2187,0.3593 0.2344,0 0.3828,0.1719 0.1484,0.1719 0.1484,0.4063 0,0.2343 -0.1718,0.4062 -0.1719,0.1719 -0.4063,0.1719 -0.2344,0 -0.4062,-0.1719 -0.1719,-0.1719 -0.1719,-0.4062 0,-0.6407 0.5703,-0.9454 0.5703,-0.3046 1.2734,-0.3046 0.4844,0 0.9766,0.2031 0.4922,0.2031 0.8047,0.5937 0.3125,0.3907 0.3125,0.9063 v 2.7031 q 0,0.2344 0.1016,0.4297 0.1015,0.1953 0.3046,0.1953 0.2032,0 0.2969,-0.2031 Q 20.8959,2.13 20.8959,1.9112 V 1.1456 h 0.3593 v 0.7656 q 0,0.2656 -0.1406,0.5078 -0.1406,0.2422 -0.3828,0.3906 -0.2422,0.1485 -0.5078,0.1485 -0.3594,0 -0.6094,-0.2735 -0.25,-0.2734 -0.2812,-0.6484 -0.2188,0.4375 -0.6563,0.7109 -0.4375,0.2735 -0.9219,0.2735 -0.4687,0 -0.9062,-0.1406 Q 16.4115,2.7393 16.1146,2.4503 15.8177,2.1612 15.8177,1.7081 Z m 0.9688,0 q 0,0.4219 0.3125,0.7031 0.3125,0.2813 0.7344,0.2813 0.3906,0 0.7031,-0.1875 0.3125,-0.1875 0.5,-0.5235 0.1875,-0.3359 0.1875,-0.7109 v -1.25 q -0.5469,0 -1.1172,0.1797 -0.5703,0.1797 -0.9453,0.5625 -0.375,0.3828 -0.375,0.9453 z"
       style="stroke:none" />
    <path
       inkscape:connector-curvature="0"
       id="path203"
       d="M 21.7396,2.9112 V 0.9581 q 0,-0.0938 0.0938,-0.0938 h 0.1562 q 0.0625,0 0.0938,0.0938 0.3281,1.7344 1.6094,1.7344 0.5781,0 0.9609,-0.2579 0.3828,-0.2578 0.3828,-0.789 0,-0.3906 -0.3047,-0.6641 Q 24.4271,0.7081 24.0209,0.6143 L 23.224,0.4581 Q 22.8178,0.3643 22.4896,0.1846 22.1615,0.005 21.9506,-0.2997 q -0.211,-0.3047 -0.211,-0.6953 0,-0.5313 0.2735,-0.8672 0.2734,-0.336 0.7187,-0.4844 0.4453,-0.1484 0.961,-0.1484 0.625,0 1.0781,0.3281 l 0.3437,-0.2969 q 0,-0.0312 0.0625,-0.0312 h 0.0782 q 0.0468,0 0.0703,0.0312 0.0234,0.0313 0.0234,0.0625 v 1.5781 q 0,0.1094 -0.0937,0.1094 h -0.1407 q -0.1093,0 -0.1093,-0.1094 0,-0.6406 -0.3438,-1.0156 -0.3437,-0.375 -0.9844,-0.375 -0.5312,0 -0.9297,0.1953 -0.3984,0.1953 -0.3984,0.6797 0,0.3438 0.2891,0.5547 0.289,0.2109 0.664,0.3047 l 0.8125,0.1562 q 0.4063,0.0938 0.7657,0.3125 0.3593,0.2188 0.5625,0.5625 0.2031,0.3438 0.2031,0.7657 0,0.4375 -0.1485,0.7578 -0.1484,0.3203 -0.414,0.5312 -0.2656,0.211 -0.625,0.3125 -0.3594,0.1016 -0.7656,0.1016 -0.75,0 -1.2813,-0.5156 L 21.974,2.9893 q 0,0.0313 -0.0625,0.0313 h -0.0781 q -0.0938,0 -0.0938,-0.1094 z"
       style="stroke:none" />
    <path
       inkscape:connector-curvature="0"
       id="path205"
       d="m 27.3636,1.4425 v -2.6407 q 0,-0.3281 -0.0938,-0.4687 Q 27.1761,-1.8075 26.9886,-1.8388 26.8011,-1.87 26.4261,-1.87 v -0.4219 l 1.8125,-0.125 v 3.8594 q 0,0.4687 0.0703,0.7343 0.0703,0.2657 0.2891,0.3907 0.2187,0.125 0.7031,0.125 0.6406,0 1.0234,-0.5391 0.3828,-0.5391 0.3828,-1.2266 v -2.125 q 0,-0.3281 -0.1015,-0.4687 Q 30.5042,-1.8075 30.3245,-1.8388 30.1448,-1.87 29.7698,-1.87 v -0.4219 l 1.8125,-0.125 v 4.2031 q 0,0.3125 0.0938,0.4609 0.0937,0.1485 0.2734,0.1797 0.1797,0.0313 0.5703,0.0313 V 2.88 L 30.7386,3.0206 V 2.005 q -0.2188,0.4531 -0.6172,0.7343 -0.3984,0.2813 -0.8828,0.2813 -0.8594,0 -1.3672,-0.3672 -0.5078,-0.3672 -0.5078,-1.2109 z"
       style="stroke:none" />
    <path
       inkscape:connector-curvature="0"
       id="path207"
       d="M 33.0459,2.88 V 2.4581 q 0.4062,0 0.6719,-0.0625 0.2656,-0.0625 0.2656,-0.3125 v -3.2813 q 0,-0.3281 -0.0938,-0.4687 Q 33.7959,-1.8075 33.6084,-1.8388 33.4209,-1.87 33.0459,-1.87 v -0.4219 l 1.7187,-0.125 v 1.1719 q 0.1875,-0.5313 0.5469,-0.8516 0.3594,-0.3203 0.875,-0.3203 0.3438,0 0.625,0.2109 0.2813,0.211 0.2813,0.5547 0,0.2188 -0.1485,0.375 -0.1484,0.1563 -0.3828,0.1563 -0.2187,0 -0.3828,-0.1563 -0.1641,-0.1562 -0.1641,-0.375 0,-0.3281 0.2344,-0.4687 h -0.0625 q -0.5,0 -0.8047,0.3515 -0.3047,0.3516 -0.4297,0.875 -0.125,0.5235 -0.125,1.0078 v 1.9688 q 0,0.375 1.1563,0.375 V 2.88 Z"
       style="stroke:none" />
    <path
       inkscape:connector-curvature="0"
       id="path209"
       d="M 40.4178,3.0206 Q 39.6834,3.0206 39.074,2.63 38.4647,2.2393 38.1131,1.5987 37.7615,0.9581 37.7615,0.255 q 0,-0.7032 0.3203,-1.336 0.3204,-0.6328 0.8907,-1.0234 0.5703,-0.3906 1.2734,-0.3906 0.5625,0 0.9688,0.1796 0.4062,0.1797 0.6718,0.5079 0.2657,0.3281 0.3985,0.7734 0.1328,0.4453 0.1328,0.9766 0,0.1718 -0.125,0.1718 H 38.824 v 0.125 q 0,1 0.3985,1.711 0.3984,0.7109 1.3047,0.7109 0.375,0 0.6875,-0.1641 0.3125,-0.164 0.539,-0.4531 0.2266,-0.289 0.3203,-0.6328 0,-0.0312 0.0391,-0.0703 0.0391,-0.0391 0.0703,-0.0391 h 0.1094 q 0.125,0 0.125,0.1563 -0.1719,0.6875 -0.7344,1.125 -0.5625,0.4375 -1.2656,0.4375 z M 38.824,-0.1982 h 2.7344 q 0,-0.4375 -0.125,-0.9062 -0.125,-0.4688 -0.4141,-0.7735 -0.289,-0.3046 -0.7734,-0.3046 -0.6719,0 -1.0469,0.6328 -0.375,0.6328 -0.375,1.3515 z"
       style="stroke:none" />
    <path
       inkscape:connector-curvature="0"
       id="path211"
       d="m 45.7042,3.0206 q -0.7187,0 -1.3046,-0.3906 -0.586,-0.3907 -0.9063,-1.0157 -0.3203,-0.625 -0.3203,-1.3281 0,-0.7187 0.3516,-1.3437 0.3515,-0.625 0.9609,-0.9922 0.6094,-0.3672 1.3437,-0.3672 0.4375,0 0.8282,0.1797 0.3906,0.1797 0.6875,0.5078 v -2.5 q 0,-0.3125 -0.1016,-0.461 -0.1016,-0.1484 -0.2812,-0.1796 -0.1797,-0.0313 -0.5547,-0.0313 v -0.4219 l 1.7812,-0.125 v 7.2344 q 0,0.3125 0.0938,0.4609 0.0937,0.1485 0.2734,0.1797 0.1797,0.0313 0.5547,0.0313 V 2.88 L 47.298,3.0206 V 2.255 Q 46.9855,2.6143 46.5636,2.8175 46.1417,3.0206 45.7042,3.0206 Z M 44.4699,1.8331 q 0.2031,0.3906 0.5468,0.625 0.3438,0.2344 0.75,0.2344 0.5,0 0.9141,-0.2813 0.4141,-0.2812 0.6172,-0.75 v -2.875 Q 47.1574,-1.4794 46.9464,-1.6825 46.7355,-1.8857 46.4699,-2.0029 46.2042,-2.12 45.9074,-2.12 q -0.625,0 -1.0078,0.3593 -0.3829,0.3594 -0.5391,0.9063 -0.1563,0.5469 -0.1563,1.1562 0,0.4844 0.0547,0.836 0.0547,0.3515 0.211,0.6953 z"
       style="stroke:none" />
    <path
       inkscape:connector-curvature="0"
       id="path213"
       d="m 56.4334,3.0206 q -0.7187,0 -1.3359,-0.3672 Q 54.4803,2.2862 54.1209,1.669 53.7615,1.0518 53.7615,0.3175 q 0,-0.5469 0.2032,-1.0547 0.2031,-0.5078 0.5625,-0.9063 0.3593,-0.3984 0.8515,-0.625 0.4922,-0.2265 1.0547,-0.2265 0.7344,0 1.3438,0.3906 0.6093,0.3906 0.9609,1.039 0.3516,0.6485 0.3516,1.3829 0,0.7343 -0.3594,1.3515 -0.3594,0.6172 -0.9688,0.9844 -0.6093,0.3672 -1.3281,0.3672 z m 0,-0.3594 q 0.9688,0 1.2891,-0.6953 0.3203,-0.6953 0.3203,-1.7734 0,-0.6094 -0.0625,-1 -0.0625,-0.3907 -0.2813,-0.7188 -0.1406,-0.2031 -0.3515,-0.3516 -0.211,-0.1484 -0.4375,-0.2265 -0.2266,-0.0781 -0.4766,-0.0781 -0.375,0 -0.7109,0.1718 -0.336,0.1719 -0.5547,0.4844 -0.2344,0.3438 -0.2891,0.75 -0.0547,0.4063 -0.0547,0.9688 0,0.6718 0.1172,1.2109 0.1172,0.5391 0.4688,0.8984 0.3515,0.3594 1.0234,0.3594 z"
       style="stroke:none" />
    <path
       inkscape:connector-curvature="0"
       id="path215"
       d="m 60.7303,1.4425 v -2.6407 q 0,-0.3281 -0.0937,-0.4687 Q 60.5428,-1.8075 60.3553,-1.8388 60.1678,-1.87 59.7928,-1.87 v -0.4219 l 1.8125,-0.125 v 3.8594 q 0,0.4687 0.0703,0.7343 0.0703,0.2657 0.2891,0.3907 0.2187,0.125 0.7031,0.125 0.6406,0 1.0234,-0.5391 0.3829,-0.5391 0.3829,-1.2266 v -2.125 q 0,-0.3281 -0.1016,-0.4687 Q 63.8709,-1.8075 63.6912,-1.8388 63.5116,-1.87 63.1366,-1.87 v -0.4219 l 1.8125,-0.125 v 4.2031 q 0,0.3125 0.0937,0.4609 0.0938,0.1485 0.2735,0.1797 0.1796,0.0313 0.5703,0.0313 V 2.88 L 64.1053,3.0206 V 2.005 q -0.2187,0.4531 -0.6172,0.7343 -0.3984,0.2813 -0.8828,0.2813 -0.8594,0 -1.3672,-0.3672 -0.5078,-0.3672 -0.5078,-1.2109 z"
       style="stroke:none" />
    <path
       inkscape:connector-curvature="0"
       id="path217"
       d="M 67.3189,1.4425 V -1.87 h -0.9844 v -0.3125 q 0.7813,0 1.1484,-0.7344 0.3672,-0.7344 0.3672,-1.5938 h 0.3438 v 2.2188 H 69.897 V -1.87 h -1.7031 v 3.2812 q 0,0.5 0.1719,0.875 0.1718,0.375 0.5937,0.375 0.4219,0 0.6016,-0.3984 0.1797,-0.3985 0.1797,-0.8516 V 0.7081 h 0.3437 v 0.7344 q 0,0.375 -0.1406,0.7421 -0.1406,0.3672 -0.4063,0.6016 -0.2656,0.2344 -0.6562,0.2344 -0.7188,0 -1.1406,-0.4375 -0.4219,-0.4375 -0.4219,-1.1406 z"
       style="stroke:none" />
    <path
       inkscape:connector-curvature="0"
       id="path219"
       d="M 71.0793,5.2081 V 4.7862 q 0.4063,0 0.6719,-0.0703 0.2656,-0.0703 0.2656,-0.3047 v -5.7969 q 0,-0.3281 -0.2344,-0.4062 Q 71.5481,-1.87 71.0793,-1.87 v -0.4219 l 1.7813,-0.125 v 0.7344 q 0.3281,-0.3594 0.7578,-0.5469 0.4297,-0.1875 0.9297,-0.1875 0.7031,0 1.2734,0.3828 0.5703,0.3828 0.8906,1.0078 0.3203,0.625 0.3203,1.3125 0,0.7344 -0.3515,1.3594 -0.3516,0.625 -0.9688,1 -0.6172,0.375 -1.3515,0.375 -0.875,0 -1.4688,-0.7188 v 2.1094 q 0,0.2344 0.2656,0.3047 0.2657,0.0703 0.6719,0.0703 v 0.4219 z m 1.8125,-3.5 q 0.2031,0.4375 0.5781,0.7109 0.375,0.2735 0.8282,0.2735 0.4062,0 0.7265,-0.2188 0.3203,-0.2187 0.5391,-0.5937 0.2187,-0.375 0.3203,-0.7891 0.1016,-0.4141 0.1016,-0.8047 0,-0.4844 -0.1719,-1.0391 -0.1719,-0.5546 -0.5235,-0.9375 -0.3515,-0.3828 -0.8671,-0.3828 -0.4844,0 -0.8907,0.25 -0.4062,0.25 -0.6406,0.6719 z"
       style="stroke:none" />
    <path
       inkscape:connector-curvature="0"
       id="path221"
       d="m 78.7304,1.4425 v -2.6407 q 0,-0.3281 -0.0938,-0.4687 Q 78.5429,-1.8075 78.3554,-1.8388 78.1679,-1.87 77.7929,-1.87 v -0.4219 l 1.8125,-0.125 v 3.8594 q 0,0.4687 0.0703,0.7343 0.0703,0.2657 0.289,0.3907 0.2188,0.125 0.7032,0.125 0.6406,0 1.0234,-0.5391 0.3828,-0.5391 0.3828,-1.2266 v -2.125 q 0,-0.3281 -0.1015,-0.4687 Q 81.871,-1.8075 81.6913,-1.8388 81.5116,-1.87 81.1366,-1.87 v -0.4219 l 1.8125,-0.125 v 4.2031 q 0,0.3125 0.0938,0.4609 0.0937,0.1485 0.2734,0.1797 0.1797,0.0313 0.5703,0.0313 V 2.88 L 82.1054,3.0206 V 2.005 q -0.2188,0.4531 -0.6172,0.7343 -0.3985,0.2813 -0.8828,0.2813 -0.8594,0 -1.3672,-0.3672 -0.5078,-0.3672 -0.5078,-1.2109 z"
       style="stroke:none" />
    <path
       inkscape:connector-curvature="0"
       id="path223"
       d="M 85.3189,1.4425 V -1.87 h -0.9843 v -0.3125 q 0.7812,0 1.1484,-0.7344 0.3672,-0.7344 0.3672,-1.5938 h 0.3437 v 2.2188 h 1.7032 V -1.87 h -1.7032 v 3.2812 q 0,0.5 0.1719,0.875 0.1719,0.375 0.5938,0.375 0.4218,0 0.6015,-0.3984 0.1797,-0.3985 0.1797,-0.8516 V 0.7081 h 0.3438 v 0.7344 q 0,0.375 -0.1407,0.7421 -0.1406,0.3672 -0.4062,0.6016 -0.2656,0.2344 -0.6563,0.2344 -0.7187,0 -1.1406,-0.4375 -0.4219,-0.4375 -0.4219,-1.1406 z"
       style="stroke:none" />
    <path
       inkscape:connector-curvature="0"
       id="path225"
       d="m 93.595,4.8487 q 0.2344,0.1875 0.5,0.1875 0.7656,0 1.2344,-1.1406 L 95.7512,2.88 93.9387,-1.5263 Q 93.8294,-1.745 93.6028,-1.8075 93.3762,-1.87 93.0012,-1.87 v -0.4219 h 2.5157 V -1.87 q -0.6563,0 -0.6563,0.2812 0,0.0469 0,0.0781 l 1.3438,3.2813 1.2031,-2.9531 q 0.0312,-0.0938 0.0312,-0.2032 0,-0.1562 -0.0781,-0.2656 Q 97.2825,-1.7607 97.1575,-1.8154 97.0325,-1.87 96.8762,-1.87 v -0.4219 h 1.9844 V -1.87 q -0.375,0 -0.6484,0.1718 -0.2735,0.1719 -0.4297,0.5 l -2.0781,5.0938 q -0.1563,0.375 -0.375,0.7031 -0.2188,0.3281 -0.5391,0.5391 -0.3203,0.2109 -0.6953,0.2109 -0.4375,0 -0.7656,-0.2969 -0.3282,-0.2968 -0.3282,-0.7187 0,-0.2188 0.1485,-0.375 0.1484,-0.1563 0.3672,-0.1563 0.1562,0 0.2812,0.0703 0.125,0.0704 0.1875,0.1875 0.0625,0.1172 0.0625,0.2735 0,0.1875 -0.125,0.3437 -0.125,0.1563 -0.3281,0.1719 z"
       style="stroke:none" />
    <path
       inkscape:connector-curvature="0"
       id="path227"
       d="m 102.819,5.8643 q -0.6719,-0.5312 -1.1485,-1.2187 -0.4765,-0.6875 -0.789,-1.461 -0.3125,-0.7734 -0.461,-1.6171 -0.1484,-0.8438 -0.1484,-1.6875 0,-0.8594 0.1484,-1.7032 0.1485,-0.8437 0.461,-1.625 0.3125,-0.7812 0.8047,-1.4609 0.4921,-0.6797 1.1328,-1.1953 0,-0.0156 0.0625,-0.0156 h 0.1093 q 0.0313,0 0.0625,0.0312 0.0313,0.0313 0.0313,0.0781 0,0.0469 -0.0156,0.0782 -0.5938,0.5625 -0.9844,1.2187 -0.3906,0.6563 -0.625,1.3984 -0.2344,0.7422 -0.3438,1.5391 -0.1093,0.7969 -0.1093,1.6563 0,3.8125 2.0468,5.7968 0.0313,0.0313 0.0313,0.0938 0,0.0312 -0.0313,0.0703 -0.0312,0.0391 -0.0625,0.0391 h -0.1093 q -0.0625,0 -0.0625,-0.0157 z"
       style="stroke:none" />
    <path
       inkscape:connector-curvature="0"
       id="path229"
       d="M 104.0794,2.88 V 2.4581 q 0.4062,0 0.6719,-0.0625 0.2656,-0.0625 0.2656,-0.3125 v -6.3125 q 0,-0.3125 -0.0938,-0.461 -0.0937,-0.1484 -0.2812,-0.1796 -0.1875,-0.0313 -0.5625,-0.0313 v -0.4219 l 1.7812,-0.125 V 0.255 l 1.6094,-1.4219 q 0.2344,-0.2188 0.2344,-0.4219 0,-0.1406 -0.1016,-0.2109 -0.1015,-0.0703 -0.2422,-0.0703 v -0.4219 h 2.2657 V -1.87 q -0.8125,0 -1.6407,0.7031 l -0.8437,0.75 1.5312,2.1719 q 0.3125,0.4375 0.5235,0.5703 0.2109,0.1328 0.7109,0.1328 V 2.88 h -2.3906 V 2.4581 q 0.4062,0 0.4062,-0.25 0,-0.1875 -0.2187,-0.4531 l -1.1563,-1.6407 -0.7343,0.625 v 1.3438 q 0,0.25 0.2656,0.3125 0.2656,0.0625 0.6719,0.0625 V 2.88 Z"
       style="stroke:none" />
    <path
       inkscape:connector-curvature="0"
       id="path231"
       d="m 110.8815,5.88 q -0.1094,0 -0.1094,-0.1094 0,-0.0469 0.0313,-0.0781 2.0469,-2 2.0469,-5.8125 0,-3.8125 -2.0313,-5.7969 -0.0469,-0.0313 -0.0469,-0.0938 0,-0.0468 0.0313,-0.0781 0.0312,-0.0312 0.0781,-0.0312 h 0.1094 q 0.0312,0 0.0625,0.0156 0.8594,0.6875 1.4297,1.6562 0.5703,0.9688 0.8437,2.0703 0.2735,1.1016 0.2735,2.2579 0,0.8437 -0.1485,1.6718 -0.1484,0.8282 -0.4609,1.625 -0.3125,0.7969 -0.7891,1.4766 -0.4765,0.6797 -1.1484,1.2109 -0.0313,0.0157 -0.0625,0.0157 z"
       style="stroke:none" />
  </g>
  <g
     id="g237"
     style="color-interpolation:linearRGB;fill:#ff0000;stroke:#ff0000;stroke-width:0.66670001;stroke-linecap:butt;stroke-linejoin:round;color-rendering:optimizeQuality;image-rendering:optimizeQuality;text-rendering:geometricPrecision"
     transform="translate(-54.3073,-12.8281)">
    <line
       id="line235"
       y1="51.1171"
       x2="367.03799"
       x1="327.00339"
       style="fill:none"
       y2="51.1171" />
  </g>
  <g
     id="g241"
     style="font-family:mwa_cmr10;color-interpolation:linearRGB;color-rendering:optimizeQuality;image-rendering:optimizeQuality;text-rendering:geometricPrecision"
     transform="translate(315.7333,53.0548)">
    <path
       inkscape:connector-curvature="0"
       id="path239"
       d="M 0.3125,5.2081 V 4.7862 q 0.4063,0 0.6719,-0.0703 Q 1.25,4.6456 1.25,4.4112 V -1.3857 Q 1.25,-1.7138 1.0156,-1.7919 0.7812,-1.87 0.3125,-1.87 v -0.4219 l 1.7813,-0.125 v 0.7344 q 0.3281,-0.3594 0.7578,-0.5469 0.4296,-0.1875 0.9296,-0.1875 0.7032,0 1.2735,0.3828 0.5703,0.3828 0.8906,1.0078 0.3203,0.625 0.3203,1.3125 0,0.7344 -0.3515,1.3594 -0.3516,0.625 -0.9688,1 -0.6172,0.375 -1.3515,0.375 -0.875,0 -1.4688,-0.7188 v 2.1094 q 0,0.2344 0.2656,0.3047 0.2656,0.0703 0.6719,0.0703 v 0.4219 z m 1.8125,-3.5 q 0.2031,0.4375 0.5781,0.7109 0.375,0.2735 0.8281,0.2735 0.4063,0 0.7266,-0.2188 Q 4.5781,2.255 4.7969,1.88 5.0156,1.505 5.1172,1.0909 5.2188,0.6768 5.2188,0.2862 5.2188,-0.1982 5.0469,-0.7529 4.875,-1.3075 4.5234,-1.6904 4.1719,-2.0732 3.6562,-2.0732 q -0.4843,0 -0.8906,0.25 -0.4062,0.25 -0.6406,0.6719 z"
       style="stroke:none" />
  </g>
  <g
     id="g281"
     style="font-family:mwa_cmr10;color-interpolation:linearRGB;color-rendering:optimizeQuality;image-rendering:optimizeQuality;text-rendering:geometricPrecision"
     transform="translate(315.7333,53.0548)">
    <path
       inkscape:connector-curvature="0"
       id="path243"
       d="M 6.9792,2.88 V 2.4581 q 0.4062,0 0.6719,-0.0625 0.2656,-0.0625 0.2656,-0.3125 v -3.2813 q 0,-0.3281 -0.0938,-0.4687 Q 7.7292,-1.8075 7.5417,-1.8388 7.3542,-1.87 6.9792,-1.87 v -0.4219 l 1.7187,-0.125 v 1.1719 q 0.1875,-0.5313 0.5469,-0.8516 0.3594,-0.3203 0.875,-0.3203 0.3438,0 0.625,0.2109 0.2813,0.211 0.2813,0.5547 0,0.2188 -0.1485,0.375 -0.1484,0.1563 -0.3828,0.1563 -0.2187,0 -0.3828,-0.1563 -0.1641,-0.1562 -0.1641,-0.375 0,-0.3281 0.2344,-0.4687 h -0.0625 q -0.5,0 -0.8047,0.3515 -0.3047,0.3516 -0.4297,0.875 -0.125,0.5235 -0.125,1.0078 v 1.9688 q 0,0.375 1.1563,0.375 V 2.88 Z"
       style="stroke:none" />
    <path
       inkscape:connector-curvature="0"
       id="path245"
       d="M 14.3511,3.0206 Q 13.6167,3.0206 13.0073,2.63 12.3979,2.2393 12.0464,1.5987 11.6948,0.9581 11.6948,0.255 q 0,-0.7032 0.3203,-1.336 0.3203,-0.6328 0.8907,-1.0234 0.5703,-0.3906 1.2734,-0.3906 0.5625,0 0.9687,0.1796 0.4063,0.1797 0.6719,0.5079 0.2656,0.3281 0.3985,0.7734 0.1328,0.4453 0.1328,0.9766 0,0.1718 -0.125,0.1718 h -3.4688 v 0.125 q 0,1 0.3985,1.711 0.3984,0.7109 1.3046,0.7109 0.375,0 0.6875,-0.1641 0.3125,-0.164 0.5391,-0.4531 0.2266,-0.289 0.3203,-0.6328 0,-0.0312 0.0391,-0.0703 0.039,-0.0391 0.0703,-0.0391 h 0.1094 q 0.125,0 0.125,0.1563 -0.1719,0.6875 -0.7344,1.125 -0.5625,0.4375 -1.2656,0.4375 z m -1.5938,-3.2188 h 2.7344 q 0,-0.4375 -0.125,-0.9062 -0.125,-0.4688 -0.4141,-0.7735 -0.289,-0.3046 -0.7734,-0.3046 -0.6719,0 -1.0469,0.6328 -0.375,0.6328 -0.375,1.3515 z"
       style="stroke:none" />
    <path
       inkscape:connector-curvature="0"
       id="path247"
       d="m 19.6375,3.0206 q -0.7187,0 -1.3047,-0.3906 -0.5859,-0.3907 -0.9062,-1.0157 -0.3203,-0.625 -0.3203,-1.3281 0,-0.7187 0.3515,-1.3437 0.3516,-0.625 0.961,-0.9922 0.6094,-0.3672 1.3437,-0.3672 0.4375,0 0.8282,0.1797 0.3906,0.1797 0.6875,0.5078 v -2.5 q 0,-0.3125 -0.1016,-0.461 Q 21.075,-4.8388 20.8953,-4.87 20.7157,-4.9013 20.3407,-4.9013 v -0.4219 l 1.7812,-0.125 v 7.2344 q 0,0.3125 0.0938,0.4609 0.0937,0.1485 0.2734,0.1797 0.1797,0.0313 0.5547,0.0313 V 2.88 L 21.2313,3.0206 V 2.255 Q 20.9188,2.6143 20.4969,2.8175 20.075,3.0206 19.6375,3.0206 Z M 18.4032,1.8331 q 0.2031,0.3906 0.5468,0.625 0.3438,0.2344 0.75,0.2344 0.5,0 0.9141,-0.2813 0.4141,-0.2812 0.6172,-0.75 v -2.875 Q 21.0907,-1.4794 20.8797,-1.6825 20.6688,-1.8857 20.4032,-2.0029 20.1375,-2.12 19.8407,-2.12 q -0.625,0 -1.0079,0.3593 -0.3828,0.3594 -0.539,0.9063 -0.1563,0.5469 -0.1563,1.1562 0,0.4844 0.0547,0.836 0.0547,0.3515 0.211,0.6953 z"
       style="stroke:none" />
    <path
       inkscape:connector-curvature="0"
       id="path249"
       d="M 23.7417,2.88 V 2.4581 q 0.4063,0 0.6719,-0.0625 0.2656,-0.0625 0.2656,-0.3125 v -3.2813 q 0,-0.4687 -0.1797,-0.5703 Q 24.3198,-1.87 23.7886,-1.87 v -0.4219 l 1.7344,-0.125 v 4.5 q 0,0.25 0.2265,0.3125 0.2266,0.0625 0.6016,0.0625 V 2.88 Z m 0.5,-7.3594 q 0,-0.2656 0.2031,-0.4688 0.2032,-0.2031 0.4532,-0.2031 0.1718,0 0.3281,0.0859 0.1562,0.086 0.25,0.25 0.0937,0.1641 0.0937,0.336 0,0.25 -0.2031,0.4531 -0.2031,0.2031 -0.4687,0.2031 -0.25,0 -0.4532,-0.2031 -0.2031,-0.2031 -0.2031,-0.4531 z"
       style="stroke:none" />
    <path
       inkscape:connector-curvature="0"
       id="path251"
       d="m 29.6844,3.0206 q -0.7187,0 -1.3125,-0.3828 Q 27.7782,2.255 27.4422,1.63 27.1063,1.005 27.1063,0.2862 q 0,-0.7031 0.3359,-1.3516 0.336,-0.6484 0.9297,-1.039 0.5938,-0.3906 1.3125,-0.3906 0.7032,0 1.2813,0.2734 0.5781,0.2734 0.5781,0.8984 0,0.2344 -0.1641,0.4063 -0.164,0.1719 -0.414,0.1719 -0.2344,0 -0.3985,-0.1719 -0.164,-0.1719 -0.164,-0.4063 0,-0.2031 0.1328,-0.3593 0.1328,-0.1563 0.3359,-0.2032 -0.4218,-0.2656 -1.1718,-0.2656 -0.5782,0 -0.9297,0.3828 -0.3516,0.3828 -0.4922,0.9453 -0.1406,0.5625 -0.1406,1.1094 0,0.5781 0.1718,1.125 0.1719,0.5469 0.5625,0.8984 0.3907,0.3516 0.9688,0.3516 0.5625,0 0.9609,-0.3516 0.3985,-0.3515 0.5391,-0.914 0,-0.0625 0.0937,-0.0625 h 0.1563 q 0.0312,0 0.0625,0.0312 0.0312,0.0313 0.0312,0.0782 v 0.0312 q -0.1875,0.7031 -0.7265,1.125 -0.5391,0.4219 -1.2735,0.4219 z"
       style="stroke:none" />
    <path
       inkscape:connector-curvature="0"
       id="path253"
       d="M 33.2521,1.4425 V -1.87 h -0.9843 v -0.3125 q 0.7812,0 1.1484,-0.7344 0.3672,-0.7344 0.3672,-1.5938 h 0.3437 v 2.2188 h 1.7032 V -1.87 h -1.7032 v 3.2812 q 0,0.5 0.1719,0.875 0.1719,0.375 0.5938,0.375 0.4218,0 0.6015,-0.3984 Q 35.674,1.8643 35.674,1.4112 V 0.7081 h 0.3438 v 0.7344 q 0,0.375 -0.1407,0.7421 -0.1406,0.3672 -0.4062,0.6016 -0.2656,0.2344 -0.6563,0.2344 -0.7187,0 -1.1406,-0.4375 -0.4219,-0.4375 -0.4219,-1.1406 z"
       style="stroke:none" />
    <path
       inkscape:connector-curvature="0"
       id="path255"
       d="M 39.6844,3.0206 Q 38.9501,3.0206 38.3407,2.63 37.7313,2.2393 37.3798,1.5987 37.0282,0.9581 37.0282,0.255 q 0,-0.7032 0.3203,-1.336 0.3203,-0.6328 0.8906,-1.0234 0.5703,-0.3906 1.2735,-0.3906 0.5625,0 0.9687,0.1796 0.4063,0.1797 0.6719,0.5079 0.2656,0.3281 0.3984,0.7734 0.1328,0.4453 0.1328,0.9766 0,0.1718 -0.125,0.1718 h -3.4687 v 0.125 q 0,1 0.3984,1.711 0.3985,0.7109 1.3047,0.7109 0.375,0 0.6875,-0.1641 0.3125,-0.164 0.5391,-0.4531 0.2265,-0.289 0.3203,-0.6328 0,-0.0312 0.0391,-0.0703 0.039,-0.0391 0.0703,-0.0391 h 0.1093 q 0.125,0 0.125,0.1563 -0.1718,0.6875 -0.7343,1.125 -0.5625,0.4375 -1.2657,0.4375 z m -1.5937,-3.2188 h 2.7344 q 0,-0.4375 -0.125,-0.9062 -0.125,-0.4688 -0.4141,-0.7735 -0.2891,-0.3046 -0.7734,-0.3046 -0.6719,0 -1.0469,0.6328 -0.375,0.6328 -0.375,1.3515 z"
       style="stroke:none" />
    <path
       inkscape:connector-curvature="0"
       id="path257"
       d="M 44.9709,3.0206 Q 44.2522,3.0206 43.6662,2.63 43.0803,2.2393 42.76,1.6143 42.4397,0.9893 42.4397,0.2862 q 0,-0.7187 0.3515,-1.3437 0.3516,-0.625 0.961,-0.9922 0.6093,-0.3672 1.3437,-0.3672 0.4375,0 0.8281,0.1797 0.3907,0.1797 0.6875,0.5078 v -2.5 q 0,-0.3125 -0.1015,-0.461 Q 46.4084,-4.8388 46.2287,-4.87 46.049,-4.9013 45.674,-4.9013 v -0.4219 l 1.7813,-0.125 v 7.2344 q 0,0.3125 0.0937,0.4609 0.0938,0.1485 0.2735,0.1797 0.1797,0.0313 0.5547,0.0313 V 2.88 L 46.5647,3.0206 V 2.255 Q 46.2522,2.6143 45.8303,2.8175 45.4084,3.0206 44.9709,3.0206 Z M 43.7365,1.8331 q 0.2032,0.3906 0.5469,0.625 0.3438,0.2344 0.75,0.2344 0.5,0 0.9141,-0.2813 0.414,-0.2812 0.6172,-0.75 v -2.875 Q 46.424,-1.4794 46.2131,-1.6825 46.0022,-1.8857 45.7365,-2.0029 45.4709,-2.12 45.174,-2.12 q -0.625,0 -1.0078,0.3593 -0.3828,0.3594 -0.539,0.9063 -0.1563,0.5469 -0.1563,1.1562 0,0.4844 0.0547,0.836 0.0547,0.3515 0.2109,0.6953 z"
       style="stroke:none" />
    <path
       inkscape:connector-curvature="0"
       id="path259"
       d="m 55.7001,3.0206 q -0.7188,0 -1.336,-0.3672 Q 53.747,2.2862 53.3876,1.669 53.0282,1.0518 53.0282,0.3175 q 0,-0.5469 0.2031,-1.0547 0.2032,-0.5078 0.5625,-0.9063 0.3594,-0.3984 0.8516,-0.625 0.4922,-0.2265 1.0547,-0.2265 0.7344,0 1.3437,0.3906 0.6094,0.3906 0.961,1.039 0.3515,0.6485 0.3515,1.3829 0,0.7343 -0.3593,1.3515 -0.3594,0.6172 -0.9688,0.9844 -0.6094,0.3672 -1.3281,0.3672 z m 0,-0.3594 q 0.9687,0 1.289,-0.6953 0.3204,-0.6953 0.3204,-1.7734 0,-0.6094 -0.0625,-1 -0.0625,-0.3907 -0.2813,-0.7188 -0.1406,-0.2031 -0.3516,-0.3516 -0.2109,-0.1484 -0.4375,-0.2265 -0.2265,-0.0781 -0.4765,-0.0781 -0.375,0 -0.711,0.1718 -0.3359,0.1719 -0.5546,0.4844 -0.2344,0.3438 -0.2891,0.75 -0.0547,0.4063 -0.0547,0.9688 0,0.6718 0.1172,1.2109 0.1172,0.5391 0.4687,0.8984 0.3516,0.3594 1.0235,0.3594 z"
       style="stroke:none" />
    <path
       inkscape:connector-curvature="0"
       id="path261"
       d="m 59.997,1.4425 v -2.6407 q 0,-0.3281 -0.0938,-0.4687 Q 59.8095,-1.8075 59.622,-1.8388 59.4345,-1.87 59.0595,-1.87 v -0.4219 l 1.8125,-0.125 v 3.8594 q 0,0.4687 0.0703,0.7343 0.0703,0.2657 0.289,0.3907 0.2188,0.125 0.7032,0.125 0.6406,0 1.0234,-0.5391 0.3828,-0.5391 0.3828,-1.2266 v -2.125 q 0,-0.3281 -0.1015,-0.4687 Q 63.1376,-1.8075 62.9579,-1.8388 62.7782,-1.87 62.4032,-1.87 v -0.4219 l 1.8125,-0.125 v 4.2031 q 0,0.3125 0.0938,0.4609 0.0937,0.1485 0.2734,0.1797 0.1797,0.0313 0.5703,0.0313 V 2.88 L 63.372,3.0206 V 2.005 q -0.2188,0.4531 -0.6172,0.7343 -0.3985,0.2813 -0.8828,0.2813 -0.8594,0 -1.3672,-0.3672 Q 59.997,2.2862 59.997,1.4425 Z"
       style="stroke:none" />
    <path
       inkscape:connector-curvature="0"
       id="path263"
       d="M 66.5855,1.4425 V -1.87 h -0.9843 v -0.3125 q 0.7812,0 1.1484,-0.7344 0.3672,-0.7344 0.3672,-1.5938 h 0.3437 v 2.2188 h 1.7032 V -1.87 h -1.7032 v 3.2812 q 0,0.5 0.1719,0.875 0.1719,0.375 0.5938,0.375 0.4218,0 0.6015,-0.3984 0.1797,-0.3985 0.1797,-0.8516 V 0.7081 h 0.3438 v 0.7344 q 0,0.375 -0.1407,0.7421 -0.1406,0.3672 -0.4062,0.6016 -0.2656,0.2344 -0.6563,0.2344 -0.7187,0 -1.1406,-0.4375 -0.4219,-0.4375 -0.4219,-1.1406 z"
       style="stroke:none" />
    <path
       inkscape:connector-curvature="0"
       id="path265"
       d="M 70.346,5.2081 V 4.7862 q 0.4062,0 0.6718,-0.0703 0.2657,-0.0703 0.2657,-0.3047 v -5.7969 q 0,-0.3281 -0.2344,-0.4062 Q 70.8147,-1.87 70.346,-1.87 v -0.4219 l 1.7812,-0.125 v 0.7344 q 0.3281,-0.3594 0.7578,-0.5469 0.4297,-0.1875 0.9297,-0.1875 0.7031,0 1.2735,0.3828 0.5703,0.3828 0.8906,1.0078 0.3203,0.625 0.3203,1.3125 0,0.7344 -0.3516,1.3594 -0.3515,0.625 -0.9687,1 -0.6172,0.375 -1.3516,0.375 -0.875,0 -1.4687,-0.7188 v 2.1094 q 0,0.2344 0.2656,0.3047 0.2656,0.0703 0.6719,0.0703 v 0.4219 z m 1.8125,-3.5 q 0.2031,0.4375 0.5781,0.7109 0.375,0.2735 0.8281,0.2735 0.4063,0 0.7266,-0.2188 0.3203,-0.2187 0.539,-0.5937 0.2188,-0.375 0.3204,-0.7891 0.1015,-0.4141 0.1015,-0.8047 0,-0.4844 -0.1719,-1.0391 -0.1718,-0.5546 -0.5234,-0.9375 -0.3516,-0.3828 -0.8672,-0.3828 -0.4844,0 -0.8906,0.25 -0.4063,0.25 -0.6406,0.6719 z"
       style="stroke:none" />
    <path
       inkscape:connector-curvature="0"
       id="path267"
       d="m 77.997,1.4425 v -2.6407 q 0,-0.3281 -0.0937,-0.4687 Q 77.8095,-1.8075 77.622,-1.8388 77.4345,-1.87 77.0595,-1.87 v -0.4219 l 1.8125,-0.125 v 3.8594 q 0,0.4687 0.0703,0.7343 0.0704,0.2657 0.2891,0.3907 0.2188,0.125 0.7031,0.125 0.6407,0 1.0235,-0.5391 0.3828,-0.5391 0.3828,-1.2266 v -2.125 q 0,-0.3281 -0.1016,-0.4687 Q 81.1377,-1.8075 80.958,-1.8388 80.7783,-1.87 80.4033,-1.87 v -0.4219 l 1.8125,-0.125 v 4.2031 q 0,0.3125 0.0937,0.4609 0.0938,0.1485 0.2735,0.1797 0.1797,0.0313 0.5703,0.0313 V 2.88 L 81.372,3.0206 V 2.005 q -0.2187,0.4531 -0.6172,0.7343 -0.3984,0.2813 -0.8828,0.2813 -0.8593,0 -1.3672,-0.3672 Q 77.997,2.2862 77.997,1.4425 Z"
       style="stroke:none" />
    <path
       inkscape:connector-curvature="0"
       id="path269"
       d="M 84.5856,1.4425 V -1.87 h -0.9844 v -0.3125 q 0.7813,0 1.1485,-0.7344 0.3671,-0.7344 0.3671,-1.5938 h 0.3438 v 2.2188 h 1.7031 V -1.87 h -1.7031 v 3.2812 q 0,0.5 0.1719,0.875 0.1718,0.375 0.5937,0.375 0.4219,0 0.6016,-0.3984 0.1797,-0.3985 0.1797,-0.8516 V 0.7081 h 0.3437 v 0.7344 q 0,0.375 -0.1406,0.7421 -0.1406,0.3672 -0.4063,0.6016 -0.2656,0.2344 -0.6562,0.2344 -0.7188,0 -1.1406,-0.4375 -0.4219,-0.4375 -0.4219,-1.1406 z"
       style="stroke:none" />
    <path
       inkscape:connector-curvature="0"
       id="path271"
       d="m 93.0491,4.5987 q 0.25,0.4375 0.875,0.4375 0.5625,0 0.9766,-0.3984 0.4141,-0.3985 0.6719,-0.9688 0.2578,-0.5703 0.3984,-1.164 -0.5312,0.5156 -1.1562,0.5156 -0.4688,0 -0.8047,-0.1641 -0.336,-0.164 -0.5235,-0.4922 -0.1875,-0.3281 -0.1875,-0.7968 0,-0.3907 0.1094,-0.8047 0.1094,-0.4141 0.2969,-0.9219 0.1875,-0.5078 0.3281,-0.8828 0.1563,-0.4375 0.1563,-0.7188 0,-0.3593 -0.25,-0.3593 -0.4844,0 -0.7891,0.4921 -0.3047,0.4922 -0.4609,1.1016 -0.0157,0.0781 -0.0938,0.0781 h -0.1406 q -0.0938,0 -0.0938,-0.125 v -0.0312 q 0.1875,-0.7188 0.586,-1.2656 0.3984,-0.5469 1.0078,-0.5469 0.4219,0 0.7187,0.2812 0.2969,0.2813 0.2969,0.7032 0,0.2343 -0.0937,0.4687 -0.0469,0.1563 -0.2344,0.6484 -0.1875,0.4922 -0.2891,0.8125 -0.1015,0.3204 -0.164,0.6329 -0.0625,0.3125 -0.0625,0.625 0,0.3906 0.164,0.664 0.1641,0.2735 0.5391,0.2735 0.75,0 1.3281,-0.9063 l 0.9219,-3.6875 q 0.0312,-0.1719 0.1797,-0.2812 0.1484,-0.1094 0.3203,-0.1094 0.1406,0 0.25,0.0937 0.1094,0.0938 0.1094,0.25 0,0.0625 -0.0157,0.0938 l -1.1875,4.7656 q -0.1562,0.625 -0.5781,1.1875 -0.4219,0.5625 -1.0156,0.9063 -0.5938,0.3437 -1.2344,0.3437 -0.3125,0 -0.6172,-0.125 -0.3047,-0.125 -0.4922,-0.3672 -0.1875,-0.2422 -0.1875,-0.5547 0,-0.3281 0.1954,-0.5703 0.1953,-0.2422 0.5078,-0.2422 0.2031,0 0.3281,0.1172 0.125,0.1172 0.125,0.3203 0,0.2657 -0.2031,0.4766 -0.2032,0.2109 -0.4688,0.2109 -0.0156,-0.0156 -0.0312,-0.0156 -0.0157,0 -0.0157,0 z"
       style="stroke:none" />
    <path
       inkscape:connector-curvature="0"
       id="path273"
       d="m 98.5419,4.5393 q 0,-0.0469 0,-0.0625 l 0.5938,-2.3906 q 0.0625,-0.2188 0.0625,-0.3906 0,-0.3438 -0.2344,-0.3438 -0.25,0 -0.3672,0.2969 -0.1172,0.2969 -0.2422,0.75 0,0.0312 -0.0234,0.0469 -0.0235,0.0156 -0.0391,0.0156 h -0.0937 q -0.0313,0 -0.0469,-0.0313 -0.0156,-0.0312 -0.0156,-0.0625 0.0781,-0.3437 0.164,-0.5859 0.086,-0.2422 0.25,-0.4375 0.1641,-0.1953 0.4297,-0.1953 0.2969,0 0.5234,0.1875 0.2266,0.1875 0.2266,0.4844 0.25,-0.3125 0.5703,-0.4922 0.3203,-0.1797 0.6797,-0.1797 0.375,0 0.6484,0.1875 0.2735,0.1875 0.2735,0.5469 0.25,-0.3438 0.5781,-0.5391 0.3281,-0.1953 0.7188,-0.1953 0.4218,0 0.6718,0.2187 0.25,0.2188 0.25,0.6407 0,0.3281 -0.1484,0.789 -0.1484,0.461 -0.3672,1.0391 -0.1094,0.2812 -0.1094,0.4844 0,0.2343 0.1875,0.2343 0.3125,0 0.5157,-0.3359 0.2031,-0.3359 0.2968,-0.7109 0.0157,-0.0469 0.0625,-0.0469 h 0.0938 q 0.0312,0 0.0547,0.0156 0.0234,0.0156 0.0234,0.0469 0,0.0156 -0.0156,0.0312 -0.1094,0.4532 -0.375,0.836 -0.2656,0.3828 -0.6719,0.3828 -0.2812,0 -0.4844,-0.1953 -0.2031,-0.1953 -0.2031,-0.4766 0,-0.1406 0.0625,-0.3125 0.2344,-0.5937 0.3828,-1.0703 0.1485,-0.4766 0.1485,-0.8359 0,-0.2188 -0.086,-0.375 -0.0859,-0.1563 -0.3047,-0.1563 -0.4375,0 -0.7578,0.2656 -0.3203,0.2657 -0.5547,0.7032 -0.0156,0.0781 -0.0156,0.125 l -0.5156,2.0625 q -0.0313,0.1093 -0.125,0.1875 -0.0938,0.0781 -0.2188,0.0781 -0.0937,0 -0.164,-0.0625 -0.0703,-0.0625 -0.0703,-0.1719 0,-0.0469 0,-0.0625 l 0.5156,-2.0469 q 0.0781,-0.3281 0.0781,-0.5468 0,-0.2188 -0.0859,-0.375 -0.086,-0.1563 -0.3047,-0.1563 -0.2969,0 -0.5469,0.125 -0.25,0.125 -0.4297,0.3438 -0.1797,0.2187 -0.3359,0.5 l -0.5469,2.1875 q -0.0156,0.1093 -0.1172,0.1875 -0.1015,0.0781 -0.2109,0.0781 -0.0938,0 -0.1641,-0.0625 -0.0703,-0.0625 -0.0703,-0.1719 z"
       style="stroke:none" />
    <path
       inkscape:connector-curvature="0"
       id="path275"
       d="m 109.611,5.8643 q -0.6719,-0.5312 -1.1485,-1.2187 -0.4765,-0.6875 -0.789,-1.461 -0.3125,-0.7734 -0.461,-1.6171 -0.1484,-0.8438 -0.1484,-1.6875 0,-0.8594 0.1484,-1.7032 0.1485,-0.8437 0.461,-1.625 0.3125,-0.7812 0.8046,-1.4609 0.4922,-0.6797 1.1329,-1.1953 0,-0.0156 0.0625,-0.0156 h 0.1093 q 0.0313,0 0.0625,0.0312 0.0313,0.0313 0.0313,0.0781 0,0.0469 -0.0156,0.0782 -0.5938,0.5625 -0.9844,1.2187 -0.3906,0.6563 -0.625,1.3984 -0.2344,0.7422 -0.3438,1.5391 -0.1093,0.7969 -0.1093,1.6563 0,3.8125 2.0468,5.7968 0.0313,0.0313 0.0313,0.0938 0,0.0312 -0.0313,0.0703 -0.0312,0.0391 -0.0625,0.0391 h -0.1093 q -0.0625,0 -0.0625,-0.0157 z"
       style="stroke:none" />
    <path
       inkscape:connector-curvature="0"
       id="path277"
       d="m 111.1995,2.6612 q 0,-0.0625 0.0156,-0.1094 l 1.7344,-6.9375 q 0.0469,-0.2031 0.0625,-0.3125 0,-0.2031 -0.7812,-0.2031 -0.125,0 -0.125,-0.1562 0,-0.0313 0.0234,-0.1016 0.0234,-0.0703 0.0547,-0.1172 0.0312,-0.0469 0.0937,-0.0469 l 1.6094,-0.125 h 0.0469 q 0,0.0157 0.039,0.0313 0.0391,0.0156 0.0391,0.0312 0.0313,0.0625 0.0313,0.0938 l -1.2657,5.0156 q 0.4375,-0.1875 1.0938,-0.8672 0.6562,-0.6797 1.0312,-0.9765 0.375,-0.2969 0.9375,-0.2969 0.3282,0 0.5625,0.2265 0.2344,0.2266 0.2344,0.5547 0,0.2188 -0.0859,0.3985 -0.086,0.1797 -0.2422,0.289 -0.1563,0.1094 -0.375,0.1094 -0.1875,0 -0.3203,-0.125 -0.1328,-0.125 -0.1328,-0.3125 0,-0.2812 0.2031,-0.4766 0.2031,-0.1953 0.4844,-0.1953 -0.1094,-0.1718 -0.3594,-0.1718 -0.3438,0 -0.6797,0.2109 -0.3359,0.2109 -0.7188,0.5937 -0.3828,0.3829 -0.6953,0.7032 -0.3125,0.3203 -0.5937,0.4765 0.7187,0.0782 1.2344,0.375 0.5156,0.2969 0.5156,0.8907 0,0.125 -0.0469,0.3125 -0.0937,0.4531 -0.0937,0.7187 0,0.5313 0.3593,0.5313 0.4375,0 0.6641,-0.4688 0.2266,-0.4687 0.3672,-1.1094 0.0312,-0.0625 0.1094,-0.0625 h 0.1406 q 0.0469,0 0.0781,0.0235 0.0313,0.0234 0.0313,0.0703 0,0.0156 -0.0157,0.0469 -0.4531,1.8281 -1.3906,1.8281 -0.3437,0 -0.6016,-0.1641 -0.2578,-0.164 -0.3984,-0.4375 -0.1406,-0.2734 -0.1406,-0.6015 0,-0.2032 0.0469,-0.4063 0.0312,-0.1406 0.0312,-0.2656 0,-0.4531 -0.4062,-0.6953 -0.4063,-0.2422 -0.9375,-0.2891 l -0.6094,2.4375 q -0.0469,0.1875 -0.1797,0.3047 -0.1328,0.1172 -0.3047,0.1172 -0.1562,0 -0.2656,-0.1094 -0.1094,-0.1094 -0.1094,-0.25 z"
       style="stroke:none" />
    <path
       inkscape:connector-curvature="0"
       id="path279"
       d="m 117.9651,5.88 q -0.1093,0 -0.1093,-0.1094 0,-0.0469 0.0312,-0.0781 2.0469,-2 2.0469,-5.8125 0,-3.8125 -2.0313,-5.7969 -0.0468,-0.0313 -0.0468,-0.0938 0,-0.0468 0.0312,-0.0781 0.0313,-0.0312 0.0781,-0.0312 h 0.1094 q 0.0313,0 0.0625,0.0156 0.8594,0.6875 1.4297,1.6562 0.5703,0.9688 0.8438,2.0703 0.2734,1.1016 0.2734,2.2579 0,0.8437 -0.1484,1.6718 -0.1485,0.8282 -0.461,1.625 -0.3125,0.7969 -0.789,1.4766 -0.4766,0.6797 -1.1485,1.2109 -0.0312,0.0157 -0.0625,0.0157 z"
       style="stroke:none" />
  </g>
  <g
     id="g287"
     style="color-interpolation:linearRGB;fill:#0000ff;stroke:#0000ff;stroke-width:0.66670001;stroke-linecap:butt;stroke-linejoin:round;color-rendering:optimizeQuality;image-rendering:optimizeQuality;text-rendering:geometricPrecision"
     transform="translate(-54.3073,-12.8281)">
    <line
       id="line283"
       y1="65.882896"
       x2="367.03799"
       x1="327.00339"
       style="fill:none"
       y2="65.882896" />
    <path
       inkscape:connector-curvature="0"
       id="path285"
       style="fill:none;fill-rule:evenodd;stroke:#262626;stroke-linejoin:miter"
       d="M 323,75 V 42 h 173 v 33 z" />
  </g>
</svg>
